<svg width="1201" height="328" viewBox="0 0 1201 328" fill="none" xmlns="http://www.w3.org/2000/svg">
<g clip-path="url(#clip0_4357_12753)">
<mask id="mask0_4357_12753" style="mask-type:luminance" maskUnits="userSpaceOnUse" x="0" y="-24" width="1170" height="643">
<path d="M-0.00305176 -24H1169.12V618.417H-0.00305176V-24Z" fill="white"/>
</mask>
<g mask="url(#mask0_4357_12753)">
<path d="M910.121 315.122L906.684 317.132M910.121 315.122L909.922 314.695M910.121 315.122L827.71 322.728M901.11 320.393L900.33 320.85M827.71 322.728L827.569 322.306L826.975 323.747M827.71 322.728L827.114 324.169L826.972 323.747M895.916 321.25L896.69 320.796M902.213 317.541L902.764 317.216M896.986 321.154L897.76 320.7M903.294 317.442L903.849 317.117M1050.23 617.205L962.706 619.958M1050.23 617.205L1049.81 616.302M1050.23 617.205L926.954 617.942L926.661 617.069L925.161 617.214M959.75 619.937L1039.88 617.4M925.158 617.214L925.447 618.08M925.447 618.077L926.951 617.939M886.977 267.595L886.26 266.04M886.977 267.595L810.86 275.703L815.216 288.729M886.977 267.595L871.76 278.248M886.26 266.04L801.099 275.152M886.26 266.04L884.784 262.848M748.451 280.787L644.164 291.945M747.559 292.604L751.12 292.237M807.196 276.572L801.734 277.153M807.196 276.572L807.347 276.079M807.196 276.572L810.327 286.106M748.912 282.773L745.408 283.146M807.347 276.079L810.634 286.076M807.347 276.079L801.59 276.692M684.607 289.614L744.275 283.266L744.338 282.791L684.55 289.159M746.405 292.721L744.272 283.266M683.634 289.716L683.616 289.259L643.573 293.525M683.634 289.716L643.399 293.997M683.634 289.716L684.839 299.093M893.051 280.745L894.615 284.126L806.808 293.043M684.878 299.09L683.613 289.259M746.574 292.703L744.335 282.788M748.806 282.315L745.302 282.688M752.59 298.552L650.665 308.904M863.921 283.735L864.092 283.615M868.578 280.474L868.59 280.465M835.23 348.558L830.03 333.01L913.749 325.54L912.89 323.681L819.272 332.087M761.607 337.264L655.058 346.831M646.246 347.619L644.881 347.743M760.878 351.208L764.777 350.874M819.989 334.34L825.981 333.808L829.756 345.309M762.129 339.497L758.296 339.839M825.981 333.811L826.174 333.356L819.856 333.919M757.142 339.515L757.055 339.951M757.142 339.515L759.803 351.302M757.142 339.515L691.853 345.339M757.055 339.951L691.907 345.754M757.055 339.951L759.619 351.317M690.838 345.429L690.847 345.847M690.838 345.429L692.335 357.078M690.838 345.429L655.194 348.609M655.067 349.039L690.847 345.85L692.29 357.084M921.033 341.305L922.91 345.369L826.086 353.441M830.093 345.279L826.174 333.353M762.032 339.078L758.2 339.421M766.533 358.405L653.253 367.848M879.472 344.818L880.617 344.175M886.39 340.929L887.291 340.42M891.114 338.272L913.749 325.543M893.419 279.105L890.593 281.001M893.419 279.105L893.241 278.723M893.419 279.105L815.738 287.111M815.738 287.108L815.611 286.729M886.528 281.416L886.709 281.292M887.396 281.325L887.577 281.202M815.096 288.251L815.222 288.627L815.735 287.108M892.219 276.518L889.58 278.302M892.219 276.518L892.045 276.139M892.219 276.518L814.876 284.548L814.749 284.171L814.243 285.697L814.37 286.07M884.883 281.479L884.703 281.602M880.708 282.011L880.888 281.888M885.543 278.72L885.555 278.711M881.554 281.924L881.735 281.801M886.399 278.63L886.411 278.621M814.367 286.07L814.873 284.544M921.368 339.364L917.081 341.639M921.368 339.364L921.154 338.907M921.368 339.364L835.754 346.651L835.604 346.199M912.302 342.042L913.532 341.386M913.562 341.936L914.794 341.281M834.947 347.58L835.098 348.031L835.751 346.651M850.794 395.08L844.886 377.421L934.57 370.61L933.594 368.495L833.341 376.172M771.769 380.884L658.348 389.569M655.272 389.804L641.51 390.856M771.197 396.594L775.361 396.293M840.533 378.146L834.127 378.63M772.339 383.317L768.25 383.627M840.762 377.734L840.536 378.146M840.762 377.734L845.211 391.272M840.762 377.734L834.004 378.248M767.033 383.332L766.925 383.73M767.033 383.332L770.046 396.678M767.033 383.332L697.481 388.615M766.925 383.73L697.529 388.991M766.925 383.73L769.847 396.693M696.402 388.696V389.076M696.402 388.696L698.092 401.852M696.402 388.696L657.607 391.642M696.402 389.076L657.381 392.036M696.402 389.076L698.044 401.855M844.85 391.299L840.533 378.149M942.87 388.57L945.012 393.209L841.081 400.417M633.529 406.494L636.496 406.281M772.248 382.935L768.16 383.245M777.352 404.837L657.812 413.128M887.435 392.49L889.821 391.383M896.931 388.083L898.98 387.132M903.421 385.068L934.57 370.607M879.045 250.426L878.367 248.958M879.045 250.426L805.166 258.678L809.287 271.001M879.045 250.426L865.499 260.495M878.367 248.955L795.697 258.227M744.531 263.967L647.586 274.839M743.597 275.182L747.056 274.806M801.614 259.562L796.308 260.155M801.614 259.562L801.752 259.06L796.161 259.686M801.614 259.562L804.563 268.549M744.977 265.88L741.569 266.259M740.524 265.898L740.467 266.383M740.524 265.898L742.642 275.288M740.524 265.898L682.369 272.393M740.467 266.383L682.426 272.857M740.467 266.383L742.479 275.306M681.483 272.965L681.462 272.496L647.695 276.268M647.725 276.732L681.48 272.965L682.619 281.819M804.861 268.516L801.752 259.057M682.658 281.816L681.459 272.496M744.868 265.414L741.464 265.793M1010.98 532.575L989.312 536.098M1010.98 532.575L1010.63 531.823M1010.98 532.575L899.363 535.866L899.119 535.135M979.327 537.722L977.963 537.945M968.084 539.551L949.757 542.533M899.116 535.135L897.905 535.758M940.294 542.788L958.28 539.825M967.972 538.228L969.313 538.008M979.107 536.392L995.937 533.619M945.606 542.644L963.785 539.672M973.579 538.068L974.932 537.845M984.835 536.227L1001.85 533.444M897.908 535.758L898.152 536.483M898.149 536.486L899.363 535.869M911.474 318.037L907.78 320.173M911.474 318.037L911.275 317.607M911.474 318.037L828.677 325.607L828.536 325.182M903.276 320.583L904.063 320.125M904.376 320.48L905.162 320.023M827.933 326.617L828.075 327.042M828.075 327.039L828.677 325.604M877.348 244.457L875.116 246.148M877.348 244.457L877.192 244.117M877.348 244.457L804.19 252.76L803.786 254.214M804.19 252.757L804.075 252.42M803.638 254L803.714 254.223M1031.01 575.758L987.751 579.816M1031.01 575.758L1030.62 574.933M1031.01 575.758L913.462 577.806M913.459 577.806L913.191 577.006M913.191 577.003L911.836 577.391M973.022 580.057L1010.35 576.486M983.205 579.888L1021.26 576.296M911.836 577.394L912.101 578.192" stroke="white" stroke-width="0.5" stroke-miterlimit="10"/>
<mask id="mask1_4357_12753" style="mask-type:luminance" maskUnits="userSpaceOnUse" x="1" y="31" width="1200" height="599">
<path d="M1.6781 31.5596H1201V629.774H1.6781V31.5596Z" fill="white"/>
</mask>
<g mask="url(#mask1_4357_12753)">
<path d="M912.11 578.189L913.469 577.804M1012.66 536.197L1006.68 537.133M1012.66 536.197L1012.31 535.439M1012.66 536.197L900.553 539.389L900.306 538.652L899.083 539.257L899.327 539.988L900.55 539.389M996.265 538.766L976.948 541.793M966.74 542.07L985.685 539.061M995.901 537.437L997.314 537.211M972.564 541.913L991.722 538.893M1002.05 537.265L1003.48 537.04M877.039 243.775L876.484 244.196M877.039 243.775L876.882 243.435M877.039 243.775L803.967 252.081M803.967 252.081L803.853 251.744M803.967 252.081L803.53 253.66M803.53 253.66L803.744 253.636M803.53 253.66L803.419 253.323M831.356 629.775L741.136 245.213L740.823 248.02M812.3 554.819L812.065 553.815M771.972 381.726L771.941 381.594M766.769 359.383L766.696 359.07M740.985 248.715L740.955 248.582M740.952 248.582L740.82 248.02M996.464 501.272L992.445 502.139M996.464 501.272L996.139 500.574M996.464 501.272L889.12 505.385M889.12 505.385L888.891 504.705M889.12 505.385L888.008 506.158M888.891 504.702L887.782 505.478M964.026 506.763L975.673 504.227M968.117 506.612L979.858 504.07M888.008 506.158L889.288 506.11M888.008 506.158L887.782 505.481M876.282 242.147L874.194 243.742M876.282 242.147L876.126 241.81M876.282 242.147L803.422 250.465M803.313 250.128L803.425 250.465L802.991 252.048L803.795 251.958M803.31 250.128L802.876 251.711M802.879 251.711L802.991 252.045M1049.4 615.403L1017.03 616.507M1049.4 615.403L1048.98 614.507M1049.4 615.403L926.375 616.201M980.524 617.753L962.128 618.382M926.372 616.201L926.08 615.331M926.083 615.331L924.589 615.484M982.621 616.721L1008.1 615.812M959.175 618.355L975.975 617.777M1012.17 616.537L1039.08 615.614M924.586 615.487L924.875 616.351M924.875 616.348L926.372 616.197M953.478 408.586L946.706 411.2M953.478 408.586L953.222 408.032M953.478 408.586L858.649 414.735M937.881 414.602L934.209 416.019M858.649 414.735L858.465 414.19L857.63 415.355M858.649 414.735L857.811 415.896M928.478 416.383L932.109 414.969M940.828 411.576L944.021 410.333M930.416 416.26L934.061 414.846M942.816 411.45L946.025 410.204M857.627 415.355L857.808 415.896M930.382 358.787L925.707 361.07M930.382 358.787L930.156 358.303M930.382 358.787L842.193 365.788L842.033 365.309M918.868 364.41L917.066 365.288M842.033 365.312L841.331 366.639M912.107 365.673L913.891 364.798M920.657 361.468L922.137 360.739M913.505 365.565L915.292 364.687M922.079 361.356L923.565 360.628M841.328 366.639L841.488 367.114L842.193 365.791M884.028 258.847L881.69 260.532M884.028 258.847L883.862 258.489M884.028 258.847L808.992 267.036M808.408 268.236L808.875 266.681L808.995 267.036L808.525 268.591L809.414 268.495M808.408 268.239L808.525 268.594M1013.37 537.714L989.05 541.465M1013.37 537.714L1013.01 536.955M1013.37 537.714L901.047 540.863M901.047 540.863L900.8 540.126L899.574 540.722L899.821 541.456M901.047 540.863L899.818 541.456M978.505 541.751L997.88 538.721M984.564 541.585L1004.16 538.544M741.564 222.686L646.279 234.56M740.317 237.607L741.817 223.717M741.561 222.686L741.814 223.72L658.987 234.015M658.99 234.012L660.292 247.225L644.547 249.118M902.183 297.987L898.968 299.996M902.183 297.987L901.996 297.58M902.183 297.987L822.026 305.793M821.887 305.393L822.023 305.793L821.468 307.274L821.336 306.874M894.696 300.411L895.142 300.132M895.669 300.315L896.115 300.035M997.115 502.671L980.822 506.14M997.115 502.671L996.79 501.97M997.115 502.671L889.581 506.748M889.581 506.748L889.352 506.065M889.581 506.748L888.463 507.515L888.237 506.835M972.266 506.456L984.1 503.908M976.472 506.302L988.399 503.748M1028.42 570.171L991.204 573.986M1028.42 570.171L1028.04 569.356M1028.42 570.171L911.646 572.389M977.05 575.433L971.829 575.969M957.907 577.395L947.272 578.484M911.646 572.386L911.381 571.594M911.378 571.594L910.043 572.016L910.305 572.804L911.643 572.389M944.16 577.693L944.844 577.62M958.41 576.206L963.496 575.677M977.288 574.236L1008.84 570.942M944.428 578.418L953.626 577.47M967.43 576.047L972.606 575.514M986.64 574.067L1018.76 570.755M941.539 382.842L935.965 385.282M941.539 382.842L941.298 382.325M941.539 382.842L850.15 389.455M928.258 388.655L925.673 389.786M850.15 389.455L849.978 388.947M850.15 389.455L849.381 390.703L849.213 390.195L849.978 388.944M920.365 390.162L922.923 389.034M930.545 385.67L932.741 384.702M921.998 390.048L924.565 388.919M932.211 385.55L934.417 384.578M954.716 411.26L952.897 411.952M954.716 411.26L954.457 410.701M954.716 411.26L859.528 417.361M937.914 415.788L941.614 414.368M939.924 415.661L943.639 414.238M858.685 418.51L859.299 418.471M858.685 418.51L858.501 417.963L859.345 416.811L859.528 417.358L858.685 418.51ZM943.181 386.383L937.158 388.977M943.181 386.383L942.94 385.86M943.181 386.383L851.319 392.933L851.147 392.418M931.681 389.362L934.299 388.228M933.386 389.241L936.013 388.104M850.37 393.658L850.541 394.169M850.541 394.172L851.319 392.936M982.096 470.292L970.184 473.505M982.096 470.292L981.795 469.642M982.096 470.292L878.958 475.15L878.744 474.515M962.818 473.844L970.612 471.721M965.981 473.697L973.823 471.57M877.728 475.433L877.939 476.065L878.955 475.15M900.909 295.243L897.911 297.135M900.909 295.243L900.722 294.843M900.909 295.243L821.11 303.08L820.561 304.566L820.429 304.169L820.977 302.683M892.81 300.357L892.367 300.637M821.113 303.08L820.98 302.683M888.177 301.043L888.617 300.763M893.669 297.55L893.916 297.394M889.123 300.95L889.563 300.67M894.627 297.457L894.874 297.301M901.806 297.177L901.008 297.677M901.806 297.177L901.62 296.774M901.806 297.177L821.754 304.993M821.754 304.993L821.619 304.593M821.754 304.993L821.2 306.476L821.492 306.449M821.622 304.593L821.067 306.076L821.2 306.473M892.759 300.598L893.202 300.318M893.726 300.505L894.172 300.225M920.949 338.45L919.886 339.016M920.949 338.45L920.739 337.993M920.949 338.45L835.456 345.748L835.306 345.297M835.303 345.297L834.652 346.681M909.811 342.253L911.034 341.597" stroke="white" stroke-width="0.5" stroke-miterlimit="10"/>
<path d="M911.056 342.147L912.282 341.492M834.8 347.129L835.18 347.096M834.8 347.129L834.649 346.681M834.8 347.129L835.454 345.749M919.931 336.26L915.949 338.399M919.931 336.26L919.721 335.806M919.931 336.26L834.728 343.588M909.803 341.702L908.582 342.358M903.916 342.752L905.124 342.099M911.209 338.808L912.162 338.294M905.133 342.65L906.344 341.997M912.442 338.703L913.394 338.188M834.083 344.978L833.932 344.533L834.577 343.143L834.728 343.591L834.08 344.978M968.172 440.276L958.986 443.261M968.172 440.276L967.892 439.675M968.172 440.276L869.085 445.797L868.886 445.207M952.439 443.619L957.778 441.868M954.937 443.483L960.302 441.73M867.961 446.248L868.157 446.835M868.16 446.838L869.088 445.797M885.158 261.29L882.655 263.08M885.158 261.29L884.992 260.929M885.158 261.29L809.806 269.458M809.806 269.458L809.686 269.1M809.806 269.458L809.336 270.995M809.213 270.652L809.327 270.995M931.461 361.122L930.211 361.726M931.461 361.122L931.235 360.634M931.461 361.122L842.961 368.086L842.799 367.605M842.802 367.608L842.094 368.925L842.253 369.404M918.895 365.147L920.703 364.265M920.332 365.033L922.146 364.151M842.253 369.404L842.69 369.371M842.253 369.404L842.964 368.086M942.693 385.336L941.198 385.983M942.693 385.336L942.452 384.816M942.693 385.336L850.969 391.904M928.298 389.602L930.898 388.468M929.982 389.482L932.591 388.348M850.707 393.113L850.195 393.149L850.969 391.907L850.798 391.395L850.026 392.638L850.198 393.149M884.827 260.571L884.203 261.016M884.827 260.571L884.661 260.21M884.827 260.571L809.568 268.745L809.095 270.297M809.565 268.745L809.445 268.39M809.095 270.297L809.33 270.273M809.095 270.297L808.975 269.942M893.067 278.342L892.365 278.814M893.067 278.342L892.889 277.96M893.067 278.342L815.485 286.353L815.359 285.977L814.849 287.499L814.976 287.875M884.803 281.594L884.983 281.47M885.664 281.503L885.845 281.38M814.976 287.875L815.238 287.848M814.976 287.875L815.488 286.353M981.491 468.995L978.548 469.795M981.491 468.995L981.19 468.348M981.491 468.995L878.527 473.884M878.527 473.884L878.316 473.252L877.307 474.175L877.518 474.804M878.527 473.884L877.515 474.804L878.47 474.759M956.594 474.133L964.294 472.018M959.688 473.989L967.434 471.871M966.283 436.2L957.844 439.007M966.283 436.2L966.006 435.604M966.283 436.2L867.744 441.805M947.525 442.437L942.292 444.178M867.744 441.805L867.549 441.221L866.636 442.28L866.832 442.861M867.744 441.805L866.829 442.861M936.029 444.521L941.198 442.785M951.388 439.368L956.021 437.813M938.382 444.392L943.576 442.656M953.813 439.233L958.468 437.677M994.913 497.93L980.169 501.188M994.913 497.93L994.591 497.238M994.913 497.93L888.023 502.127M964.511 504.648L953.108 507.169M888.023 502.127L887.797 501.45M888.023 502.127L886.921 502.915M887.794 501.45L886.695 502.241M945.163 507.464L956.389 504.955M971.802 501.51L982.154 499.197M948.992 507.322L960.302 504.807M975.83 501.357L986.263 499.037M886.698 502.244L886.924 502.915M1047.4 611.107L960.721 614.612M1047.4 611.107L1046.99 610.217M1047.4 611.107L924.975 612.046M924.975 612.046L924.686 611.185L923.206 611.366L923.493 612.22L924.975 612.046ZM957.778 614.582L1037.14 611.354M911.08 317.177L910.164 317.71M911.08 317.177L910.881 316.747M911.08 317.177L828.398 324.759M901.09 320.782L901.873 320.324M902.183 320.682L902.967 320.225M827.795 326.194L828.127 326.164M827.795 326.194L827.654 325.77L828.253 324.331L828.395 324.756L827.795 326.194ZM1030.24 574.107L1019.68 575.123M1030.24 574.107L1029.86 573.282M1030.24 574.107L912.927 576.206L912.659 575.409M1004.48 576.589L967.545 580.148M912.659 575.406L911.309 575.803M953.641 580.376L989.583 576.847M1004.38 575.394L1009.92 574.85M963.177 580.22L999.797 576.67M1014.87 575.211L1020.52 574.663M911.309 575.806L911.574 576.601M911.574 576.598L912.927 576.203M931.913 362.099L926.873 364.524M931.913 362.099L931.687 361.609M931.913 362.099L843.284 369.049M843.124 368.567L843.287 369.049L842.573 370.364L842.413 369.885M921.778 364.921L923.595 364.04M923.233 364.807L925.056 363.925M955.235 412.379L947.893 415.159M955.235 412.379L954.976 411.82M955.235 412.379L859.896 418.456L859.712 417.906M941.946 415.532L945.675 414.109M943.985 415.403L947.73 413.977M858.866 419.058L859.05 419.606M859.047 419.606L859.893 418.459M980.057 465.899L969.178 468.92M980.057 465.899L979.759 465.258M980.057 465.899L877.512 470.86M956.747 472.37L949.158 474.476M877.512 470.86L877.301 470.234M877.512 470.86L876.509 471.793L876.301 471.17M877.301 470.231L876.301 471.167M942.196 474.801L949.679 472.704M961.938 469.266L968.747 467.355M945.133 474.663L952.662 472.56M964.993 469.118L971.844 467.205M967.614 439.073L965.34 439.816M967.614 439.073L967.337 438.471M967.614 439.073L868.69 444.618M868.69 444.618L868.492 444.031L867.57 445.078L867.766 445.665M868.69 444.618L867.766 445.665M947.51 443.893L952.798 442.148M949.963 443.757L955.277 442.009M867.766 445.665L868.519 445.622M774.367 241.296L775.693 234.485M775.693 234.485L775.367 233.396M775.693 234.485L725.545 240.496L727.455 249.584M1054.31 629.775L1053.89 628.863L914.129 629.251M829.693 629.486L726.338 629.775M871.543 234.184L870.902 232.794L790.582 242.195M871.543 234.184L799.774 242.553M871.543 234.184L859.411 243.718M799.777 242.553L803.681 254.226M739.85 258.685L743.215 258.302M796.33 243.453L791.172 244.055M741.251 249.867L737.937 250.252M796.457 242.941L796.327 243.453M796.457 242.941L799.403 251.9M796.457 242.941L791.019 243.576M736.912 249.885L736.861 250.378M736.912 249.885L738.922 258.79M736.912 249.885L680.303 256.488M736.861 250.378L680.363 256.961M736.861 250.378L738.762 258.808M679.441 257.066L679.42 256.591L640.552 261.124M679.441 257.066L640.39 261.615M679.441 257.066L680.517 265.441M799.114 251.934L796.33 243.45M878.37 248.955L876.976 245.938M680.556 265.435L679.417 256.591M741.139 249.391L737.825 249.777" stroke="white" stroke-width="0.5" stroke-miterlimit="10"/>
<path d="M1001.2 514.813L999.794 511.772L878.003 516.077M1001.2 514.813L892.108 518.577M1001.2 514.813L928.762 528.77L895.862 529.798M803.883 518.697L662.416 523.7M642.028 524.422L632.228 524.768M633.59 527.696L632.333 527.738M803.955 540.695L808.971 540.551M886.758 518.977L879.015 519.245M886.758 518.977L887.116 518.751M886.758 518.977L893.039 538.12M804.606 521.805L799.701 521.974M887.116 518.751L893.479 538.108M887.116 518.751L878.946 519.034M715.208 524.886L798.113 522.031L798.3 521.814L715.181 524.681M634.807 527.455L634.915 527.65L634.93 528.057M634.807 527.455L634.831 528.066M634.807 527.455L638.817 527.316M802.331 540.74L798.113 522.028M713.895 524.726L713.865 524.931L666.203 526.573M713.895 524.726L716.275 543.228M713.895 524.726L666.188 526.372M638.585 527.524L634.912 527.65M716.215 543.228L713.862 524.931M1013.21 540.806L1016.33 547.563L889.084 550.782M633.581 527.497L632.324 527.539M802.569 540.734L798.297 521.814M804.558 521.597L799.653 521.766M811.812 552.738L648.328 556.874M934.043 542.96L933.136 540.526M932.654 539.224L932.588 539.043M932.1 537.741L931.271 535.514M930.78 534.197L928.759 528.77M970.383 448.117L971.588 450.725L871.182 456.02M970.383 448.117L858.224 454.115M970.383 448.117L967.913 442.771M789.69 457.78L661.623 464.627M789.446 476.862L794.082 476.639M866.28 456.582L859.134 456.958M866.28 456.582L866.578 456.263L859.04 456.66M866.28 456.582L871.646 472.93M790.341 460.58L785.797 460.818M784.478 460.592L784.327 460.896M784.478 460.592L788.165 476.925M784.478 460.592L707.375 464.657M707.414 464.946L784.33 460.896L787.945 476.934M706.179 464.72L706.164 465.012M706.179 464.72L708.24 480.749M706.179 464.72L661.801 467.061M706.164 465.012L661.825 467.346M706.164 465.012L708.186 480.752M981.862 472.96L984.525 478.724L867.747 483.947M872.05 472.909L866.578 456.26M790.274 460.286L785.734 460.526M796.529 487.133L646.373 493.848M909.236 476.33L908.603 474.627M907.57 471.856L907.058 470.475M876.508 471.946L907.058 470.478L907.651 470.298M913.617 468.469L971.591 450.725M945.016 393.21L946.061 395.472L853.063 401.859M853.066 401.862L859.381 420.743M776.877 421.564L781.188 421.287M848.544 402.542L841.91 402.996M848.544 402.542L848.791 402.154M848.544 402.542L853.175 416.648M777.949 407.382L773.719 407.671M848.791 402.154L853.548 416.624M848.791 402.154L841.792 402.635M700.615 412.686L772.348 407.767L772.469 407.397L700.569 412.337M775.482 421.651L772.351 407.764M699.455 412.412V412.767M699.455 412.412L701.256 426.432M699.455 412.412L657.975 415.261M699.449 412.767L657.996 415.61M701.208 426.438L699.452 412.767M954.949 414.714L957.247 419.687L849.357 426.341M775.686 421.639L772.472 407.397M777.865 407.027L773.638 407.319M783.312 430.412L643.89 439.01M889.478 418.844L892.823 417.464M900.858 414.142L903.801 412.927M908.643 410.929L946.061 395.475M903.482 303.309L904.289 305.057L823.267 312.779L828.163 327.412M903.482 303.309L812.861 311.994M903.482 303.309L901.825 299.72M756.971 317.349L648.084 327.785M756.182 330.523L759.96 330.177M819.353 313.603L813.551 314.157M819.353 313.603L819.531 313.134L813.412 313.718M819.353 313.603L822.893 324.389M757.471 319.494L753.754 319.849M752.63 319.512L752.552 319.963M752.63 319.512L755.136 330.619M752.63 319.512L689.284 325.55M752.552 319.963L689.341 325.98M752.552 319.963L754.959 330.634M688.298 325.643L688.31 326.076M688.298 325.643L689.711 336.633M688.298 325.643L647.331 329.548M688.31 326.076L647.141 329.996M688.31 326.076L689.666 336.636M912.894 323.682L911.131 319.867M823.219 324.359L819.528 313.134M757.369 319.058L753.654 319.413M874.529 323.194L875.267 322.743M880.537 319.533L881.064 319.211M884.64 317.03L904.286 305.054M1034.3 586.453L1035.96 590.045L916.554 591.655M1034.3 586.453L901.08 588.382M820.387 589.549L673.919 591.667M636.253 600.292L636.163 597.798M820.89 615.196L826.355 615.157M910.667 591.826L902.219 591.941M910.667 591.826L911.104 591.73M910.667 591.826L918.115 614.519M821.2 593.03L815.868 593.102M911.104 591.73L918.594 614.516M911.104 591.73L902.189 591.85M814.141 593.123L814.376 593.033L724.229 594.248M724.241 594.332L814.144 593.123L819.124 615.208M674.175 595.006L722.785 594.353L722.837 594.266L674.172 594.922M725.551 615.861L722.788 594.353M637.594 597.75L637.672 599.838M1053.89 628.863L1050.18 620.834M725.611 615.861L722.834 594.266M637.485 597.753L637.567 599.874M819.384 615.205L814.376 593.03M821.179 592.939L815.847 593.012M961.556 616.853L961.281 616.116M960.375 613.679L959.73 611.944M959.341 610.912L953.78 595.972L1035.96 590.048M918.142 596.402L953.78 595.969M895.38 285.775L894.618 284.13M895.38 285.775L816.886 293.709L821.501 307.502M895.38 285.775L878.159 297.06M751.747 311.019L755.414 310.661M813.102 294.557L807.474 295.126M813.102 294.557L813.265 294.073L807.329 294.671M813.102 294.557L816.428 304.69M753.073 300.616L749.463 300.98M748.301 301.097L748.37 300.634L686.852 306.853M686.909 307.295L748.297 301.097L750.56 311.137M685.894 306.949L685.909 307.397L687.187 317.34M685.894 306.949L687.229 317.334M685.894 306.949L650.232 310.553M685.909 307.394L650.265 310.992M816.744 304.659L813.265 294.076M750.735 311.119L748.367 300.634M752.97 300.168L749.364 300.532M869.293 302.872L869.715 302.596M874.562 299.419L874.8 299.262M957.25 419.684L958.371 422.112L861.809 427.999M782.944 448.258L787.412 448.005M850.222 429.043L857.103 428.625L857.374 428.27L850.117 428.712M783.935 433.08L779.555 433.348M778.136 433.432L778.271 433.092L703.859 437.629M778.136 433.432L703.902 437.951M778.136 433.432L781.498 448.339M702.696 438.023L702.705 437.698L642.366 441.378M642.152 441.712L702.696 438.026L704.579 452.677M862.083 443.793L857.106 428.625M862.472 443.772L857.377 428.27M704.631 452.674L702.705 437.701M781.709 448.327L778.268 433.092M783.857 432.752L779.48 433.02" stroke="white" stroke-width="0.5" stroke-miterlimit="10"/>
</g>
<path d="M898.164 446.606L897.642 445.201M867.75 445.778L868.404 445.742M902.909 442.093L907.105 440.58M912.441 438.66L958.365 422.114M923.82 347.348L922.904 345.369M923.82 347.348L837.222 354.518L842.759 371.073M923.82 347.348L897.45 360.904M765.873 373.191L769.901 372.872M833.025 355.282L826.833 355.793M767.072 360.733L763.114 361.061M761.933 360.748L761.836 361.166L694.634 366.72M761.933 360.748L764.762 373.278M761.933 360.748L694.579 366.323M764.569 373.293L761.833 361.166M693.54 366.813L693.534 366.413L652.238 369.83M652.027 370.246L693.537 366.813L695.077 378.784M837.059 367.568L833.028 355.282L833.236 354.846L826.707 355.387M933.591 368.495L931.587 364.157M837.408 367.541L833.236 354.849M695.122 378.778L693.531 366.41M766.979 360.333L763.023 360.661M883.898 367.869L885.576 367.006M891.948 363.732L893.34 363.016M984.521 478.724L985.82 481.537L881.25 486.13M632.981 511.335L632.884 508.73M796.423 507.593L801.243 507.406M876.131 486.618L868.699 486.943M876.131 486.618L876.457 486.341M876.131 486.618L881.928 504.283M797.209 490.081L792.491 490.288M876.457 486.341L882.35 504.268M876.457 486.341L868.614 486.687M791.132 490.09L790.967 490.354M791.132 490.09L795.094 507.644M791.132 490.09L711.135 493.603M790.964 490.354L711.165 493.853M794.865 507.653L790.964 490.351M709.893 493.658L709.872 493.91M709.893 493.658L712.105 510.857M709.893 493.658L643.914 496.555M709.872 493.91L643.682 496.813M709.872 493.91L712.05 510.86M634.131 507.355L634.279 511.203M999.787 511.771L996.91 505.541M639.982 513.649L654.603 513.083M634.038 507.457L634.18 511.212M797.149 489.825L792.434 490.032M921.154 508.354L920.395 506.311M919.358 503.528L918.668 501.675M918.138 500.252L917.533 498.621M885.85 499.888L917.533 498.624M917.53 498.624L985.817 481.537M1017.85 550.863L1016.32 547.563M1017.85 550.863L903.831 553.643M1017.85 550.863L940.803 561.134M635.49 579.69L634.954 565.099M634.162 579.714L635.493 579.69M812.077 576.45L817.31 576.353M898.224 553.938L890.144 554.133M812.571 556.019L807.461 556.143M898.227 553.938L898.622 553.769L890.095 553.977M805.807 556.185L806.015 556.025L719.525 558.134M805.807 556.185L719.543 558.285M805.807 556.185L810.384 576.48M718.187 558.167L718.148 558.318M718.187 558.167L720.754 578.125M718.187 558.167L643.251 559.993M718.148 558.318L643.004 560.147M718.148 558.318L720.694 578.125M636.307 564.268L636.894 579.666M905.054 574.744L898.224 553.935M1034.29 586.453L1030.89 579.103M905.512 574.735L898.619 553.769M636.204 564.332L636.789 579.666M810.634 576.477L806.018 556.025M812.535 555.866L807.425 555.989M946.494 576.417L946.332 575.98M945.895 574.804L944.907 572.148M944.461 570.959L940.803 561.134M940.803 561.134L906.587 561.886M638.238 128.491L638.114 129.002M638.238 128.491L638.205 128.046M638.238 128.491L540.444 168.954M540.444 168.954L540.495 168.509M540.444 168.954L540.667 169.285M633.927 72.5072L632.962 77.095M633.927 72.5072L633.899 72.1582M633.927 72.5072L547.057 112.531L547.099 112.176M547.68 113.587L547.057 112.528M633.872 71.8092L633.788 72.2063M633.872 71.8092L633.845 71.4632M633.872 71.8092L547.138 111.821M547.138 111.824L547.18 111.472M547.295 112.086L547.141 111.824M633.746 70.1516L633.432 71.6558M633.746 70.1516L633.719 69.8086M633.746 70.1516L547.337 110.134M547.337 110.134L547.379 109.785M547.337 110.134L547.918 111.129M636.508 106.024L636.105 107.796M636.508 106.024L636.478 105.618M636.508 106.024L543.083 146.436M543.131 146.033L543.083 146.439L543.821 147.598M639.967 150.922L639.823 151.485M639.967 150.922L639.931 150.435M639.967 150.922L537.829 191.268M537.829 191.271L537.886 190.787M538.088 191.632L537.832 191.271M638.307 129.385L637.174 134.063M638.307 129.385L638.274 128.936M638.307 129.385L540.338 169.845L541.242 171.184M540.338 169.848L540.389 169.4M636.722 108.801L635.653 113.461M636.722 108.801L636.692 108.392M636.722 108.801L542.754 149.228M542.754 149.228L542.803 148.816M542.754 149.228L543.547 150.462M635.267 89.9079L634.252 94.5349M635.267 89.9079L635.237 89.5319M635.267 89.9079L544.987 130.182M544.987 130.179L545.032 129.797M545.689 131.322L544.99 130.182M636.659 107.98L636.551 108.449M636.659 107.98L636.629 107.57M636.659 107.98L542.851 148.404L542.899 147.992M543.05 148.711L542.854 148.404M640.042 151.903L638.84 156.581M640.042 151.903L640.003 151.412M640.042 151.903L537.714 192.24M537.714 192.243L537.771 191.755M538.757 193.696L537.717 192.24M635.071 87.3538L634.716 88.9843M635.071 87.3538L635.041 86.9807M635.071 87.3538L545.291 127.598L545.336 127.222M545.945 128.672L545.291 127.601M639.786 148.584L639.247 150.702M639.786 148.584L639.75 148.1M639.786 148.584L538.1 188.952M538.1 188.952L538.157 188.47M538.1 188.952L539.067 190.317M638.075 126.358L637.611 128.293M638.075 126.358L638.042 125.916M638.075 126.358L540.694 166.825M540.694 166.825L540.745 166.382M540.694 166.825L541.534 168.079M635.21 89.1528L635.117 89.583M635.21 89.1528L635.18 88.7768M635.21 89.1528L545.077 129.418M545.077 129.418L545.123 129.039M545.077 129.418L545.252 129.7M299.426 259.235L300.218 259.773M299.426 259.235L293.961 270.275M299.426 259.235L348.278 238.506M300.218 259.773L295.314 269.716M300.218 259.773L347.793 239.635M635.876 116.475L635.743 114.688M538.91 172.146L540.736 156.846L545.653 164.343M215.09 295.811L209.405 305.324M215.09 295.811L253.457 279.569M215.09 295.811L214.264 295.369M298.691 259.547L254.717 278.206M298.143 260.651L255.53 278.69L250.182 288.419M255.533 278.693L254.72 278.206L248.763 289.012M254.054 278.485L214.264 295.369M214.264 295.369L207.935 305.934M635.743 114.691L528.242 160.465M465.857 187.029L203.726 298.645L192.217 317.439L460.6 207.893M526.311 173.967L535.114 170.317M536.455 159.767L527.817 163.422M401.745 225.6L405.318 215.281L404.601 214.607L400.613 226.07M465.116 189.968L405.318 215.284M349.094 238.16L349.857 238.762L403.282 216.145M349.094 238.16L344.268 249.424M349.094 238.16L403.683 214.999M349.857 238.759L345.53 248.901M465.408 188.807L404.598 214.607M536.602 158.599L527.983 162.258M637.301 135.768L525.229 181.512" stroke="white" stroke-width="0.5" stroke-miterlimit="10"/>
<path d="M635.878 116.475L540.738 156.842M633.227 127.919L635.878 116.478M500.108 497.105L494.905 540.682M500.108 497.105L553.337 518.272M500.108 497.105L662.466 476.076L662.053 470.498L480.423 494.837M48.3328 574.918L60.6098 554.37L59.1758 554.217M104.927 548.651L60.6098 554.367M158.952 541.293L105.922 548.161M158.747 541.708L107.371 548.336L105.925 548.161L93.6658 570.402M105.141 548.263L59.1758 554.217M59.1758 554.217L46.6758 575.08M385.081 507.613L48.1099 552.767L25.5745 589.566M107.371 548.339L95.3379 570.237M161.305 541.38L149.742 564.822M221.524 533.609L161.305 541.377L159.859 541.175L148.073 564.984M475.048 532.43L489.265 531.013M493.396 498.537L479.642 500.312M289.058 550.947L298.503 523.678L383.807 512.674M224.206 533.263L222.781 533.026L211.808 558.639M295.698 524.042L224.206 533.266L213.447 558.48M298.5 523.678L297.129 523.396L287.486 551.106M221.717 533.164L159.862 541.175M295.864 523.561L222.778 533.029M383.939 512.153L297.132 523.396M493.468 497.965L479.724 499.746M667.078 538.483L471.96 554.021M371.37 562.033L25.5745 589.569M553.337 518.272L553.262 519.62M553.337 518.272L631.705 510.035M552.385 535.499L552.608 531.467M552.91 526.01L553.105 522.463M631.995 518.227L631.862 514.47M631.754 511.464L631.702 510.038M228.755 401.999L229.855 402.415M228.755 401.999L220.394 418.889M228.755 401.999L285 385.829M229.855 402.415L221.934 418.471M229.855 402.415L284.617 386.72M518.317 344.629L521.517 317.826L535.309 331.03M135.188 429.551L126.408 444.244M177.339 417.469L135.185 429.551L134.064 429.226M227.92 402.24L178.526 416.443M178.526 416.443L179.641 416.81M178.526 416.443L169.629 432.583M227.499 403.091L179.641 416.807L171.208 432.156M177.788 416.653L134.064 429.226M134.064 429.226L124.809 444.674M505.501 319.478L647.833 278.175L648.074 281.439L521.514 317.826M426.726 342.339L122.995 430.48L106.241 457.839M106.241 457.839L417.893 377.387M106.241 457.839L88.27 487.186M502.157 342.881L513.572 339.8M516.039 320.387L504.916 323.576M352.7 367.204L346.59 384.845M352.7 367.204L425.735 346.271M352.7 367.204L351.681 366.656L345.222 385.212M285.955 385.555L287.025 386.031L279.848 402.851M285.955 385.555L278.375 403.248M285.955 385.555L350.582 366.975M350.253 367.905L287.022 386.028M425.982 345.296L351.684 366.659M516.169 319.364L505.061 322.559M650.725 317.285L500.262 356.127M542.66 338.073L542.763 338.169M636.134 313.494L636.188 313.347M639.168 160.985L639.008 158.843L521.963 204.363M639.168 160.985L535.448 201.138M639.168 160.985L635.595 174.727M535.448 201.138L533.281 219.273M535.448 201.138L541.976 210.031M185.166 345.901L191.686 334.987L231.316 319.683M278.285 300.696L232.569 318.395M277.763 301.746L233.467 318.852M231.882 318.66L190.779 334.571M191.683 334.987L190.776 334.571L183.648 346.47M454.92 230.441L180.023 337.351L167.081 358.488L448.762 254.884M225.82 330.636L232.569 318.392L233.464 318.852L227.291 330.086M274.226 312.468L279.927 300.913L279.05 300.399L272.813 312.998M329.737 281.677L279.927 300.91M519.682 220.32L529.214 216.743M530.832 204.024L521.499 207.628M390.444 258.235L386.223 270.423M390.444 258.235L454.112 233.648M390.444 258.235L389.645 257.586M331.903 280.838L331.059 280.263L325.513 293.211M388.286 259.069L331.906 280.841M331.903 280.841L326.835 292.718M389.645 257.586L385.021 270.877M389.645 257.586L454.398 232.516M330.2 280.597L279.053 300.399M388.672 257.962L331.059 280.266M530.977 202.868L521.661 206.475M640.885 184.219L518.402 229.27M198.477 466.028L197.223 465.7L187.369 485.607M198.477 466.028L188.974 485.288M198.477 466.028L255.93 453.513M654 361.584L654.31 365.775L512.078 396.867M512.078 396.867L508.056 430.543M512.078 396.867L535.894 413.588M90.3367 504.617L100.661 487.337L99.3991 487.084M143.982 477.899L100.658 487.337M196.353 465.889L145.097 477.096M196.018 466.563L146.359 477.382L136.348 495.601M146.356 477.385L145.094 477.096L134.718 495.923M144.334 477.261L99.3991 487.084M99.3991 487.084L88.7038 504.936M654 361.581L494.414 397.011M408.122 416.172L88.27 487.186M88.27 487.186L68.9461 518.742L397.249 459.319M490.232 426.259L502.898 423.777M506.043 399.024L493.742 401.705M328.263 437.755L320.74 459.472M407.008 420.601L328.266 437.755M257.244 452.577L258.47 452.959L249.757 473.38M257.244 452.577L248.202 473.684M257.244 452.577L325.913 437.565M325.648 438.323L258.467 452.959M328.266 437.752L327.094 437.306L319.282 459.755M256.234 452.797L197.223 465.697M407.21 419.794L327.094 437.309M506.155 398.164L493.866 400.85M657.742 412.174L487.849 442.923M539.759 416.301L541.145 417.276M547.249 421.56L549.023 422.806M637.631 398.455L638.397 396.954M214.8 432.932L213.628 432.556L204.568 450.859M513.485 385.089L517.061 355.143L534.779 369.939M118.539 457.412L109.031 473.326M118.539 457.412L161.293 446.539M118.539 457.412L117.352 457.12M212.775 432.773L162.444 445.613M212.393 433.546L163.631 445.947M163.634 445.947L162.447 445.616L152.854 463.022M161.697 445.805L117.352 457.12M117.352 457.12L107.413 473.705M163.631 445.944L154.454 462.643M206.141 450.489L214.803 432.932L270.894 418.669M496.532 382.207L508.541 379.382M511.319 357.529L499.635 360.501M341.055 400.826L334.292 420.357M341.055 400.826L416.844 381.554M341.055 400.826L339.965 400.324L332.876 420.688M272.223 417.607L273.365 418.04M272.223 417.607L263.962 436.894M272.223 417.607L338.826 400.616M338.528 401.47L273.368 418.04L265.474 436.539M271.244 417.857L213.631 432.556M417.073 380.652L339.968 400.324M511.439 356.575L499.771 359.553M538.198 372.794L538.653 373.173M543.718 377.402L544.435 378.001M650.996 320.97L517.058 355.143M635.51 357.15L635.902 356.235M638.689 349.725L638.939 349.138M317.381 222.965L318.101 223.521M633.112 79.0923L633.001 77.5791" stroke="white" stroke-width="0.5" stroke-miterlimit="10"/>
<mask id="mask2_4357_12753" style="mask-type:luminance" maskUnits="userSpaceOnUse" x="1" y="31" width="1200" height="599">
<path d="M1.6781 31.5596H1201V629.774H1.6781V31.5596Z" fill="white"/>
</mask>
<g mask="url(#mask2_4357_12753)">
<path d="M545.248 119.135L543.687 132.215M545.248 119.135L549.089 125.543M545.248 119.135L633.118 79.0923L631.076 88.7644M235.973 260.868L230.987 269.213M273.109 243.985L235.976 260.871M316.682 223.286L274.368 242.568M316.119 224.427L275.109 243.073L270.445 251.563M275.109 243.076L274.368 242.571L269.071 252.179M273.729 242.859L235.22 260.408M235.22 260.408L235.976 260.868M235.22 260.408L229.562 269.851M633.007 77.5791L533.607 123M475.283 149.652L224.91 264.063M318.107 223.521L313.856 232.14M363.609 202.832L318.11 223.521M224.908 264.063L214.61 280.88L470.743 167.667M312.558 232.721L317.387 222.965L364.103 201.677M531.95 134.574L540.129 130.916M541.256 122.053L533.218 125.708M418.242 177.989L415.187 186.809M418.242 177.989L474.599 152.363M418.242 177.989L417.591 177.306M364.883 201.322L365.576 201.936M364.883 201.322L360.647 211.208M364.883 201.322L416.724 177.7M416.317 178.864L365.576 201.939L361.849 210.672M417.591 177.306L414.118 187.291M417.591 177.306L474.894 151.192M541.404 120.885L533.384 124.541M634.32 95.365L531.028 141.021M256.704 347.995L255.728 347.523L248.546 362.032M529.154 253.903L526.545 275.742M529.154 253.903L538.283 264.625M529.154 253.903L643.157 214.869L642.964 212.255L514.512 256.515M165.264 379.22L157.729 391.831M206.168 365.251L165.264 379.217M254.93 347.796L207.397 364.072M207.397 364.072L208.395 364.493M207.397 364.072L199.685 378.064M254.448 348.768L208.395 364.493M208.395 364.493L201.212 377.562M206.686 364.313L164.261 378.84M164.261 378.84L165.267 379.217M164.261 378.84L156.171 392.339M442.067 281.476L153.324 380.964M153.324 380.964L138.658 404.912L434.752 310.51M153.324 380.964L167.09 358.488M250.022 361.545L256.707 347.995L308.912 330.17M511.773 275.66L522.164 272.252M524.144 256.683L513.994 260.149M373.126 308.245L368.083 322.808M373.126 308.245L441.175 285.01M373.126 308.245L372.231 307.634M311.196 329.391L310.25 328.855L303.806 343.901M311.196 329.391L370.833 309.027M311.196 329.391L305.2 343.44M372.231 307.634L366.802 323.23M372.231 307.634L441.447 283.933M309.346 329.165L255.731 347.523M371.198 307.986L310.25 328.852M524.285 255.57L514.153 259.039M645.266 243.392L510.231 286.446M638.074 231.68L643.16 214.872M275.995 225.94L284.153 211.481M510.857 112.044L505.516 103.909M284.153 211.478L505.513 103.909L505.29 104.965M510.167 112.372L505.29 104.965M505.29 104.965L423.249 144.763L430.311 152.808M423.249 144.76L418.315 158.491L275.995 225.937M453.359 629.774L533.104 101.448M461.846 624.792L461.936 624.163M461.936 624.154L461.991 623.766M463.156 615.625L463.723 611.66M471.484 557.388L471.713 555.793M471.713 555.784L471.794 555.219M472.641 549.307L472.767 548.423M472.77 548.408L473.261 544.975M480.139 496.858L480.209 496.383M481.296 488.772L481.558 486.93M487.599 444.704L487.659 444.286M487.659 444.28L487.722 443.844M488.373 439.292L488.47 438.609M494.881 393.792L494.968 393.188M499.972 358.179L500.063 357.544M500.066 357.538L500.114 357.207M500.114 357.204L500.144 356.999M500.141 356.996L500.162 356.858M500.677 353.245L500.756 352.703M500.759 352.694L501.06 350.591M505.245 321.322L505.326 320.754M505.326 320.748L505.368 320.45M505.368 320.447L505.395 320.263M506.055 315.66L506.221 314.499M510.631 283.654L510.725 283.004M514.295 258.028L514.361 257.562M514.364 257.556L514.4 257.312M514.397 257.309L514.419 257.158M514.873 253.979L514.958 253.389M514.961 253.38L515.096 252.426M518.326 229.854L518.338 229.761M521.791 205.63L521.848 205.239M521.845 205.236L521.875 205.031M521.875 205.028L521.905 204.815M522.225 202.588L522.345 201.755M522.345 201.743L522.46 200.946M525.123 182.312L525.177 181.927M525.472 179.878L525.517 179.571M525.517 179.565L525.584 179.111M528.566 158.241L528.663 157.564M530.956 141.541L530.971 141.442M530.968 141.442L530.977 141.376M533.474 123.921L533.55 123.392L533.559 123.328M535.936 106.707L535.948 106.623M535.948 106.619L535.957 106.562M535.963 106.52L535.999 106.258M257.828 237.219L259.985 233.53M536.424 106.057L534.767 103.304M534.77 103.304L534.345 103.506M534.661 104.032L534.77 103.301M267.8 323.136L268.725 323.633M267.8 323.136L261.115 336.638M267.8 323.136L320.162 303.982M268.725 323.633L262.561 336.13M268.725 323.633L319.713 305.029M641.066 186.581L640.891 184.219M641.066 186.581L532.447 226.319M641.066 186.581L636.836 201.74M532.447 226.319L530.076 246.178M532.447 226.319L540.108 236.06M171.889 368.133L178.891 356.413L219.159 341.719M267.017 323.425L220.4 340.48M266.514 324.439L221.346 340.919M221.343 340.919L220.4 340.477L213.194 353.552M219.701 340.733L177.936 356.013M177.936 356.013L178.891 356.41M177.936 356.013L170.349 368.675M221.346 340.922L214.697 353.025M515.913 246.713L525.855 243.205M527.641 229.159L517.916 232.706M377.522 295.558L382.128 282.255L381.285 281.62M447.921 258.247L382.131 282.252M321.045 303.66L321.936 304.219M321.045 303.66L315.073 317.598M321.045 303.66L380.285 281.987M379.905 283.064L321.936 304.216L316.432 317.116M381.285 281.62L376.284 295.994M381.285 281.62L448.198 257.14M527.786 228.022L518.079 231.572M309.442 241.09L308.686 240.543L303.553 250.913M634.444 97.0045L634.323 95.365M541.395 151.385L543.082 137.26L547.411 144.18M225.826 277.853L220.506 286.755M225.826 277.853L263.573 261.259M225.826 277.853L225.037 277.402M307.966 240.862L264.833 259.869M307.409 241.987L265.61 260.365M265.607 260.362L264.833 259.866L259.22 270.047M264.182 260.155L225.037 277.402M225.037 277.402L219.057 287.384M265.61 260.362L260.621 269.445M309.439 241.093L304.878 250.341M355.959 220.642L309.442 241.093M203.734 298.645L214.613 280.88M529.244 153.503L537.725 149.842M538.951 140.185L530.624 143.846M412.003 196L408.701 205.531M470.032 170.485L412.003 195.997M410.026 196.869L357.975 219.755L357.249 219.147L352.733 229.688M357.972 219.755L353.962 229.156M411.322 195.32L412.006 196M411.322 195.32L407.604 206.006M411.322 195.32L470.327 169.321M356.451 219.499L308.686 240.546M410.43 195.711L357.249 219.144M539.099 139.017L530.79 142.679" stroke="white" stroke-width="0.5" stroke-miterlimit="10"/>
<path d="M543.078 137.261L634.44 97.0049L632.123 107.507M484.269 629.774L484.435 628.39L532.895 629.774M462.225 622.115L673.015 618.742L673.591 626.525L484.432 628.39M355.805 623.817L1.67925 629.482M476.876 628.514L461.288 628.667M354.317 629.717L348.357 629.774M354.329 629.672L343.956 629.774M476.882 628.465L461.294 628.619M635.931 629.774L635.922 629.494M635.922 629.494L599.769 629.774M635.922 629.494L673.594 626.525M179.369 501.771L180.712 502.042L170.252 523.249M179.369 501.771L168.613 523.498M179.369 501.771L239.799 491.067M501.915 481.988L506.47 443.838L540.785 462.945M70.1653 538.381L81.4059 519.566L80.0622 519.359M125.257 511.829L81.4089 519.566M178.48 501.928L126.317 511.167M126.317 511.167L127.667 511.404M126.317 511.167L115.058 531.594M178.203 502.484L127.667 511.401L116.709 531.341M125.546 511.302L80.0622 519.359M80.0622 519.359L68.5173 538.631M239.546 491.663L180.715 502.045M48.1119 552.767L68.9481 518.742M483.127 475.95L496.525 473.925M500.116 445.685L487.128 447.978M305.748 502.767L314.154 478.498L396.061 464.046M240.835 490.884L242.155 491.2L311.448 478.973M240.835 490.884L230.899 514.082M240.835 490.884L311.668 478.339M242.155 491.203L232.496 513.841M314.157 478.495L312.891 478.122L304.236 502.993M396.233 463.363L312.888 478.122M500.209 444.948L487.234 447.247M545.307 465.463L548.462 467.22M658.099 416.985L506.473 443.838M555.771 474.28L555.918 471.612M630.068 463.648L629.969 460.845M633.976 454.377L635.696 451.711M138.464 584.404L140.028 584.524M138.464 584.404L125.492 610.61M138.464 584.404L201.732 579.696M486.833 608.282L492.834 558.032L550.435 570.845M24.6364 614.584L38.0854 592.075L82.7887 588.763M137.54 584.47L83.7046 588.477M83.7046 588.477L85.2622 588.58L71.997 612.719M83.7046 588.477L70.3069 612.785M137.419 584.714L85.2592 588.58M82.9123 588.538L36.5459 591.988M36.5459 591.988L38.0824 592.075M36.5459 591.988L22.9675 614.654M140.028 584.521L127.191 610.544M201.618 579.957L140.025 584.521M1.67925 628.595L25.5795 589.566M465.789 597.196L480.934 596.6M485.724 558.904L471.109 559.988M281.052 574.073L270.375 604.9M369.998 567.481L281.049 574.073M202.823 579.615L204.372 579.756M202.823 579.615L190.645 608.044M202.823 579.615L278.241 574.001M278.142 574.287L204.372 579.753L192.33 607.975M279.555 573.902L281.052 574.07M279.555 573.902L268.745 604.964M279.555 573.902L370.079 567.166M485.766 558.555L471.157 559.642M667.565 545.027L492.834 558.029M548.465 606.528L548.784 600.722M548.902 598.604L548.956 597.62M549.076 595.469L549.366 590.258M549.486 588.032L550.435 570.842L633.678 565.89M635.003 603.492L634.997 603.291M634.907 600.722L634.804 597.843M634.606 592.214L634.41 586.633M242.748 373.738L243.785 374.187M242.748 373.738L235.011 389.37M242.748 373.738L297.659 356.365M243.785 374.187L236.518 388.916M243.785 374.187L297.249 357.318M645.265 243.392L645.479 246.304L525.526 284.259M522.645 308.392L525.526 284.262L536.613 296.127M150.726 403.546L142.601 417.144M150.726 403.546L192.26 390.441M150.726 403.546L149.666 403.191M241.932 373.997L193.471 389.331M193.471 389.331L194.526 389.728L241.477 374.915M193.471 389.331L185.198 404.34M192.748 389.56L149.666 403.191M149.666 403.191L141.022 417.616M194.523 389.728L186.75 403.874M122.997 430.481L138.654 404.912M507.208 307.559L518.087 304.289M520.293 286.948L509.679 290.297M357.808 352.463L363.349 336.464L362.397 335.88L356.486 352.86M433.808 314.232L363.349 336.461M299.59 356.578L298.587 356.07L291.609 372.358M360.984 337.21L299.593 356.578L293.043 371.927M361.33 336.217L298.59 356.07M434.07 313.2L362.397 335.877M520.428 285.874L509.829 289.229M641.671 172.986L641.038 175.317M641.671 172.986L641.628 172.453M641.671 172.986L535.281 213.058L535.341 212.535M536.405 214.55L535.278 213.061M641.869 175.558L641.701 176.175M641.869 175.558L641.827 175.02M641.869 175.558L534.986 215.588M535.046 215.059L534.983 215.588L535.284 215.982M641.951 176.638L640.67 181.295M641.951 176.638L641.909 176.097M641.951 176.638L534.859 216.65M534.859 216.65L534.922 216.121M534.859 216.65L536.07 218.239M643.743 199.896L642.987 202.471M643.743 199.896L643.698 199.307M643.743 199.896L532.193 239.421M532.256 238.843L532.19 239.418L533.519 241.052M643.96 202.739L643.758 203.422M643.96 202.739L643.915 202.144M643.96 202.739L531.865 242.192M531.865 242.192L531.934 241.611M531.865 242.192L532.22 242.625M644.054 203.934L642.686 208.539M644.054 203.934L644.008 203.335M644.054 203.934L531.729 243.356M531.798 242.772L531.729 243.353L533.163 245.098M646.334 233.543L646.386 234.207L528.291 272.697L528.367 272.057M530.015 274.62L528.291 272.7M646.039 229.719L645.12 232.583M646.039 229.719L645.988 229.066M646.039 229.719L528.798 268.365M528.798 268.365L528.873 267.733M528.798 268.365L530.391 270.164M646.283 232.881L646.036 233.642M646.283 232.881L646.232 232.219M646.283 232.881L528.442 271.419M528.442 271.419L528.517 270.781M528.442 271.419L528.867 271.894M648.871 266.494L648.567 267.345M648.871 266.494L648.814 265.754M648.871 266.494L524.661 303.675M524.661 303.675L524.742 302.968M524.661 303.675L525.182 304.202M648.928 267.234L648.986 267.977L524.495 305.089M524.58 304.382L524.495 305.092L526.613 307.219M648.6 262.959L647.461 266.16M648.6 262.959L648.543 262.228M648.6 262.959L525.056 300.3L525.137 299.602M527.008 302.288L525.059 300.297M651.408 299.412L651.471 300.236L520.907 335.706M520.907 335.706L520.997 334.93M520.907 335.706L523.36 337.92M641.234 312.147L641.291 311.996M641.634 312.042L641.692 311.891M651.842 305.053L651.905 305.889L520.28 341.037M520.377 340.249L520.283 341.037L522.853 343.311M644.039 311.407L644.099 311.256M644.463 311.292L644.524 311.142M651.778 304.217L651.387 305.173M651.778 304.217L651.715 303.383M651.778 304.217L520.467 339.46L520.561 338.675M643.195 311.629L643.255 311.479M643.617 311.518L643.677 311.368" stroke="white" stroke-width="0.5" stroke-miterlimit="10"/>
</g>
<path d="M521.123 340.047L520.463 339.46M654.709 342.339L652.783 346.422M654.709 342.339L654.636 341.407M654.709 342.339L516.275 375.188L519.005 377.3M516.275 375.185L516.378 374.316M642.688 355.504L643.103 354.581M643.206 355.387L643.625 354.46M646.607 347.869L646.875 347.273M655.203 348.747L515.576 381.151M515.576 381.151L515.679 380.267M515.576 381.151L518.333 383.233M646.306 354.677L646.737 353.747M646.857 354.55L647.288 353.621M654.537 347.935L655.058 346.849L515.784 379.385M515.784 379.385L515.887 378.507M515.784 379.385L516.646 380.041M645.215 354.927L645.64 353.997M645.758 354.803L646.185 353.874M658.966 397.592L655.977 402.601M658.966 397.592L658.881 396.506M658.966 397.592L510.298 426.202M510.298 426.202L510.416 425.207M510.298 426.202L513.269 428.025M648.581 404L649.677 402.072M649.337 403.856L650.442 401.924M658.797 395.423L658.062 396.666M658.797 395.423L658.713 394.343M658.797 395.423L510.53 424.217M510.645 423.224L510.53 424.214L511.723 424.954M647.095 404.28L648.18 402.354M647.833 404.138L648.924 402.21M658.399 390.264L511.084 419.487M511.199 418.507L511.084 419.484L514.022 421.35M643.685 404.924L644.739 403.01M648.403 396.353L649.243 394.824M644.381 404.791L645.441 402.875M649.123 396.211L649.969 394.68M663.099 451.266L661.966 452.701M663.099 451.266L663.003 450.017M663.099 451.266L504.589 474.909L504.721 473.784M648.267 461.046L650.674 457.836M649.352 460.889L651.78 457.674M506.393 475.751L504.589 474.912M663.196 452.517L663.292 453.775L504.327 477.168L504.459 476.037M650.461 460.73L652.91 457.508M651.584 460.571L654.058 457.343M507.544 478.642L504.327 477.165M662.641 445.309L658.538 450.688M662.641 445.309L662.548 444.078M662.641 445.309L505.222 469.545M505.348 468.435L505.219 469.545L508.4 471.076M643.314 461.753L645.622 458.567M650.455 451.9L652.437 449.163M644.312 461.612L646.64 458.423M651.515 451.744L653.516 449M667.45 507.755L667.561 509.19L498.539 526.564M498.684 525.294L498.536 526.564L502.001 527.65M639.943 527.601L645.357 522.779M652.759 516.184L657.616 511.858M668.097 516.145L666.009 517.821M668.097 516.145L667.986 514.686M668.097 516.145L497.819 532.704M497.967 531.416L497.816 532.704L501.07 533.667M646.511 527.009L652.241 522.135M648.364 526.843L654.181 521.955M668.206 517.61L668.32 519.079L497.512 535.288M497.666 533.994L497.515 535.288L501.022 536.299M650.274 526.669L656.185 521.762M652.241 526.491L658.249 521.57M673.339 584.217L652.154 591.546M673.339 584.217L673.21 582.52M673.339 584.217L490.857 592.099M644.598 594.16L641.175 595.345M490.857 592.099L491.028 590.634M490.857 592.099L494.656 592.587M630.45 595.718L633.544 594.56M640.389 591.994L657.293 585.658M634.505 595.58L637.729 594.41M644.842 591.825L662.418 585.442M667.224 594.425L673.972 592.448L490.025 599.199L493.86 599.614M490.025 599.196L490.2 597.71M653.067 594.924L656.848 593.718M630.688 603.414L650.521 597.316M658.981 594.714L662.942 593.495M645.179 603.781L674.24 595.92L489.676 602.186L489.85 600.691M638.229 603.98L663.165 596.895M493.526 602.572L489.673 602.186M290.4 279.671L289.568 279.144L283.736 290.925M637.445 137.718L637.301 135.765M637.445 137.718L538.202 178.064M637.445 137.718L634.384 150.233M536.217 194.694L538.202 178.067L543.839 186.217M203.732 314.824L197.649 325.005M242.726 299.009L203.729 314.824L202.864 314.394L196.152 325.597M288.818 279.451L243.985 297.679M288.282 280.531L244.838 298.151M244.838 298.151L243.985 297.676L237.649 309.168M244.838 298.151L239.099 308.597M243.31 297.95L202.867 314.391M290.403 279.674L285.121 290.381M339.074 259.932L290.403 279.671M180.021 337.351L192.214 317.438M523.135 196.163L532.288 192.54M533.758 180.976L524.786 184.613M398.151 235.973L394.271 247.174M398.151 235.973L459.828 210.961M398.151 235.973L397.395 235.308L393.105 247.634M340.388 258.485L341.189 259.075M340.388 258.485L335.221 270.546M340.388 258.485L396.452 235.693M341.189 259.075L396.057 236.822M341.189 259.075L336.513 270.035M339.55 258.825L289.571 279.144M460.118 209.812L397.395 235.311M533.906 179.812L524.952 183.452M325.58 206.403L326.27 206.966M325.58 206.403L321.028 215.6M325.58 206.403L371.286 184.938M631.887 62.5581L631.784 61.1592M631.887 62.5581L547.247 102.305M631.887 62.5581L630.073 71.4961M545.797 114.454L547.25 102.305L550.684 108.256M245.582 244.776L240.903 252.607M282.112 227.658L245.582 244.779M324.887 206.725L283.368 226.223M324.318 207.877L284.079 226.734L279.714 234.683M284.079 226.737L283.368 226.226L278.364 235.308M282.738 226.521L244.856 244.309M244.856 244.309L245.579 244.776M244.856 244.309L239.493 253.26M326.27 206.963L322.299 215.01M370.786 186.099L326.267 206.963M224.902 264.063L234.667 248.118M534.454 117.017L542.354 113.367M543.39 105.209L535.623 108.849M424.076 161.126L421.241 169.309M424.076 161.126L478.851 135.455M424.076 161.126L423.452 160.44M372.049 184.58L372.708 185.2M372.049 184.58L368.069 193.87M372.049 184.58L422.609 160.838M372.708 185.2L422.199 162.005M372.708 185.2L369.241 193.329M423.452 160.44L420.199 169.791M423.452 160.44L479.146 134.285M543.538 104.047L535.789 107.688M909.922 314.695L884.633 317.032M884.633 317.029L827.566 322.303M902.761 317.216L903.846 317.117M1049.8 616.302L1017.02 616.507M959.458 619.145L962.368 619.049M962.365 619.049L1006.34 617.599L1039.88 617.4M804.774 286.68L810.324 286.106L810.631 286.073M745.299 282.688L745.405 283.145L747.556 292.604M650.494 302.649L684.833 299.096M684.836 299.093H684.878M746.405 292.721L685.824 298.991L684.604 289.613L684.544 289.159M746.402 292.721L746.571 292.703M890.589 280.997L893.051 280.745M823.655 345.832L829.753 345.309L830.09 345.278M758.197 339.418L758.293 339.839L760.878 351.208M653.907 360.369L692.287 357.081M692.287 357.084H692.332M759.613 351.316L693.365 356.99L691.904 345.754L691.85 345.339M759.616 351.316L759.803 351.301" stroke="white" stroke-width="0.5" stroke-miterlimit="10"/>
<mask id="mask3_4357_12753" style="mask-type:luminance" maskUnits="userSpaceOnUse" x="1" y="31" width="1200" height="599">
<path d="M1.6781 31.5596H1201V629.774H1.6781V31.5596Z" fill="white"/>
</mask>
<g mask="url(#mask3_4357_12753)">
<path d="M917.081 341.639L921.034 341.305M893.241 278.723L892.361 278.814L815.608 286.732L815.232 287.848M815.235 287.848L815.099 288.251M815.223 288.627L864.093 283.612M892.042 276.139L871.76 278.248L814.75 284.172M814.367 286.07L868.591 280.465M921.154 338.907L919.877 339.015L835.601 346.199L835.176 347.099L834.947 347.58M913.532 341.386L914.794 341.278M838.321 391.768L844.85 391.299L845.212 391.272M768.163 383.248L768.251 383.63M768.248 383.627L771.194 396.594M657.194 404.795L698.044 401.855H698.093M699.192 401.774L769.847 396.693L770.046 396.678M697.481 388.615L697.529 388.991M697.532 388.991L699.195 401.774M937.152 388.976L942.87 388.573M799.177 269.135L804.563 268.549L804.862 268.516M741.464 265.793L741.57 266.259M741.57 266.262L743.597 275.185M646.469 285.754L682.619 281.819H682.658M742.645 275.288L742.48 275.306L683.58 281.717L682.429 272.86L682.369 272.397M809.287 270.998H809.324M1010.63 531.826L930.78 534.196M930.777 534.196L899.116 535.138M995.937 533.619L1001.85 533.444M911.275 317.607L910.161 317.71M910.158 317.71L828.533 325.183M828.536 325.179L828.123 326.16M828.123 326.163L827.933 326.617M877.189 244.114L876.475 244.195M876.478 244.195L804.075 252.421L803.738 253.639M803.738 253.636L803.639 253.997M1030.62 574.93L1019.68 575.123M1010.35 576.486L1021.26 576.296M1012.31 535.439L989.312 536.098M997.308 537.214L1003.48 537.039M876.876 243.434L874.188 243.741L803.849 251.744L803.792 251.954M803.789 251.954L803.413 253.323M741.13 245.212L774.361 241.295M774.364 241.295L789.714 239.487M914.294 629.774L914.128 629.251M829.756 629.774L829.69 629.485M804.157 519.885L803.88 518.697M789.982 459.049L789.686 457.776M771.935 381.591L771.77 380.884M748.595 281.413L748.451 280.787M876.12 241.807L859.408 243.717L803.304 250.128M1048.98 614.503L960.899 615.096L926.077 615.331M1008.09 615.812L1039.07 615.614M953.213 408.029L908.639 410.926M908.639 410.929L858.459 414.193M944.018 410.333L946.019 410.204M930.15 358.302L897.453 360.902M897.453 360.905L842.027 365.312M922.13 360.739L923.558 360.625M883.856 258.492L865.5 260.498M865.5 260.495L808.869 266.681M1013.01 536.955L1006.68 537.133M901.987 297.583L901.002 297.679M901.002 297.676L821.884 305.39M821.884 305.393L821.489 306.446L821.329 306.873M895.133 300.128L896.109 300.035M996.784 501.97L992.439 502.135L889.343 506.064L889.279 506.107M889.282 506.11L888.231 506.838M1028.03 569.356L944.464 570.962M944.464 570.959L911.372 571.594M1008.83 570.944L1018.75 570.758M941.292 382.325L903.421 385.071M903.421 385.068L849.972 388.943M932.735 384.701L934.41 384.581M954.451 410.7L946.699 411.2M942.93 385.86L941.195 385.983L851.138 392.418L850.704 393.11M850.707 393.11L850.363 393.657M934.29 388.227L936.004 388.107M981.789 469.641L978.544 469.795L878.738 474.515L878.469 474.759L877.722 475.433M970.606 471.72L973.817 471.57M900.716 294.842L878.156 297.06L820.971 302.682M893.91 297.394L894.868 297.3M901.613 296.774L897.905 297.135M920.729 337.992L915.942 338.402M919.717 335.808L891.117 338.272M891.114 338.272L834.574 343.143M912.155 338.293L913.393 338.188M967.888 439.674L965.336 439.816L868.883 445.207M868.407 445.742L867.958 446.248M957.774 441.871L960.299 441.729M884.989 260.928L884.2 261.013M884.2 261.016L809.682 269.102M809.682 269.099L809.327 270.27M809.327 270.273L809.209 270.655M931.232 360.634L925.7 361.07M942.448 384.816L935.959 385.282M884.655 260.209L881.684 260.531M881.684 260.534L809.444 268.389M809.444 268.386L809.411 268.495L808.971 269.939M892.889 277.959L889.581 278.302M981.189 468.348L969.175 468.919M966.002 435.604L912.444 438.661L867.545 441.221M956.015 437.815L958.461 437.677M994.587 497.238L918.141 500.252L887.794 501.45M982.151 499.196L986.26 499.037M1046.99 610.216L959.341 610.908M959.338 610.911L924.679 611.185M957.488 613.799L960.371 613.679L1010.99 611.555L1037.14 611.357M910.878 316.747L906.687 317.132M1029.86 573.285L991.195 573.986M1009.92 574.849L1020.52 574.66M931.684 361.609L930.208 361.726L843.121 368.567L842.687 369.37L842.41 369.885M923.592 364.039L925.053 363.925M954.969 411.819L952.891 411.952M952.894 411.952L859.709 417.908M859.706 417.908L859.29 418.471M859.293 418.471L858.862 419.058M945.672 414.109L947.727 413.979M979.755 465.258L913.613 468.468L877.298 470.231M968.747 467.355L971.841 467.208M967.334 438.471L957.844 439.004M740.817 248.019L727.452 249.584L641.022 259.701M793.877 252.529L799.11 251.933L799.4 251.9M737.822 249.779L737.93 250.254L739.846 258.684M648.587 269.078L680.513 265.441H680.552M681.45 265.333L738.759 258.804M738.759 258.807L738.918 258.789M680.299 256.488L680.359 256.96L681.45 265.336M803.678 254.226H803.714M892.105 518.577L895.859 529.795M895.859 529.798L900.565 543.871M633.601 528.173L633.583 527.695M633.586 527.695L633.58 527.497M885.11 538.348L893.036 538.119L893.476 538.107M799.65 521.768L799.698 521.976L803.952 540.695M667.534 544.636L716.211 543.231M716.211 543.228H716.269M717.585 543.189L802.328 540.74L802.566 540.734M715.178 524.681L715.205 524.885L717.585 543.192M989.044 541.465L1013.21 540.809M871.179 456.019L876.505 471.946L878.448 477.755M864.34 473.279L871.643 472.93L872.046 472.912M785.728 460.526L785.794 460.821M785.794 460.818L789.442 476.862M655.971 483.249L708.185 480.752M708.182 480.752H708.237M709.457 480.688L787.942 476.934L788.162 476.925M707.372 464.656L707.408 464.945L709.457 480.691M970.175 473.501L981.858 472.96M846.402 417.084L853.168 416.648M853.171 416.648L853.545 416.624M773.634 407.316L773.716 407.671M773.716 407.674L776.873 421.564" stroke="white" stroke-width="0.5" stroke-miterlimit="10"/>
</g>
<path d="M649.868 429.744L701.206 426.438H701.257M775.684 421.639L775.479 421.651L702.393 426.359L700.615 412.686M700.567 412.337L700.612 412.689M947.891 415.156L954.949 414.711M816.989 324.93L822.894 324.389M822.891 324.389L823.217 324.359M753.652 319.413L753.751 319.849L756.177 330.523M642.436 340.977L689.664 336.636H689.709M690.709 336.54L754.953 330.634M754.956 330.634L755.137 330.619M689.281 325.547L689.339 325.977L690.712 336.54M907.782 320.171L911.129 319.867M916.552 591.655L918.14 596.402L926.518 621.45L963.195 621.267M909.445 614.579L918.112 614.519H918.591M815.844 593.012L815.865 593.099M815.865 593.102L820.888 615.196M672.829 616.228L725.546 615.861M725.549 615.861H725.612M727.034 615.849L819.119 615.208M819.122 615.208H819.381M724.226 594.248L724.238 594.335M724.238 594.332L727.037 615.849M963.195 621.267L1050.18 620.834M963.195 621.267L962.707 619.955M962.71 619.958L962.695 619.919M962.37 619.05L962.12 618.379L962.105 618.337M960.9 615.096L960.719 614.612L960.701 614.564M810.705 305.249L816.426 304.689L816.742 304.659M749.362 300.532L749.464 300.98L751.745 311.019M650.992 320.881L687.184 317.34H687.227M688.2 317.238L750.558 311.134M750.558 311.137L750.733 311.118M686.85 306.85L686.907 307.292M686.907 307.295L688.2 317.241M898.96 299.996L901.819 299.72M861.807 427.999L867.754 445.779L868.574 448.234M855.055 444.19L862.081 443.793L862.47 443.772M779.477 433.02L779.553 433.348L782.942 448.258M662.266 455.063L704.577 452.677H704.628M781.71 448.327L781.496 448.339L705.806 452.608L703.899 437.951L703.857 437.629M958.983 443.261L967.91 442.77M830.757 368.065L837.063 367.566M837.063 367.569L837.413 367.542M763.028 360.658L763.118 361.061M763.121 361.061L765.878 373.191M645.681 382.686L695.078 378.784M695.081 378.784H695.129M696.193 378.694L764.573 373.294L764.766 373.279M694.584 366.326L694.635 366.723L696.193 378.697M926.87 364.524L931.591 364.157M881.251 486.131L885.855 499.889L889.084 509.543M874.331 504.579L881.932 504.284L882.354 504.269M792.435 490.033L792.492 490.286M792.495 490.286L796.43 507.593M663.387 512.744L712.055 510.86H712.109M794.869 507.656L713.374 510.809L711.169 493.854L711.136 493.604M794.869 507.653L795.098 507.644M903.835 553.643L906.592 561.886L913.003 581.047M896.776 574.898L905.058 574.744L905.516 574.735M807.43 555.993L807.466 556.146L812.081 576.453M720.698 578.126H720.759M810.388 576.483L722.126 578.102L719.551 558.285M810.388 576.48L810.638 576.474M719.529 558.135L719.548 558.285M987.749 579.814L1030.9 579.101M948.008 580.469L947.27 578.484M947.267 578.487L947.225 578.373M541.539 168.08L540.499 168.51M547.299 112.087L547.103 112.177M547.923 111.13L547.185 111.47M550.685 108.254L547.38 109.785M547.408 144.181L543.135 146.031M639.932 150.435L639.251 150.706M638.278 128.94L638.119 129.006M543.054 148.711L542.81 148.817M545.256 129.701L545.039 129.797M543.825 147.598L542.906 147.995M640.008 151.413L639.827 151.485M549.086 125.54L545.341 127.222M543.843 186.214L538.161 188.471M545.657 164.343L540.749 166.383M545.949 128.672L545.127 129.039M298.695 259.545L298.147 260.652L293.221 270.586L250.19 288.423M254.058 278.486L253.462 279.569L248.096 289.289L209.409 305.324M207.939 305.935L209.412 305.324M348.282 238.507L347.797 239.635L343.444 249.768L295.318 269.716M293.965 270.276L295.318 269.713M637.305 135.769L637.179 134.063L637.01 131.777L541.246 171.184M535.119 170.318L536.459 159.767L536.607 158.597M403.286 216.142L399.683 226.455L345.535 248.901L344.275 249.425M403.286 216.145L403.687 214.999M400.617 226.07L401.75 225.601L462.487 200.426M248.765 289.013L250.187 288.423M538.915 172.147L541.246 171.187M158.75 541.712L147.16 565.078L95.3402 570.238L93.668 570.403M158.75 541.709L158.955 541.294M104.927 548.652L92.8786 570.481L48.3351 574.916L46.675 575.081M104.93 548.652L105.144 548.264M221.719 533.165L221.526 533.61L210.729 558.749L149.744 564.82M148.076 564.988L149.744 564.823M667.08 538.484L666.201 526.57M489.267 531.017L493.395 498.538M493.398 498.538L493.47 497.966M286.198 551.236L295.701 524.043L295.869 523.562M211.81 558.64L213.452 558.478M213.449 558.478L286.198 551.233M287.488 551.107L289.061 550.951L376.355 542.259M659.699 525.821L666.101 525.244M632.226 524.768L632.199 524.013M655.972 483.249L662.468 476.077M219.553 419.118L227.501 403.092L227.923 402.241M177.79 416.654L177.341 417.47L168.888 432.785L126.411 444.245L124.811 444.675M285.002 385.83L284.62 386.72L277.407 403.51L221.936 418.474L220.397 418.89M650.727 317.286L650.263 310.992M513.574 339.801L516.042 320.387L516.171 319.365M350.259 367.906L344.104 385.517L279.85 402.852L278.377 403.249M350.256 367.906L350.581 366.973M345.227 385.213L346.592 384.846L421.08 364.753M169.632 432.584L171.21 432.157L219.553 419.115M518.316 344.632L542.765 338.17M272.041 313.288L277.766 301.747L278.287 300.694M231.318 319.687L225.127 330.902L185.166 345.902L183.65 346.471M231.318 319.683L231.884 318.661M324.641 293.543L329.736 281.681M329.739 281.678L330.203 280.598M272.816 312.999L274.229 312.469M274.229 312.466L324.641 293.54M640.887 184.22L640.67 181.296L640.529 179.4M529.216 216.744L530.834 204.024L530.982 202.872M384.032 271.248L388.286 259.07M388.289 259.07L388.674 257.962" stroke="white" stroke-width="0.5" stroke-miterlimit="10"/>
<mask id="mask4_4357_12753" style="mask-type:luminance" maskUnits="userSpaceOnUse" x="1" y="31" width="1200" height="599">
<path d="M1.6781 31.5596H1201V629.774H1.6781V31.5596Z" fill="white"/>
</mask>
<g mask="url(#mask4_4357_12753)">
<path d="M325.513 293.215L326.839 292.718M326.839 292.715L384.033 271.244M385.018 270.874L386.22 270.423L450.971 246.115M225.821 330.64L227.294 330.086L272.04 313.287M533.285 219.274L536.072 218.239M536.069 218.239L640.527 179.4M196.353 465.89L196.019 466.564L186.49 485.775L136.348 495.601L134.718 495.92M144.335 477.262L143.982 477.899L133.953 496.07L90.3373 504.617L88.7014 504.936M256.238 452.8L255.931 453.513L247.179 473.886L188.975 485.291M187.369 485.604L188.975 485.288M657.742 412.174L657.197 404.795M657.194 404.795L657.016 402.406L655.977 402.601M502.898 423.778L506.044 399.021M506.044 399.024L506.152 398.164M325.914 437.565L325.649 438.323L318.078 459.993L249.754 473.381M248.203 473.685L249.757 473.381M319.28 459.759L320.744 459.473M320.744 459.47L401.185 443.709M633.333 406.879L633.529 406.494L634.294 404.996M653.253 367.848L654.311 365.775M650.997 320.971L650.991 320.88L650.725 317.285M212.396 433.546L203.707 451.064L154.458 462.644M212.393 433.546L212.776 432.776M152.099 463.2L161.294 446.543M161.294 446.539L161.701 445.805M107.414 473.706L109.031 473.327L152.096 463.2M262.965 437.129L270.895 418.669L271.244 417.857M204.569 450.86L206.142 450.49L262.965 437.126M654 361.581L653.91 360.369L653.371 353.061L653.09 353.125M508.541 379.382L511.319 357.529L511.44 356.575M338.827 400.616L338.528 401.47L331.716 420.962L265.475 436.539L263.963 436.894M332.879 420.688L334.292 420.357M334.289 420.357L411.651 402.165M152.852 463.023L154.458 462.647M640.844 344.689L642.431 340.977M316.11 224.427L311.838 233.043L270.44 251.563L269.066 252.177M316.113 224.427L316.68 223.287M273.724 242.863L273.103 243.985L268.421 252.466L230.985 269.213M229.554 269.854L230.982 269.217M364.101 201.677L363.604 202.832L359.853 211.563L313.851 232.144L312.552 232.724M634.315 95.3652L634.255 94.5349L634.068 92.0078M540.124 130.916L541.251 122.053L541.398 120.886M413.23 187.682L416.312 178.864L416.718 177.7M360.642 211.208L361.841 210.672M361.844 210.672L413.23 187.685M414.112 187.288L415.182 186.81L472.361 161.229M543.679 132.216L545.689 131.322M545.692 131.322L634.071 92.0078M254.924 347.797L254.442 348.768L247.733 362.297L201.207 377.562L199.679 378.065M206.681 364.313L206.163 365.252L198.962 378.299L157.724 391.831L156.166 392.343M309.338 329.166L308.907 330.17L302.881 344.202L250.017 361.548M248.54 362.03L250.017 361.545M645.26 243.392L644.914 238.723M644.917 238.723L644.823 237.45M522.159 272.252L524.138 256.683L524.28 255.573M371.193 307.986L370.828 309.027L365.746 323.573L305.195 343.441M303.8 343.901L305.195 343.444M366.797 323.23L368.078 322.812M368.078 322.809L437.377 300.071M526.543 275.742L530.013 274.617M530.013 274.62L644.823 237.453M510.852 112.044L533.098 101.448L534.337 103.506M461.127 629.774L461.286 628.667M461.988 623.763L462.223 622.115L463.148 615.646M463.724 611.609L465.784 597.196M471.789 555.216L471.96 554.022L472.632 549.32M473.262 544.93L475.048 532.433M480.203 496.38L480.423 494.84M480.423 494.837L481.288 488.793M481.562 486.892L483.126 475.953M487.735 443.718L487.85 442.923L488.368 439.304M488.467 438.6L490.233 426.263M494.276 397.986L494.414 397.015L494.875 393.802M494.963 393.176L496.532 382.207M500.157 356.855L500.262 356.127L500.672 353.254M501.058 350.565L502.157 342.881M505.39 320.261L505.501 319.478L506.047 315.676M506.219 314.475L507.207 307.556M510.126 287.15L510.228 286.443M510.225 286.446L510.623 283.663M510.72 282.995L511.768 275.664M514.416 257.156L514.507 256.515L514.868 253.988M515.094 252.405L515.908 246.713M518.333 229.761L518.402 229.271L518.935 225.54M518.938 225.519L519.683 220.32M521.9 204.815L521.963 204.367M521.966 204.364L522.219 202.592M522.457 200.928L523.138 196.163M525.175 181.924L525.235 181.512M525.232 181.512L525.464 179.881M525.578 179.102L526.314 173.967M528.088 161.539L528.242 160.468M528.242 160.465L528.558 158.25M528.661 157.55L529.239 153.5M530.974 141.373L531.026 141.021M531.023 141.021L531.221 139.628M531.224 139.625L531.947 134.574M533.553 123.329L533.601 123.001L533.785 121.71M533.785 121.707L534.457 117.017M275.989 225.94L259.977 233.527M266.508 324.442L260.317 336.921L214.689 353.025L213.189 353.555M266.508 324.439L267.011 323.422M219.696 340.736L219.154 341.72L212.484 353.805L171.884 368.134M170.344 368.675L171.881 368.134M314.173 317.914L319.708 305.029L320.157 303.982M261.11 336.641L262.553 336.133M262.553 336.13L314.17 317.911M642.959 212.255L642.684 208.539L642.564 206.918L533.162 245.098L530.071 246.175M525.853 243.203L527.639 229.159M527.636 229.159L527.781 228.022M380.276 281.984L379.9 283.064L375.257 296.353L316.427 317.117M315.068 317.598L316.427 317.12M376.278 295.995L377.516 295.558M377.516 295.555L444.469 271.924M302.818 251.229L307.401 241.987M307.404 241.987L307.961 240.862M263.565 261.259L258.558 270.333L220.501 286.759L219.051 287.384M263.568 261.259L264.176 260.155M356.445 219.499L355.954 220.642L351.917 230.038L304.873 250.342L303.547 250.913M635.746 114.691L635.656 113.458M635.653 113.458L635.475 111.036M537.72 149.842L538.946 140.188M538.946 140.185L539.094 139.015M410.425 195.711L410.021 196.87L406.692 206.394L353.957 229.156M352.727 229.689L353.957 229.159M407.596 206.003L408.695 205.528" stroke="white" stroke-width="0.5" stroke-miterlimit="10"/>
<path d="M408.698 205.528L467.603 180.104M259.217 270.047L260.615 269.445L302.82 251.229M541.389 151.388L543.549 150.461L635.474 111.039M476.714 629.774L476.873 628.513L476.879 628.465M657.811 413.128L657.741 412.174M167.713 523.633L178.201 502.487M178.201 502.484L178.478 501.928M125.544 511.302L125.254 511.828L114.279 531.711L70.163 538.381M68.5151 538.627L70.163 538.378M229.845 514.241L239.543 491.663L239.799 491.07M168.611 523.498L170.25 523.251M170.25 523.248L229.845 514.238M661.619 464.626L661.218 459.193L658.66 459.56M496.523 473.925L500.114 445.685L500.207 444.948M302.986 503.182L311.446 478.973L311.669 478.338M230.897 514.082L232.493 513.841L302.986 503.185M304.23 502.995L305.746 502.767L389.491 490.107M115.056 531.594L116.707 531.344L167.71 523.633M649.866 429.743L658.097 416.984M667.078 538.486L667.533 544.635L667.563 545.026L648.323 556.871M137.537 584.47L137.417 584.714L124.555 610.646L71.9948 612.719L70.3046 612.785M69.5093 612.818L82.7865 588.763L82.91 588.537M22.9652 614.65L24.6342 614.584M24.6311 614.587L69.5063 612.818M201.73 579.693L201.616 579.957L189.535 608.086L127.189 610.544L125.489 610.61M673.013 618.742L672.826 616.227L671.85 603.023L645.178 603.781M480.929 596.6L485.719 558.904M485.722 558.904L485.767 558.555M267.402 605.017L278.14 574.289M278.14 574.286L278.239 574.001M190.643 608.041L192.327 607.975L267.402 605.014M268.743 604.963L270.373 604.9L361.476 601.308M634.323 584.253L634.163 579.714L633.675 565.89M241.929 373.997L241.474 374.915L234.181 389.617L186.748 403.874M192.743 389.56L192.258 390.441L184.464 404.56L142.599 417.144M141.02 417.616L142.599 417.141M297.247 357.315L290.664 372.64L236.515 388.916L235.009 389.37M297.247 357.318L297.656 356.365M647.832 278.175L647.727 276.731M518.085 304.289L520.29 286.948L520.426 285.874M361.328 336.217L360.982 337.21L355.399 353.185L293.041 371.927L291.607 372.357M356.484 352.86L357.803 352.463M357.806 352.463L429.612 330.88M185.196 404.34L186.751 403.874M522.643 308.392L526.611 307.219L647.341 271.524M541.979 210.031L535.339 212.534M641.825 175.019L641.036 175.317M641.906 176.096L641.695 176.175M540.105 236.06L532.257 238.846M533.516 241.051L531.932 241.611M532.218 242.625L531.796 242.772M646.383 234.207L646.269 234.559L644.916 238.726M528.865 271.894L528.364 272.056M538.276 264.628L528.871 267.733M530.389 270.164L528.512 270.778M527.006 302.288L524.743 302.968M648.983 267.977L648.586 269.075M648.586 269.078L647.402 272.357M525.18 304.201L524.574 304.382M536.61 296.127L525.138 299.601M651.469 300.236L650.496 302.646M650.496 302.649L650.017 303.84M535.306 331.031L520.995 334.926M651.903 305.889L650.661 308.907M650.664 308.904L650.191 310.056M521.125 340.047L520.375 340.248M522.851 343.311L542.663 338.073M523.357 337.92L520.555 338.675M534.779 369.939L516.38 374.319M646.079 347.992L646.248 347.619M646.245 347.619L646.344 347.396M646.344 347.399L646.877 347.273M653.09 353.124L655.066 349.036L655.205 348.747L655.196 348.609L655.132 347.797L654.539 347.935M646.739 353.747L647.293 353.621M655.06 346.849V346.828M655.057 346.828L654.985 345.904M658.883 396.506L658.067 396.666M649.682 402.069L650.444 401.924M658.717 394.34L655.711 394.927M657.38 392.036L655.711 394.93M658.401 390.264L658.347 389.569M658.35 389.569L658.32 389.196L655.271 389.803M649.245 394.824L649.971 394.683M663.005 450.017L658.537 450.688M663.294 453.775L662.26 455.062M662.263 455.062L658.66 459.557M663.197 452.517L661.968 452.701M662.547 444.078L638.182 447.854M652.439 449.163L653.514 449M667.563 509.19L663.384 512.743L660.194 515.453L667.985 514.686M667.451 507.755L634.281 511.203M642.024 524.422L643.669 522.938M650.966 516.362L654.605 513.083L655.753 512.048M655.75 512.048L657.618 511.858M668.322 519.079L662.408 523.7M662.411 523.7L659.7 525.821M668.211 517.607L666.008 517.818M656.187 521.765L658.25 521.573M673.209 582.52L634.32 584.253M657.295 585.658L662.417 585.439M673.974 592.448L673.914 591.669M673.914 591.666L673.842 590.721L652.153 591.546M656.85 593.715L662.944 593.495M674.242 595.92L674.173 595.005M674.107 594.181L667.225 594.425M632.835 604.133L635.001 603.492L656.557 597.114L663.167 596.892M282.981 291.226L288.287 280.531M288.284 280.531L288.82 279.448M243.312 297.953L242.728 299.009L236.97 309.439L197.651 325.005M196.157 325.594L197.651 325.002M339.552 258.825L339.076 259.932L334.373 270.883L285.123 290.378L283.74 290.925M639.008 158.843L638.839 156.581M638.842 156.581L638.686 154.469L538.758 193.696M532.29 192.54L533.76 180.976L533.908 179.812M396.454 235.693L396.059 236.822L392.149 248.013L336.515 270.035L335.223 270.546M393.107 247.634L394.273 247.174L456.956 222.36M237.651 309.168L239.1 308.594M239.1 308.597L282.978 291.226M536.219 194.694L538.758 193.699M320.33 215.922L324.319 207.877L324.892 206.725M631.786 61.1592L536.421 106.057M536.418 106.057L535.993 106.256M479.51 132.847L257.819 237.216M257.822 237.219L234.669 248.118M282.74 226.521L282.114 227.658L277.73 235.6L240.902 252.61L239.495 253.26M367.296 194.228L370.788 186.099L371.288 184.938M321.029 215.6L322.301 215.013L367.299 194.228M633.001 77.5792L632.964 77.0918M632.964 77.0948L632.772 74.4865M542.353 113.367L543.389 105.212M543.392 105.209L543.54 104.047M419.342 170.188L422.201 162.005L422.611 160.838M368.071 193.87L369.243 193.329" stroke="white" stroke-width="0.5" stroke-miterlimit="10"/>
<path d="M369.246 193.329L419.348 170.188M420.204 169.791L421.246 169.31L476.793 143.654M278.369 235.306L279.719 234.683M279.716 234.683L320.331 215.922M545.803 114.454L547.686 113.59M547.686 113.587L632.775 74.4838M827.116 324.169L881.063 319.211L902.767 317.216M980.52 617.752L1006.35 617.599M887.398 281.326L890.595 280.998M886.712 281.292L887.579 281.202M868.593 280.465L885.558 278.711L886.413 278.624M933.382 389.241L937.151 388.973M809.326 270.995H809.335M898.151 536.486L931.27 535.514L995.939 533.619M828.077 327.039L875.266 322.743M904.062 320.125L905.165 320.026M1019.68 575.123L1014.87 575.207M1004.48 576.588L1010.35 576.486M989.314 536.098L984.837 536.227M979.33 537.722L997.307 537.214M914.128 629.251L909.443 614.579M829.692 629.485L826.354 615.156M812.061 553.811L811.811 552.734M811.811 552.737L808.973 540.55M808.97 540.55L804.605 521.808M789.689 457.779L787.411 448.005M777.354 404.837L775.363 396.296L772.338 383.317M771.772 380.884L769.904 372.872M761.61 337.264L759.959 330.173M752.722 299.108L752.593 298.552L751.119 292.234L748.914 282.773M748.453 280.787L747.061 274.809M975.829 501.356L971.798 501.513M971.801 501.51L919.364 503.528L888.89 504.702M924.871 616.348L961.277 616.113M961.28 616.113L1008.1 615.812M857.807 415.896L903.8 412.926L944.02 410.33M841.484 367.114L893.346 363.016L922.13 360.742M1006.68 537.132L1002.05 537.262M991.718 538.892L996.262 538.766L997.876 538.721L1004.16 538.546M964.51 504.647L975.672 504.226L979.854 504.07M910.301 572.803L944.909 572.151L1008.84 570.944M849.377 390.703L898.983 387.132L932.737 384.701M932.59 388.348L934.295 388.227M820.557 304.566L874.796 299.262M874.799 299.262L893.915 297.394M897.907 297.135L894.623 297.457M915.944 338.401L912.441 338.702M834.079 344.978L887.293 340.42L912.157 338.29M868.888 445.207L868.521 445.622M868.518 445.622L868.409 445.745M955.276 442.009L957.777 441.87M935.961 385.282L932.207 385.553M868.581 280.474L815.357 285.977M866.827 442.86L907.111 440.58M907.111 440.583L956.017 437.815M886.919 502.915L918.671 501.675L982.15 499.196M923.491 612.22L959.729 611.943M959.726 611.946L1010.98 611.555M991.197 573.983L986.633 574.064M977.046 575.433L1009.92 574.849M876.507 471.792L907.65 470.294L968.749 467.355M957.843 439.006L953.809 439.232M775.366 233.395L740.313 237.607L660.291 247.225M803.713 254.22L803.785 254.211M984.56 541.585L989.046 541.462M943.984 415.402L947.892 415.156M904.378 320.48L907.783 320.17M954.936 443.483L958.985 443.26M923.232 364.807L926.872 364.524M953.107 507.169L964.022 506.762M980.818 506.14L996.915 505.541M636.794 579.666H636.903M636.903 579.663L720.7 578.125M983.207 579.888L987.75 579.813M638.21 128.046L637.617 128.293L541.543 168.079M633.905 72.1583L633.794 72.2094M633.797 72.2094L547.3 112.086M633.851 71.4633L633.435 71.6558M633.438 71.6558L547.927 111.129M633.724 69.8057L630.079 71.4934M630.079 71.4964L550.687 108.256M636.484 105.621L632.124 107.507L547.409 144.18M639.253 150.705L539.072 190.32M539.072 190.317L537.891 190.784M638.12 129.003L540.672 169.285L540.395 169.4M636.695 108.389L636.556 108.449L543.052 148.711M635.243 89.5289L635.119 89.5831L545.255 129.701M636.635 107.571L636.11 107.796L543.827 147.595M639.828 151.485L538.093 191.632L537.78 191.755M635.047 86.9808L631.073 88.7648L549.087 125.54M639.756 148.103L634.39 150.236M634.39 150.233L543.842 186.214M638.048 125.916L633.23 127.92L545.658 164.343M635.185 88.7768L634.721 88.9844L545.951 128.669M666.202 526.573L666.187 526.371L666.102 525.243M652.247 526.492L659.7 525.821M632.35 528.288L632.332 527.74M646.372 493.847L655.973 483.248M650.261 310.992L650.228 310.549M644.465 311.293L650.174 309.785M640.25 302.454L643.401 293.997M640.25 302.454L651.409 299.415M640.25 302.454L535.309 331.031M644.163 291.945L646.468 285.754M646.471 285.754L648.077 281.44M648.083 327.782L650.999 320.971M371.373 562.033L376.356 542.259M481.197 126.169L510.165 112.372L510.852 112.044M534.339 103.506L534.659 104.036M534.659 104.033L535.999 106.256M461.289 628.667L461.295 628.619L461.84 624.807M465.79 597.196L471.111 559.988M475.051 532.43L479.646 500.309M483.128 475.95L487.129 447.975M490.236 426.26L493.748 401.702M496.535 382.207L499.638 360.501M502.16 342.881L504.92 323.579M507.209 307.559L509.677 290.297M511.771 275.661L513.988 260.146M515.91 246.713L517.914 232.709M519.685 220.321L521.502 207.628M523.141 196.163L524.792 184.613M526.316 173.967L527.823 163.425M529.242 153.503L530.622 143.849M531.947 134.574L533.216 125.708M534.46 117.017L535.629 108.852M658.1 416.985L657.998 415.61M662.056 470.499L661.824 467.343M651.59 460.571L658.661 459.56M643.892 439.009L649.87 429.743M638.234 603.98L645.182 603.781M647.731 276.732L647.697 276.271M639.247 265.044L640.385 261.617M639.247 265.044L648.544 262.228M639.247 265.044L536.611 296.127M641.024 259.698L644.543 249.117L645.477 246.304M641.63 172.453L635.595 174.728M635.598 174.728L541.983 210.029M641.036 175.317L536.406 214.55L535.044 215.062M641.699 176.178L535.282 215.985M535.285 215.982L534.924 216.118M643.699 199.307L636.836 201.743M636.833 201.74L540.106 236.058M643.916 202.144L642.988 202.471L533.52 241.052M644.01 203.335L643.763 203.422M643.76 203.422L532.221 242.625M646.336 233.543L646.037 233.639L528.868 271.894M645.989 229.063L638.069 231.677M638.072 231.68L538.28 264.629M646.233 232.219L645.125 232.583L530.396 270.164M648.815 265.754L647.462 266.16L527.009 302.291M648.93 267.234L648.568 267.342L525.184 304.202M651.843 305.05L651.388 305.173L521.128 340.047M644.097 311.256L644.522 311.145M651.713 303.383L650.02 303.841M650.02 303.838L523.364 337.92M654.642 341.407L640.846 344.692M640.846 344.689L534.779 369.939M644.886 347.743L646.351 347.4M654.542 347.935L516.654 380.041" stroke="white" stroke-width="0.5" stroke-miterlimit="10"/>
<path d="M651.52 451.744L650.462 451.903M645.627 458.57L646.645 458.423M651.785 457.674L652.912 457.508M652.915 457.508L654.063 457.34M508.405 471.076L545.308 465.462L635.697 451.711M634.184 511.212L632.985 511.335L631.756 511.461M638.583 527.523L638.812 527.316M638.815 527.316L642.027 524.422M631.865 514.473L639.987 513.649M652.764 516.185L650.968 516.362M654.186 521.952L652.243 522.135L645.362 522.779M494.661 592.587L549.363 590.255M549.363 590.258L634.407 586.636M644.847 591.826L640.394 591.994L634.606 592.214M636.251 600.291L637.565 599.873L637.673 599.84M637.733 594.407L644.603 594.157M658.985 594.714L653.071 594.921M650.526 597.316L644.994 597.503L637.592 597.749M886.53 281.416L887.398 281.325M909.807 342.252L911.051 342.147M864.097 283.612L880.89 281.888M884.885 281.479L884.982 281.47L885.843 281.383M896.692 320.796L897.762 320.7M897.762 320.697L901.112 320.393L901.871 320.324L902.965 320.224M1004.37 575.394L971.827 575.968M989.581 576.847L957.902 577.394L953.618 577.469M989.584 576.847L999.798 576.669M999.795 576.669L1004.48 576.588M979.109 536.392L932.098 537.74L900.298 538.652M899.322 539.987L932.583 539.046M932.586 539.046L969.315 538.005L974.936 537.845L979.332 537.722M902.218 591.937L902.187 591.847L901.082 588.378M826.353 615.156L821.198 593.026M820.385 589.548L817.312 576.356M803.881 518.697L801.251 507.406M790.339 460.58L790.269 460.285M790.272 460.285L789.986 459.055M783.934 433.08L783.858 432.752M783.855 432.752L783.675 431.976M783.675 431.97L783.313 430.411M783.31 430.411L781.183 421.284M781.186 421.284L777.947 407.382L777.863 407.024M767.077 360.733L766.984 360.33M766.984 360.333L766.764 359.388M762.13 339.496L762.034 339.075M762.034 339.078L761.612 337.264M759.958 330.173L757.47 319.493L757.367 319.057L756.969 317.345M756.969 317.348L755.412 310.661L753.071 300.615M747.057 274.806L744.979 265.88L744.87 265.414L744.533 263.967L743.213 258.302M995.896 537.436L977.964 537.942M968.085 539.551L985.683 539.061M821.464 307.273L869.713 302.595L888.612 300.763L889.561 300.67L892.809 300.354M892.806 300.357L893.197 300.318L894.164 300.224M888.458 507.514L920.396 506.311L956.387 504.954L960.3 504.807L964.509 504.647M928.254 388.654L930.893 388.468M930.896 388.468L932.589 388.347M956.745 472.37L952.66 472.562L949.677 472.701M893.664 297.55L874.56 299.418L821.617 304.593M911.208 338.807L886.395 340.928M886.391 340.928L835.298 345.297M952.796 442.144L947.523 442.436L943.571 442.656M930.54 385.67L896.933 388.083L850.799 391.395M889.582 278.302L886.401 278.63L885.545 278.717M977.283 574.235L945.9 574.804L912.657 575.406M972.602 575.514L963.494 575.676L946.336 575.98L911.572 576.597M842.571 370.363L885.581 367.006L913.883 364.797L915.287 364.689M915.29 364.689L918.863 364.409M920.701 364.265L922.144 364.154L923.596 364.039M951.386 439.367L902.916 442.093M902.913 442.093L868.49 444.027M976.943 541.792L978.501 541.75M956.592 474.13L949.156 474.476L945.131 474.662M956.592 474.133L959.686 473.988L962.813 473.844M902.181 320.682L903.278 320.582M952.437 443.621L949.961 443.757L947.508 443.892M889.085 509.545L921.159 508.354L945.164 507.463M945.161 507.463L948.988 507.322M948.991 507.322L953.106 507.168M964.021 506.762L968.11 506.612M967.546 580.147L973.026 580.057M648.369 526.844L650.279 526.672M643.687 496.81L643.919 496.555M643.617 311.518L644.039 311.407M644.386 404.791L647.103 404.277M647.1 404.28L647.838 404.142M647.838 404.139L648.585 403.997M640.553 392.737L641.511 390.856M641.511 390.859L645.684 382.685M645.22 354.927L645.763 354.803M647.136 329.996L647.329 329.548L648.085 327.785M354.317 629.717L354.329 629.672L355.806 623.817L361.476 601.308L369.999 567.481L370.077 567.166M370.08 567.166L371.373 562.03M376.356 542.259L383.809 512.677M385.084 507.614L389.494 490.105M649.357 460.89L650.462 460.73M642.147 441.708L642.361 441.377M642.364 441.377L643.892 439.009M486.836 608.282L548.465 606.531M548.465 606.528L632.841 604.13M636.209 564.332L636.311 564.268M647.588 274.839L647.404 272.357M647.404 272.354L647.344 271.524M542.663 338.073L636.188 313.347M538.201 372.794L638.945 349.138M638.942 349.138L644.883 347.743M646.082 347.992L638.695 349.725M638.691 349.725L538.653 373.173M645.443 402.875L648.185 402.355M648.408 396.353L637.634 398.453M650.459 451.9L633.977 454.376M507.549 478.642L555.919 471.609M502.006 527.65L553.108 522.463L631.862 514.473M552.912 526.01L497.972 531.416M633.549 594.56L637.733 594.41M653.071 594.924L641.18 595.345M885.662 281.503L886.527 281.413M908.58 342.357L909.807 342.255M880.887 281.891L881.734 281.804L884.885 281.482M885.846 281.383L886.711 281.292M835.099 348.031L880.622 344.175L905.125 342.099M905.122 342.099L906.342 341.996M906.342 341.993L909.801 341.702M925.669 389.788L928.296 389.602L929.98 389.482L931.676 389.361M821.198 593.029L821.177 592.942M821.177 592.939L820.388 589.545M817.312 576.353L812.576 556.019M801.248 507.406L797.211 490.08M777.863 407.027L777.354 404.837M743.213 258.299L741.249 249.866M977.964 537.945L973.581 538.068M850.537 394.172L889.823 391.383L922.918 389.033L924.56 388.916L928.257 388.654M859.045 419.605L892.821 417.463M892.824 417.46L932.104 414.969L934.056 414.846L937.88 414.602M972.559 541.913L976.94 541.792M934.207 416.019L937.913 415.784M937.91 415.787L939.919 415.661L941.944 415.535M892.363 300.636L892.754 300.597L893.722 300.504M917.061 365.288L918.89 365.146M918.893 365.146L920.33 365.035M920.33 365.032L921.776 364.921" stroke="white" stroke-width="0.5" stroke-miterlimit="10"/>
</g>
<path d="M968.114 506.612L972.263 506.458M972.263 506.455L976.469 506.299M967.548 580.147L963.176 580.219L953.641 580.375M648.37 526.84L646.517 527.009L639.95 527.601L638.338 527.746L634.93 528.053L634.828 528.062L633.605 528.173L632.351 528.287L552.39 535.499L494.909 540.682M634.138 507.355L643.689 496.813M542.767 338.17L636.135 313.494M643.692 404.924L644.384 404.791M383.811 512.674L383.944 512.15M383.944 512.153L385.088 507.613M389.499 490.104L396.067 464.042M648.274 461.046L649.358 460.89M633.68 565.89L634.964 565.102M634.961 565.099L636.211 564.328M636.193 313.347L641.293 311.999M518.34 383.233L543.722 377.406M643.631 354.46L643.113 354.581L635.907 356.235L543.722 377.402M643.631 354.463L645.65 354M645.445 402.878L644.746 403.01L634.298 404.999L547.253 421.56L513.275 428.025M637.636 398.455L541.149 417.276L510.651 423.224M633.978 454.376L548.461 467.219M548.464 467.219L504.731 473.787M555.921 471.612L629.974 460.844L645.632 458.567M631.758 511.464L553.267 519.623M553.267 519.62L498.69 525.291M650.97 516.362L631.999 518.23M631.999 518.227L552.917 526.01M645.364 522.779L643.673 522.938L632.201 524.012L552.613 531.467L501.028 536.299M634.608 592.214L549.079 595.469L490.207 597.71M493.867 599.614L548.958 597.62L633.551 594.56M641.182 595.342L634.512 595.577M637.594 597.752H637.485L636.163 597.797L634.807 597.842L548.787 600.721L493.533 602.572M908.582 342.357L905.133 342.649L903.916 342.751L879.476 344.818M971.829 575.968L967.43 576.046M967.427 576.046L958.407 576.206L946.498 576.416M946.501 576.416L913.195 577.003M912.107 578.188L944.841 577.62M944.838 577.623L953.62 577.469M812.578 556.019L812.542 555.866L812.301 554.828M797.216 490.08L797.155 489.825L796.529 487.132M753.073 300.615L752.967 300.167M752.97 300.167L752.723 299.108M741.251 249.866L741.139 249.391L740.983 248.717M973.583 538.068L967.976 538.227L932.654 539.226M899.815 541.455L933.136 540.526L958.281 539.825L963.785 539.671L968.087 539.551M877.937 476.064L908.6 474.626M908.603 474.626L949.682 472.701M943.575 442.655L941.198 442.788L897.649 445.201M945.133 474.665L942.196 474.8L909.236 476.329L878.452 477.755M828.16 327.408L874.526 323.194M901.093 320.781L900.333 320.85L896.989 321.154L895.92 321.25L874.529 323.194M901.09 320.781L902.18 320.681M821.501 307.502L869.293 302.872L888.174 301.042L889.12 300.952M889.12 300.949L892.365 300.636M942.292 444.178L947.507 443.892M913.502 365.564L917.063 365.288M634.045 507.457L634.141 507.352M636.139 313.494L641.236 312.147L641.64 312.041M643.692 404.921L636.5 406.28L633.337 406.879L549.028 422.806L508.06 430.543M513.489 385.089L544.439 378.004M642.694 355.504L643.212 355.387L645.225 354.927M396.064 464.045L396.236 463.362L397.254 459.322M648.271 461.046L644.318 461.612L643.321 461.753L630.071 463.648M641.293 311.996L641.697 311.891L643.258 311.479L643.676 311.367M634.512 595.58L548.904 598.604L489.857 600.688M863.924 283.735L880.708 282.014M885.664 281.506L884.803 281.593L884.706 281.602L881.558 281.924L880.711 282.011M850.798 395.08L887.439 392.49L920.362 390.161L921.995 390.047L925.671 389.788M932.654 539.223L900.797 540.123M868.16 446.837L897.649 445.204M949.761 542.529L945.609 542.644L940.298 542.788M949.761 542.532L966.741 542.072M966.738 542.069L972.561 541.91M859.381 420.742L889.478 418.844L928.476 416.383L930.413 416.259L934.206 416.019M942.292 444.175L938.381 444.391L936.028 444.521M913.505 365.564L912.104 365.673L883.905 367.869L842.766 371.07M913.005 581.046L948.01 580.469L953.644 580.375M631.71 510.035L632.894 508.73M632.891 508.73L634.042 507.457M544.439 378.001L635.515 357.15L642.694 355.507M835.237 348.561L879.479 344.818M901.084 588.381L896.778 574.897L890.15 554.133L890.099 553.976M879.015 519.241L885.113 538.348L889.081 550.781L890.102 553.976M641.637 312.041L643.197 311.629L643.616 311.518M397.254 459.319L401.189 443.708L407.012 420.598M501.917 481.988L555.77 474.283M879.015 519.244L878.949 519.033M878.946 519.03L878.003 516.076L874.333 504.578L868.705 486.946L868.624 486.687M900.568 543.868L934.043 542.957M934.043 542.96L940.295 542.788M868.576 448.233L898.17 446.605L936.028 444.524M555.773 474.28L630.074 463.648M407.012 420.601L407.214 419.794L408.127 416.172L411.655 402.165L416.849 381.554L417.075 380.652M868.621 486.684L867.747 483.946L864.343 473.278L859.134 456.957L859.037 456.66L858.224 454.115M858.224 454.111L855.058 444.187M417.897 377.387L421.082 364.749M417.078 380.652L417.9 377.387M421.082 364.752L425.74 346.271L425.987 345.297L426.731 342.339L429.617 330.88M855.058 444.19L850.222 429.045L850.117 428.711L849.36 426.338L846.405 417.084L841.907 402.995L841.792 402.634L841.084 400.417L838.322 391.768M838.325 391.768L834.131 378.633L834.007 378.248M830.757 368.064L833.345 376.169L834.007 378.245M819.275 332.086L816.991 324.929" stroke="white" stroke-width="0.5" stroke-miterlimit="10"/>
<path d="M429.615 330.881L433.809 314.235M826.088 353.441L823.66 345.833L819.993 334.343L819.858 333.919L819.273 332.087M830.758 368.065L826.841 355.794M816.99 324.93L813.549 314.154M433.809 314.232L434.068 313.2M434.071 313.2L434.749 310.511L437.379 300.071L441.175 285.011M826.838 355.794L826.709 355.387L826.088 353.438M813.549 314.157L813.407 313.718L812.856 311.994M812.859 311.991L810.708 305.249M806.809 293.047L804.779 286.681L801.739 277.153M810.705 305.249L807.472 295.125L807.328 294.674M441.172 285.011L441.443 283.934L442.064 281.476L444.471 271.927L447.918 258.248L448.198 257.141M807.331 294.674L806.812 293.047M801.736 277.153L801.588 276.693L801.097 275.156M801.097 275.153L799.175 269.136M799.178 269.136L796.31 260.155L796.159 259.686M448.195 257.141L448.764 254.885L450.972 246.118M796.162 259.683L795.698 258.227M795.695 258.227L793.876 252.529M793.879 252.529L791.173 244.051M450.972 246.115L454.115 233.648L454.401 232.517L454.925 230.441M454.922 230.441L456.959 222.364M791.17 244.051L791.017 243.573M791.02 243.576L790.58 242.195M790.577 242.195L789.712 239.488M462.487 200.426L460.604 207.893L460.122 209.812L459.833 210.962M456.959 222.361L459.83 210.959M462.487 200.423L465.123 189.966M465.12 189.969L465.413 188.808L465.862 187.03L467.606 180.104L470.028 170.486L470.323 169.319M470.323 169.322L470.739 167.67M470.739 167.667L472.36 161.229M472.363 161.232L474.599 152.363M480.473 129.033L481.197 126.169M474.596 152.363L474.891 151.193L475.279 149.653L476.792 143.651M480.473 129.03L479.512 132.848L479.151 134.286L478.856 135.456M476.792 143.654L478.859 135.456" stroke="white" stroke-width="0.5" stroke-miterlimit="10"/>
</g>
</g>
<defs>
<clipPath id="clip0_4357_12753">
<rect width="1201" height="654" fill="white" transform="matrix(-1 0 0 1 1201 -24)"/>
</clipPath>
</defs>
</svg>
