<svg width="1920" height="298" viewBox="0 0 1920 298" fill="none" xmlns="http://www.w3.org/2000/svg">
<path d="M1261.32 25.991C1300.46 79.9556 1303.4 153.255 1305.54 206.799C1305.66 209.459 1305.73 212.208 1305.81 215.017C1306.76 244.249 1307.92 280.618 1333.31 300.053C1354.72 316.418 1384.7 316.008 1405.89 310.13C1412.47 306.321 1419.2 303.672 1425.71 301.093C1435.43 297.244 1444.61 293.635 1452.88 286.527C1464.21 276.76 1473.85 264.713 1481.57 250.717C1487.78 239.39 1492.5 227.264 1497.07 215.547C1503.04 200.161 1509.23 184.246 1518.98 169.5C1550.06 122.504 1610.08 111.337 1697.38 136.29C1712.79 140.678 1728.77 145.957 1744.23 151.035C1804.02 170.7 1865.79 190.984 1926.98 175.368V183.766C1863.75 198.962 1801.36 178.438 1740.91 158.543C1724.84 153.275 1709.66 148.276 1694.44 143.917C1611.95 120.344 1555.64 130.311 1527.07 173.499C1517.78 187.555 1511.75 203.081 1505.9 218.116C1501.25 230.063 1496.46 242.409 1489.99 254.156C1481.83 268.992 1471.57 281.808 1459.45 292.215C1450.02 300.333 1439.63 304.442 1429.6 308.401C1422.98 311.02 1416.7 313.499 1410.58 317.088L1410.04 317.418L1409.42 317.598C1379.21 326.206 1347.66 321.777 1327.12 306.061C1298.72 284.327 1297.48 246.038 1296.51 215.267C1296.41 212.458 1296.32 209.739 1296.22 207.089C1294.11 154.464 1291.22 82.395 1253.42 30.2698C1244.34 17.7534 1233.05 10.6654 1218.91 8.63599C1178.3 2.79765 1123.17 41.2968 1090.24 64.3202C1086.24 67.1094 1082.49 69.7286 1079.05 72.068C1075.57 74.4473 1072 76.8665 1068.36 79.3358C1015.68 114.936 950.097 159.233 965.914 220.156C982.992 286.057 1031.91 338.852 1089.34 396.175C1146.08 452.819 1139.34 521.76 1127.14 575.494C1118.12 615.173 1097.78 643.405 1072.74 651.063C1054.01 656.761 1033.38 651.653 1011.41 635.797C996.691 625.21 983.617 613.014 970.959 601.197C957.49 588.641 943.571 575.654 927.847 564.797C902.068 546.973 873.118 536.056 842.456 524.519C837.874 522.779 833.293 521.06 828.711 519.29C792.506 505.424 766.658 488.149 747.358 464.916C732.907 447.541 724.541 428.346 716.465 409.792C712.138 399.895 707.671 389.637 702.326 379.76C685.711 349.109 659.689 352.448 623.67 357.037C621.529 357.307 619.377 357.607 617.19 357.877C571.116 363.615 535.12 351.298 495.26 331.024C427.769 296.714 368.366 296.854 308.303 331.494C280.5 347.549 253.772 366.094 227.923 384.059C185.98 413.191 142.602 443.322 92.7563 464.056C91.7497 464.466 90.7315 464.916 89.7017 465.346C78.6866 470.055 63.6102 476.473 50.3504 466.376C39.046 457.788 32.6475 445.092 26.4573 432.835C24.0275 428.027 21.7481 423.498 19.2489 419.379C2.98071 392.607 -16.8743 373.962 -39.9922 363.575V354.597C-13.3221 365.294 9.30978 385.719 27.5102 415.65C30.1599 420.029 32.5202 424.688 35.0079 429.606C40.7932 441.093 46.7867 452.939 56.5291 460.357C64.4896 466.416 73.1906 463.406 85.5595 458.128C86.624 457.678 87.6769 457.228 88.6951 456.798C137.569 436.474 180.53 406.633 222.057 377.781C248.056 359.716 274.946 341.051 303.108 324.806C366.503 288.256 429.065 288.016 500.004 324.086C539.263 344.04 572.32 355.327 615.859 349.899C618.023 349.629 620.175 349.349 622.304 349.079C657.745 344.55 691.218 340.272 710.784 376.361C716.292 386.528 720.816 396.925 725.201 406.972C733.427 425.857 741.214 443.702 754.937 460.217C773.23 482.241 797.875 498.686 832.506 511.942C837.076 513.702 841.635 515.421 846.205 517.141C876.069 528.408 906.95 540.045 933.701 558.539C949.958 569.766 964.12 582.982 977.808 595.759C990.258 607.375 1003.14 619.382 1017.4 629.659C1036.66 643.545 1054.24 648.194 1069.63 643.505C1091.53 636.807 1109.61 610.814 1118 573.975C1135.54 496.807 1124.51 443.602 1082.29 401.444C1024.03 343.281 974.36 289.636 956.808 221.925C939.73 156.064 1007.87 110.027 1062.61 73.0277C1066.24 70.5684 1069.79 68.1691 1073.28 65.7797C1076.69 63.4604 1080.39 60.8611 1084.37 58.0819C1120.74 32.6791 1175.7 -5.72984 1220.47 0.718322C1237.16 3.11764 1250.91 11.6351 1261.34 26.021L1261.32 25.991Z" fill="white" fill-opacity="0.1"/>
<path d="M1253.36 75.5243C1278.45 116.643 1279.89 162.609 1281.32 207.067C1282.07 230.99 1282.85 255.723 1287.33 279.366C1290.47 300.12 1302.56 316.935 1322.31 327.962C1346.52 341.458 1379.44 344.757 1410.4 336.75C1448.64 326.873 1474.17 313.167 1493.22 292.292C1507.82 276.267 1514.66 258.572 1521.91 239.827C1525.28 231.16 1528.74 222.192 1533.03 213.425C1550.11 178.635 1571.49 159.3 1598.36 154.382C1603.36 149.543 1622.26 150.653 1640.19 152.412C1641.54 152.552 1642.67 152.652 1643.51 152.722C1664.28 154.462 1684.19 159.79 1702.62 165.259C1713.72 168.558 1725.19 172.167 1736.29 175.666C1798.69 195.29 1862.91 215.464 1926.96 205.717V207.357C1862.56 217.064 1798.19 196.85 1735.67 177.185C1724.57 173.686 1713.09 170.077 1702.02 166.778C1683.69 161.33 1663.92 156.041 1643.33 154.322C1642.48 154.242 1641.34 154.132 1639.99 154.012C1630.2 153.052 1604.21 150.513 1599.61 155.611L1599.4 155.841L1599.06 155.901C1572.7 160.61 1551.65 179.645 1534.74 214.045C1530.47 222.752 1527.02 231.7 1523.69 240.327C1516.37 259.212 1509.49 277.037 1494.68 293.282C1475.38 314.426 1449.55 328.312 1410.93 338.289C1379.44 346.417 1345.94 343.058 1321.28 329.312C1301.08 318.005 1288.7 300.82 1285.48 279.596C1280.98 255.873 1280.19 231.07 1279.43 207.097C1278.03 162.809 1276.58 117.042 1251.69 76.2741C1238.84 55.1901 1215.16 31.7567 1175.38 39.8744C1142.92 46.4925 1112.21 66.5468 1085.14 84.2218L1083.51 85.2915C999.955 139.826 971.168 195.51 995.466 255.593C1014.08 301.63 1047.04 334.48 1081.91 369.23C1090.73 378.018 1099.85 387.115 1108.78 396.473C1157.02 447.058 1150.94 511.87 1141.43 568.634C1141.09 570.663 1140.75 572.852 1140.36 575.172C1134.08 614.091 1122.39 686.55 1067.39 687.6C1037.49 688.169 1009.76 661.867 994.864 647.731C986.799 640.073 979.07 631.976 971.607 624.148C955.42 607.143 938.654 589.528 917.584 575.922C891.898 559.326 861.086 549.859 831.303 540.712C797.957 530.465 763.5 519.878 736.413 499.263C727.388 492.385 717.9 480.849 707.869 468.642C680.944 435.842 650.41 398.682 609.612 422.345C598.18 428.964 591.782 437.501 590.602 447.668C586.853 479.889 635.218 522.177 658.474 542.501C660.013 543.851 661.46 545.1 662.767 546.27C706.885 585.169 738.461 635.345 767.631 688.939H765.571C736.564 635.735 705.161 585.939 661.425 547.38C660.117 546.23 658.671 544.961 657.132 543.611C633.69 523.107 584.886 480.489 588.739 447.508C589.977 436.831 596.665 427.904 608.571 420.996C650.884 396.453 683.328 435.971 709.396 467.702C719.358 479.849 728.777 491.306 737.64 498.044C764.449 518.468 798.755 528.995 831.928 539.182C861.849 548.379 892.8 557.867 918.707 574.622C939.962 588.368 956.785 606.043 973.054 623.128C980.517 630.936 988.199 639.024 996.241 646.661C1010.92 660.597 1038.3 686.55 1067.33 685.99C1120.75 684.971 1132.3 613.411 1138.49 574.962C1138.87 572.643 1139.23 570.433 1139.58 568.404C1148.99 511.97 1155.08 447.578 1107.31 397.512C1098.4 388.165 1089.29 379.078 1080.49 370.29C1045.49 335.4 1012.44 302.46 993.684 256.123C969.096 195.32 998.092 139.006 1082.36 84.0219L1083.99 82.9521C1109.86 66.0469 1142.1 45.013 1174.92 38.3149C1207.31 31.6968 1234.43 44.5631 1253.31 75.5143L1253.36 75.5243Z" fill="white" fill-opacity="0.1"/>
<path d="M1225.28 87.3541C1263.79 126.053 1263.15 182.657 1262.63 232.603C1262.42 250.308 1262.25 267.043 1263.63 282.688C1267.26 323.987 1285.96 348.76 1320.8 358.467C1349.63 366.514 1376.68 363.215 1405.32 359.736C1412.08 358.917 1419.06 358.057 1426.09 357.357C1430.18 353.568 1441.55 351.189 1456.91 348.28C1463.72 347.01 1470.11 345.801 1473.25 344.671L1476.86 343.341C1490.63 338.363 1504.88 333.184 1515.84 324.167C1538.03 305.852 1547.84 279.919 1557.49 250.398C1565.15 226.964 1585 187.236 1631.89 184.326C1667.67 182.117 1699.15 191.744 1732.48 201.941L1734.65 202.601C1808.84 225.255 1872.41 235.872 1926.99 234.682V238.701C1871.84 239.891 1807.75 229.174 1733.09 206.39L1730.91 205.73C1698.05 195.673 1667.03 186.206 1632.21 188.355C1588.18 191.075 1569.31 229.084 1562 251.497C1554.41 274.711 1543.98 306.502 1519.06 327.066C1507.49 336.613 1492.84 341.922 1478.68 347.06L1475.05 348.37C1471.53 349.659 1465.22 350.849 1457.93 352.239C1447.49 354.188 1431.73 357.157 1429.25 360.396L1428.63 361.176L1427.55 361.276C1420.27 361.976 1412.99 362.876 1405.94 363.715C1376.76 367.284 1349.23 370.623 1319.35 362.306C1282.51 352.059 1262.76 326.106 1258.96 282.988C1257.59 267.193 1257.77 250.378 1257.95 232.573C1258.51 180.947 1259.1 127.543 1221.72 89.9734C1210.15 78.3367 1195.71 72.2484 1178.85 71.8485C1139.96 70.9888 1092.75 100.88 1061.54 129.142C1006.44 179.028 999.703 240.181 1042.59 301.343C1059.66 325.676 1082.17 344.511 1106 364.465C1111.29 368.894 1116.6 373.333 1121.86 377.861C1152.35 404.064 1165.44 431.246 1166.99 471.664C1168.73 516.182 1162.94 561.189 1156.48 603.207C1155.96 606.606 1155.44 610.025 1154.92 613.444C1151.13 638.967 1147.24 665.069 1136.93 688.973H1131.91C1142.48 665.069 1146.46 638.717 1150.3 612.944C1150.8 609.505 1151.32 606.086 1151.84 602.697C1158.31 560.849 1164.03 516.042 1162.33 471.795C1160.76 432.006 1148.5 406.463 1118.56 380.73C1113.31 376.222 1108 371.783 1102.74 367.354C1079.74 348.1 1055.96 328.205 1038.6 303.423C994.519 240.59 1001.45 177.698 1058.13 126.383C1090.05 97.5013 1138.54 66.9499 1178.97 67.8597C1197.2 68.2496 1212.77 74.8277 1225.25 87.3641L1225.28 87.3541Z" fill="white" fill-opacity="0.1"/>
<path d="M1397.88 688.96C1399.4 685.621 1401.03 682.422 1402.93 679.592C1413.55 663.897 1426.64 649.991 1436.83 639.624C1439.43 636.984 1442.03 634.375 1444.65 631.736C1467.3 608.873 1490.73 585.229 1507.27 558.207C1523.72 531.315 1532.65 500.603 1540.4 471.452C1545.82 451.048 1554 420.216 1546.77 396.223C1538.05 367.361 1501.39 371.89 1471.92 375.549C1469.24 375.879 1466.64 376.189 1464.15 376.489C1453.71 377.658 1443.07 379.148 1432.76 380.568C1399.74 385.136 1365.59 389.865 1331.65 386.176C1305.96 383.387 1274.08 377.778 1255.36 359.194C1235.02 338.999 1237.03 306.159 1238.64 279.766C1238.88 275.608 1239.14 271.589 1239.28 267.8C1239.41 264.791 1239.56 261.432 1239.75 257.783C1241.67 217.874 1245.26 143.575 1210.59 111.884C1200.09 102.257 1186.59 97.2585 1170.52 97.0085C1134.27 96.4587 1100.91 119.012 1084.26 132.508C1072.13 142.326 1033.29 176.206 1033.29 206.627C1033.29 207.307 1033.31 207.997 1033.33 208.657C1033.49 211.116 1033.61 213.495 1033.74 215.845C1035.09 241.057 1036.18 260.952 1050.39 285.745C1068.83 317.906 1101.32 341.529 1130.32 361.153C1132.05 362.323 1133.82 363.512 1135.58 364.692C1146.49 372.01 1157.77 379.568 1166.99 388.575C1174.7 396.113 1177.26 403.691 1179.99 411.729C1181.14 415.108 1182.31 418.607 1183.92 422.236L1183.99 422.446C1187.38 454.057 1183.73 486.058 1180.17 517.009C1179.04 526.886 1177.87 537.103 1176.97 547.16C1175.71 560.806 1174.53 574.472 1173.35 588.128C1170.45 621.239 1167.49 655.239 1163.6 689H1161.73C1165.62 655.199 1168.6 621.169 1171.47 588.009C1172.66 574.342 1173.84 560.696 1175.08 547.02C1176.01 536.963 1177.19 526.736 1178.31 516.849C1181.84 486.018 1185.5 454.117 1182.13 422.696C1180.52 419.047 1179.33 415.548 1178.19 412.169C1175.52 404.301 1173.02 396.883 1165.58 389.635C1156.48 380.748 1145.26 373.21 1134.42 365.952C1132.66 364.782 1130.89 363.593 1129.16 362.413C1099.99 342.669 1067.33 318.905 1048.71 286.455C1034.32 261.342 1033.23 241.287 1031.85 215.905C1031.73 213.565 1031.6 211.176 1031.47 208.717C1029.59 177.146 1070.43 141.466 1082.99 131.319C1099.85 117.653 1133.64 94.8292 1170.53 95.389C1187.13 95.6389 1201.07 100.817 1211.93 110.755C1247.14 142.955 1243.52 217.674 1241.58 257.843C1241.39 261.472 1241.24 264.831 1241.13 267.82C1240.96 271.629 1240.72 275.648 1240.47 279.826C1238.88 305.929 1236.89 338.42 1256.74 358.124C1275.04 376.299 1306.5 381.807 1331.85 384.567C1365.54 388.236 1399.56 383.527 1432.43 378.978C1442.74 377.548 1453.4 376.069 1463.87 374.879C1466.36 374.609 1468.95 374.269 1471.62 373.939C1500.24 370.41 1539.4 365.562 1548.56 395.833C1550.64 402.721 1551.47 410.149 1551.47 417.717C1551.47 436.912 1546.11 457.066 1542.2 471.802C1534.43 501.053 1525.46 531.885 1508.89 558.967C1492.25 586.149 1468.75 609.852 1446.04 632.776C1443.41 635.415 1440.82 638.044 1438.22 640.684C1428.07 650.991 1415.05 664.817 1404.53 680.402C1402.79 682.981 1401.25 685.911 1399.85 688.97H1397.86L1397.88 688.96Z" fill="white" fill-opacity="0.1"/>
<path d="M1220.31 221.041C1220.31 172.715 1203.88 141.354 1171.49 127.868L1171.16 127.788C1120.24 125.429 1072.76 157.839 1058.23 204.876C1055.81 212.704 1054.59 220.831 1054.59 228.969C1054.59 266.828 1081.58 305.997 1123.36 328.75C1148.33 342.337 1168.76 344.366 1189.66 335.349L1189.97 335.129C1206.28 317.264 1212.21 296.21 1216.07 270.107C1217.88 257.941 1220.3 239.626 1220.3 221.041H1220.31ZM1170.85 129.387C1202.43 142.624 1218.42 173.455 1218.42 221.041C1218.42 239.536 1216.03 257.791 1214.24 269.897C1210.4 295.69 1204.59 316.444 1188.64 333.999C1168.46 342.627 1148.62 340.597 1124.34 327.381C1083.1 304.927 1056.46 266.308 1056.46 228.969C1056.46 220.961 1057.66 212.993 1060.03 205.286C1074.31 159.049 1120.89 127.148 1170.85 129.387Z" fill="white" fill-opacity="0.1"/>
<path d="M1191.88 228.644C1191.88 199.633 1180.28 177.999 1158.3 166.042L1157.99 165.922C1140.97 162.913 1125.4 165.922 1112.97 174.65C1096.25 186.406 1085.87 208.41 1085.87 232.093C1085.87 257.746 1099.12 290.377 1136.42 297.935C1147.06 300.084 1156.57 298.614 1164.71 293.576C1181.05 283.479 1189.06 260.345 1191.1 242.05C1191.62 237.482 1191.86 232.953 1191.86 228.634L1191.88 228.644ZM1157.43 167.472C1184.37 182.198 1190.01 208.85 1190.01 228.644C1190.01 232.923 1189.77 237.372 1189.25 241.901C1187.24 259.845 1179.46 282.499 1163.62 292.276C1155.94 297.025 1146.92 298.404 1136.85 296.355C1100.6 289.027 1087.72 257.166 1087.72 232.093C1087.72 208.9 1097.84 187.336 1114.13 175.899C1126.09 167.522 1141.05 164.593 1157.43 167.462V167.472Z" fill="white" fill-opacity="0.1"/>
<path d="M1748.54 234.539C1766.06 238.718 1784.16 243.037 1802.2 246.486C1830.83 251.974 1860.03 254.164 1888.26 256.293C1898.45 257.053 1909 257.833 1919.37 258.772C1921.86 258.982 1924.42 259.262 1926.99 259.532V261.172C1924.34 260.862 1921.72 260.602 1919.16 260.372C1908.81 259.432 1898.28 258.653 1888.08 257.893C1859.8 255.763 1830.54 253.574 1801.78 248.055C1783.71 244.576 1765.58 240.268 1748.05 236.089C1723.44 230.231 1698.02 224.182 1672.5 220.413C1630.96 217.484 1601.16 241.347 1596.53 281.176C1596.13 284.575 1595.94 287.814 1595.94 290.823C1595.94 305.159 1600.4 316.456 1609.59 325.343C1615 327.863 1623.65 329.342 1631.99 330.792C1642.39 332.571 1652.22 334.271 1657.1 337.84C1709.08 341.859 1754.32 357.954 1791.75 373.18L1797.11 375.369C1833.83 390.365 1875.44 407.37 1916.61 400.172C1920.18 399.542 1923.63 398.722 1927 397.753V399.452C1923.77 400.352 1920.42 401.132 1916.96 401.742C1875.21 409.06 1833.29 391.944 1796.28 376.829L1790.95 374.659C1753.61 359.454 1708.44 343.398 1656.65 339.439L1656.34 339.42L1656.11 339.239C1651.7 335.82 1641.48 334.061 1631.64 332.371C1623.07 330.902 1614.21 329.382 1608.56 326.713L1608.31 326.553C1598.73 317.316 1594.08 305.639 1594.08 290.843C1594.08 287.774 1594.29 284.475 1594.69 281.046C1599.41 240.258 1630.04 215.835 1672.75 218.834C1698.44 222.643 1723.91 228.691 1748.57 234.569L1748.54 234.539Z" fill="white" fill-opacity="0.1"/>
<path d="M1861.2 286.435L1866.2 286.985C1887.35 289.284 1910.53 291.803 1926.99 303.17V305.26C1910.85 293.463 1887.35 290.904 1865.95 288.584L1861.07 288.035C1859.58 288.015 1857.45 287.955 1854.88 287.875C1834.56 287.305 1780.62 285.765 1766.65 297.422C1764.47 299.261 1763.4 301.271 1763.4 303.59C1763.4 306.639 1765.32 310.228 1769.1 314.227C1794.52 341.129 1830.95 361.554 1866.59 368.822C1886.93 372.98 1910.75 368.882 1925.84 358.584C1926.25 358.315 1926.58 357.995 1927 357.705V359.854C1911.47 370.421 1887.02 374.66 1866.16 370.401C1830.14 363.043 1793.32 342.419 1767.65 315.237C1760.35 307.509 1759.63 301.021 1765.37 296.262C1779.9 284.136 1832.49 285.615 1854.93 286.265C1857.51 286.345 1859.6 286.405 1861.21 286.425L1861.2 286.435Z" fill="white" fill-opacity="0.1"/>
</svg>
