<svg width="32" height="32" viewBox="0 0 32 32" fill="none" xmlns="http://www.w3.org/2000/svg">
<path d="M26.6667 6.80133V6.66667C26.6667 2.99067 23.676 0 20 0H12C8.324 0 5.33333 2.99067 5.33333 6.66667V12.1347C2.29467 12.7547 0 15.4467 0 18.6667V25.3333C0 29.0093 2.99067 32 6.66667 32H25.3333C29.0093 32 32 29.0093 32 25.3333V13.3333C32 10.1133 29.7053 7.42 26.6667 6.80133ZM6.66667 25.3333H5.33333C4.59733 25.3333 4 24.7373 4 24C4 23.2627 4.59733 22.6667 5.33333 22.6667H6.66667C7.40267 22.6667 8 23.2627 8 24C8 24.7373 7.40267 25.3333 6.66667 25.3333ZM6.66667 20H5.33333C4.59733 20 4 19.404 4 18.6667C4 17.9293 4.59733 17.3333 5.33333 17.3333H6.66667C7.40267 17.3333 8 17.9293 8 18.6667C8 19.404 7.40267 20 6.66667 20ZM13.3333 25.3333H12C11.264 25.3333 10.6667 24.7373 10.6667 24C10.6667 23.2627 11.264 22.6667 12 22.6667H13.3333C14.0693 22.6667 14.6667 23.2627 14.6667 24C14.6667 24.7373 14.0693 25.3333 13.3333 25.3333ZM13.3333 20H12C11.264 20 10.6667 19.404 10.6667 18.6667C10.6667 17.9293 11.264 17.3333 12 17.3333H13.3333C14.0693 17.3333 14.6667 17.9293 14.6667 18.6667C14.6667 19.404 14.0693 20 13.3333 20ZM13.3333 14.6667H12C11.264 14.6667 10.6667 14.0707 10.6667 13.3333C10.6667 12.596 11.264 12 12 12H13.3333C14.0693 12 14.6667 12.596 14.6667 13.3333C14.6667 14.0707 14.0693 14.6667 13.3333 14.6667ZM13.3333 9.33333H12C11.264 9.33333 10.6667 8.73733 10.6667 8C10.6667 7.26267 11.264 6.66667 12 6.66667H13.3333C14.0693 6.66667 14.6667 7.26267 14.6667 8C14.6667 8.73733 14.0693 9.33333 13.3333 9.33333ZM20 25.3333H18.6667C17.9307 25.3333 17.3333 24.7373 17.3333 24C17.3333 23.2627 17.9307 22.6667 18.6667 22.6667H20C20.736 22.6667 21.3333 23.2627 21.3333 24C21.3333 24.7373 20.736 25.3333 20 25.3333ZM20 20H18.6667C17.9307 20 17.3333 19.404 17.3333 18.6667C17.3333 17.9293 17.9307 17.3333 18.6667 17.3333H20C20.736 17.3333 21.3333 17.9293 21.3333 18.6667C21.3333 19.404 20.736 20 20 20ZM20 14.6667H18.6667C17.9307 14.6667 17.3333 14.0707 17.3333 13.3333C17.3333 12.596 17.9307 12 18.6667 12H20C20.736 12 21.3333 12.596 21.3333 13.3333C21.3333 14.0707 20.736 14.6667 20 14.6667ZM20 9.33333H18.6667C17.9307 9.33333 17.3333 8.73733 17.3333 8C17.3333 7.26267 17.9307 6.66667 18.6667 6.66667H20C20.736 6.66667 21.3333 7.26267 21.3333 8C21.3333 8.73733 20.736 9.33333 20 9.33333ZM26.6667 25.3333H25.3333C24.5973 25.3333 24 24.7373 24 24C24 23.2627 24.5973 22.6667 25.3333 22.6667H26.6667C27.4027 22.6667 28 23.2627 28 24C28 24.7373 27.4027 25.3333 26.6667 25.3333ZM26.6667 20H25.3333C24.5973 20 24 19.404 24 18.6667C24 17.9293 24.5973 17.3333 25.3333 17.3333H26.6667C27.4027 17.3333 28 17.9293 28 18.6667C28 19.404 27.4027 20 26.6667 20ZM26.6667 14.6667H25.3333C24.5973 14.6667 24 14.0707 24 13.3333C24 12.596 24.5973 12 25.3333 12H26.6667C27.4027 12 28 12.596 28 13.3333C28 14.0707 27.4027 14.6667 26.6667 14.6667Z" fill="#405BE7"/>
</svg>
