<svg width="32" height="32" viewBox="0 0 32 32" fill="none" xmlns="http://www.w3.org/2000/svg">
<path d="M5.79067 14.6666H0C0.00211714 12.8991 0.705176 11.2046 1.95496 9.95486C3.20474 8.70507 4.89921 8.00201 6.66667 7.9999H14.6667V2.18123C14.6669 1.8142 14.7597 1.45317 14.9365 1.13151C15.1132 0.809846 15.3682 0.537954 15.6779 0.340975C15.9876 0.143996 16.342 0.028293 16.7082 0.0045661C17.0745 -0.0191608 17.4408 0.0498549 17.7733 0.20523L22.04 2.20523C22.2329 2.32481 22.3922 2.49167 22.5026 2.69C22.613 2.88833 22.671 3.11157 22.671 3.33856C22.671 3.56556 22.613 3.7888 22.5026 3.98713C22.3922 4.18546 22.2329 4.35232 22.04 4.4719L17.3333 6.66656V7.9999H25.3333C27.1008 8.00201 28.7953 8.70507 30.045 9.95486C31.2948 11.2046 31.9979 12.8991 32 14.6666H26.2093C25.1676 14.6668 24.1669 14.2607 23.42 13.5346L19.772 9.56256C18.7524 8.57924 17.389 8.0331 15.9725 8.04058C14.556 8.04805 13.1985 8.60854 12.1893 9.60256L8.61867 13.4946C7.8673 14.2427 6.85095 14.6639 5.79067 14.6666ZM16 25.3332C15.6464 25.3332 15.3072 25.4737 15.0572 25.7238C14.8071 25.9738 14.6667 26.3129 14.6667 26.6666V31.9999H17.3333V26.6666C17.3333 26.3129 17.1929 25.9738 16.9428 25.7238C16.6928 25.4737 16.3536 25.3332 16 25.3332ZM26.2093 17.3332H32V27.9999C32 29.0608 31.5786 30.0782 30.8284 30.8283C30.0783 31.5785 29.0609 31.9999 28 31.9999H20V26.6666C20 25.6057 19.5786 24.5883 18.8284 23.8381C18.0783 23.088 17.0609 22.6666 16 22.6666C14.9391 22.6666 13.9217 23.088 13.1716 23.8381C12.4214 24.5883 12 25.6057 12 26.6666V31.9999H4C2.93913 31.9999 1.92172 31.5785 1.17157 30.8283C0.421427 30.0782 0 29.0608 0 27.9999L0 17.3332H5.79067C6.67568 17.3335 7.55188 17.1574 8.36803 16.8151C9.18419 16.4729 9.92392 15.9714 10.544 15.3399L14.1147 11.4479C14.6189 10.9749 15.2822 10.7083 15.9735 10.7009C16.6649 10.6934 17.3338 10.9458 17.848 11.4079L21.4987 15.3799C22.1159 16.0006 22.8499 16.4928 23.6585 16.8281C24.467 17.1633 25.334 17.335 26.2093 17.3332ZM8 27.9999C8 27.6463 7.85952 27.3071 7.60948 27.0571C7.35943 26.807 7.02029 26.6666 6.66667 26.6666H5.33333C4.97971 26.6666 4.64057 26.807 4.39052 27.0571C4.14048 27.3071 4 27.6463 4 27.9999C4 28.3535 4.14048 28.6927 4.39052 28.9427C4.64057 29.1928 4.97971 29.3332 5.33333 29.3332H6.66667C7.02029 29.3332 7.35943 29.1928 7.60948 28.9427C7.85952 28.6927 8 28.3535 8 27.9999ZM8 22.6666C8 22.3129 7.85952 21.9738 7.60948 21.7238C7.35943 21.4737 7.02029 21.3332 6.66667 21.3332H5.33333C4.97971 21.3332 4.64057 21.4737 4.39052 21.7238C4.14048 21.9738 4 22.3129 4 22.6666C4 23.0202 4.14048 23.3593 4.39052 23.6094C4.64057 23.8594 4.97971 23.9999 5.33333 23.9999H6.66667C7.02029 23.9999 7.35943 23.8594 7.60948 23.6094C7.85952 23.3593 8 23.0202 8 22.6666ZM18.6667 17.3332C18.6667 16.8058 18.5103 16.2902 18.2173 15.8517C17.9242 15.4132 17.5078 15.0714 17.0205 14.8696C16.5332 14.6677 15.997 14.6149 15.4798 14.7178C14.9625 14.8207 14.4873 15.0747 14.1144 15.4476C13.7414 15.8206 13.4875 16.2957 13.3846 16.813C13.2817 17.3303 13.3345 17.8664 13.5363 18.3537C13.7382 18.841 14.0799 19.2575 14.5185 19.5505C14.957 19.8435 15.4726 19.9999 16 19.9999C16.7072 19.9999 17.3855 19.7189 17.8856 19.2188C18.3857 18.7188 18.6667 18.0405 18.6667 17.3332ZM28 27.9999C28 27.6463 27.8595 27.3071 27.6095 27.0571C27.3594 26.807 27.0203 26.6666 26.6667 26.6666H25.3333C24.9797 26.6666 24.6406 26.807 24.3905 27.0571C24.1405 27.3071 24 27.6463 24 27.9999C24 28.3535 24.1405 28.6927 24.3905 28.9427C24.6406 29.1928 24.9797 29.3332 25.3333 29.3332H26.6667C27.0203 29.3332 27.3594 29.1928 27.6095 28.9427C27.8595 28.6927 28 28.3535 28 27.9999ZM26.6667 21.3332H25.3333C24.9797 21.3332 24.6406 21.4737 24.3905 21.7238C24.1405 21.9738 24 22.3129 24 22.6666C24 23.0202 24.1405 23.3593 24.3905 23.6094C24.6406 23.8594 24.9797 23.9999 25.3333 23.9999H26.6667C27.0203 23.9999 27.3594 23.8594 27.6095 23.6094C27.8595 23.3593 28 23.0202 28 22.6666C28 22.3129 27.8595 21.9738 27.6095 21.7238C27.3594 21.4737 27.0203 21.3332 26.6667 21.3332Z" fill="#405BE7"/>
</svg>
