<svg width="92" height="92" viewBox="0 0 92 92" fill="none" xmlns="http://www.w3.org/2000/svg">
<path d="M73.2921 31.7128C73.2921 33.4422 73.0714 35.3553 72.593 37.3423C71.5995 37.2318 70.5694 37.195 69.5759 37.195C61.9965 37.195 54.8955 39.7706 49.0452 44.6641C40.5094 51.802 37.3082 62.3985 41.2819 70.4931C41.7234 71.4129 42.2386 72.2591 42.7906 73.0684C41.7234 73.6572 40.5829 74.209 39.4423 74.7242C37.6763 75.5337 35.6158 75.5337 33.8496 74.7242C11.4795 64.5692 0 44.0753 0 31.7128C0 27.0402 1.83967 22.4411 5.37166 18.8352C13.7606 10.2257 30.2071 12.2493 36.6459 24.391C43.0848 12.2493 59.5314 10.2257 67.9202 18.8352C71.4524 22.4411 73.2921 27.0402 73.2921 31.7128ZM51.4001 47.4973C44.1887 53.5312 41.4292 62.3985 44.5934 68.8373C44.7036 69.0581 44.851 69.3157 44.9981 69.5364C50.2595 61.6994 56.4039 55.9229 63.2476 52.3538C64.1306 51.8757 65.2712 52.2436 65.7495 53.1266C66.191 54.0096 65.8598 55.1501 64.9768 55.5916C58.5011 59.0136 52.6511 64.606 47.5736 72.2591L47.2792 72.7006C54.601 80.6478 70.2013 82.7819 80.0987 62.7664C85.4338 51.986 92.3878 53.3841 91.9831 51.7284C90.401 45.1793 68.2514 33.4422 51.4001 47.4973Z" fill="#405BE7"/>
</svg>
