<svg width="38" height="38" viewBox="0 0 38 38" fill="none" xmlns="http://www.w3.org/2000/svg">
<rect x="0.5" y="0.5" width="37" height="37" rx="18.5" stroke="#1ABD40"/>
<g clip-path="url(#clip0_326_1215)">
<path d="M26.8022 19.2332C26.7298 19.085 26.7298 18.9151 26.8022 18.7669L27.4736 17.3936C27.8473 16.6289 27.5512 15.7175 26.7993 15.3185L25.449 14.6021C25.3033 14.5248 25.2034 14.3873 25.1749 14.2249L24.9108 12.7192C24.7638 11.8808 23.9883 11.3175 23.1457 11.4367L21.6321 11.6508C21.4688 11.6739 21.3072 11.6214 21.1887 11.5067L20.09 10.4439C19.4783 9.85206 18.5199 9.85202 17.9082 10.4439L16.8095 11.5068C16.691 11.6215 16.5294 11.6739 16.3661 11.6509L14.8525 11.4368C14.0097 11.3175 13.2345 11.8809 13.0874 12.7193L12.8233 14.2249C12.7948 14.3873 12.6949 14.5248 12.5493 14.6021L11.1989 15.3186C10.4471 15.7175 10.1509 16.629 10.5247 17.3937L11.196 18.767C11.2684 18.9152 11.2684 19.0851 11.196 19.2333L10.5247 20.6066C10.1509 21.3713 10.4471 22.2827 11.1989 22.6816L12.5492 23.3981C12.6949 23.4754 12.7948 23.6129 12.8233 23.7753L13.0874 25.281C13.2213 26.0442 13.8757 26.5794 14.6278 26.5793C14.7019 26.5793 14.777 26.5741 14.8526 26.5634L16.3661 26.3493C16.5294 26.3261 16.691 26.3788 16.8096 26.4934L17.9082 27.5563C18.2142 27.8522 18.6066 28.0001 18.9991 28.0001C19.3916 28.0001 19.7842 27.8521 20.09 27.5563L21.1887 26.4934C21.3073 26.3788 21.4688 26.3264 21.6321 26.3493L23.1457 26.5634C23.9887 26.6827 24.7638 26.1193 24.9108 25.281L25.1749 23.7753C25.2035 23.6129 25.3033 23.4754 25.449 23.3981L26.7993 22.6816C27.5512 22.2827 27.8473 21.3713 27.4736 20.6066L26.8022 19.2332ZM16.9228 14.3283C17.9722 14.3283 18.8261 15.1822 18.8261 16.2317C18.8261 17.2811 17.9722 18.135 16.9228 18.135C15.8733 18.135 15.0195 17.2811 15.0195 16.2317C15.0195 15.1822 15.8733 14.3283 16.9228 14.3283ZM15.9404 22.7929C15.839 22.8942 15.7062 22.9449 15.5733 22.9449C15.4405 22.9449 15.3076 22.8942 15.2063 22.7929C15.0036 22.5901 15.0036 22.2615 15.2063 22.0588L22.0578 15.2072C22.2605 15.0045 22.5892 15.0045 22.7919 15.2072C22.9946 15.4099 22.9946 15.7386 22.7919 15.9413L15.9404 22.7929ZM21.0754 23.6718C20.0259 23.6718 19.1721 22.818 19.1721 21.7685C19.1721 20.719 20.0259 19.8652 21.0754 19.8652C22.1249 19.8652 22.9787 20.719 22.9787 21.7685C22.9787 22.818 22.1249 23.6718 21.0754 23.6718Z" fill="#1ABD40"/>
<path d="M21.0761 20.9043C20.5991 20.9043 20.2109 21.2924 20.2109 21.7694C20.2109 22.2464 20.599 22.6345 21.0761 22.6345C21.5531 22.6345 21.9412 22.2464 21.9412 21.7694C21.9412 21.2924 21.5531 20.9043 21.0761 20.9043Z" fill="#1ABD40"/>
<path d="M16.9237 15.3672C16.4467 15.3672 16.0586 15.7553 16.0586 16.2323C16.0586 16.7093 16.4467 17.0975 16.9237 17.0975C17.4007 17.0975 17.7889 16.7094 17.7889 16.2323C17.7888 15.7553 17.4007 15.3672 16.9237 15.3672Z" fill="#1ABD40"/>
</g>
<defs>
<clipPath id="clip0_326_1215">
<rect width="18" height="18" fill="white" transform="translate(10 10)"/>
</clipPath>
</defs>
</svg>
