<svg width="38" height="38" viewBox="0 0 38 38" fill="none" xmlns="http://www.w3.org/2000/svg">
<rect x="0.5" y="0.5" width="37" height="37" rx="18.5" stroke="#405BE7"/>
<g clip-path="url(#clip0_326_1199)">
<path d="M20.2031 18.3262H26.9443C27.5578 18.3262 28.044 17.8027 27.9968 17.1902C27.8539 15.3367 27.0491 13.5898 25.7306 12.2713C24.4121 10.9528 22.6652 10.148 20.8117 10.0051C20.1998 9.95819 19.6758 10.4432 19.6758 11.0576V17.7988C19.6758 18.09 19.9119 18.3262 20.2031 18.3262Z" fill="#405BE7"/>
<path d="M26.945 19.3848H20.2036C19.7382 19.3848 19.5018 19.9459 19.825 20.2792L24.5179 25.1185C24.9458 25.5598 25.6593 25.5438 26.0652 25.0843C27.1979 23.8016 27.866 22.2238 27.9974 20.5216C28.0448 19.9092 27.5593 19.3848 26.945 19.3848Z" fill="#405BE7"/>
<path d="M18.3444 20.4918V13.4402C18.3444 12.8258 17.8196 12.3406 17.2055 12.388C15.2696 12.5379 13.4672 13.4009 12.1302 14.8179C10.7876 16.2411 10.0314 18.1018 10.001 20.0575C9.96845 22.145 10.7567 24.1234 12.2205 25.628C13.6829 27.1313 15.6365 27.973 17.7214 27.9979C17.7537 27.9983 17.786 27.9985 17.8182 27.9985C19.4904 27.9985 21.0832 27.4789 22.4301 26.4928C22.9445 26.1163 23.011 25.3722 22.5701 24.9111L18.3444 20.4918Z" fill="#405BE7"/>
</g>
<defs>
<clipPath id="clip0_326_1199">
<rect width="18" height="18" fill="white" transform="translate(10 10)"/>
</clipPath>
</defs>
</svg>
