<svg width="92" height="92" viewBox="0 0 92 92" fill="none" xmlns="http://www.w3.org/2000/svg">
<g clip-path="url(#clip0_441_2881)">
<path d="M36.7369 0.00390625H15.8438V12.7445L36.7369 9.26231V0.00390625Z" fill="#405BE7"/>
<path d="M82.7303 86.7886V26.4698H48.6953V86.7886H43.3047V21.0792V13.8145L9.26972 19.4868V86.7886H0V92.1792H92V86.7886H82.7303ZM69.4208 34.221H75.1466V39.6116H69.4208V34.221ZM69.4208 47.363H75.1466V52.7536H69.4208V47.363ZM69.4208 60.5048H75.1466V65.8954H69.4208V60.5048ZM69.4208 73.6468H75.1466V79.0374H69.4208V73.6468ZM56.279 34.221H62.0048V39.6116H56.279V34.221ZM56.279 47.363H62.0048V52.7536H56.279V47.363ZM56.279 60.5048H62.0048V65.8954H56.279V60.5048ZM56.279 73.6468H62.0048V79.0374H56.279V73.6468ZM29.9952 21.0792H35.721V26.4698H29.9952V21.0792ZM29.9952 34.221H35.721V39.6116H29.9952V34.221ZM29.9952 47.363H35.721V52.7536H29.9952V47.363ZM29.9952 60.5048H35.721V65.8954H29.9952V60.5048ZM16.8534 34.221H22.5792V39.6116H16.8534V34.221ZM16.8534 47.363H22.5792V52.7536H16.8534V47.363ZM16.8534 60.5048H22.5792V65.8954H16.8534V60.5048ZM17.0209 73.6468H35.5535V86.7886H30.1629V79.0374H22.4115V86.7886H17.0209V73.6468Z" fill="#405BE7"/>
</g>
<defs>
<clipPath id="clip0_441_2881">
<rect width="92" height="92" fill="white"/>
</clipPath>
</defs>
</svg>
