<svg width="92" height="92" viewBox="0 0 92 92" fill="none" xmlns="http://www.w3.org/2000/svg">
<g clip-path="url(#clip0_441_2889)">
<path d="M45.999 23.3239L36.4756 13.8004C33.3311 10.6559 33.3311 5.51685 36.4756 2.37232C39.0451 -0.215182 42.9443 -0.682369 45.999 0.952787C49.0537 -0.682369 52.9529 -0.215182 55.5225 2.37232C58.667 5.51685 58.667 10.6559 55.5225 13.8004L45.999 23.3239Z" fill="#405BE7"/>
<path d="M10.7812 38.0938C4.83359 38.0938 0 33.2602 0 27.3125C0 21.3648 4.83359 16.5312 10.7812 16.5312C16.7289 16.5312 21.5625 21.3648 21.5625 27.3125C21.5625 33.2602 16.7289 38.0938 10.7812 38.0938Z" fill="#405BE7"/>
<path d="M81.2188 38.0938C75.2711 38.0938 70.4375 33.2602 70.4375 27.3125C70.4375 21.3648 75.2711 16.5312 81.2188 16.5312C87.1664 16.5312 92 21.3648 92 27.3125C92 33.2602 87.1664 38.0938 81.2188 38.0938Z" fill="#405BE7"/>
<path d="M91.9998 92.0003H64.867V53.655L42.6037 43.2871C38.5787 41.3464 36.8178 36.5488 38.6506 32.5417C40.3576 28.93 44.7959 26.5941 49.342 28.5527L84.5428 44.9042C89.1428 47.2042 92.0178 51.8402 92.0178 56.9613V92.0003H91.9998Z" fill="#405BE7"/>
<path d="M46 75.8281C40.0523 75.8281 35.2188 70.9945 35.2188 65.0469C35.2188 59.0992 40.0523 54.2656 46 54.2656C51.9477 54.2656 56.7812 59.0992 56.7812 65.0469C56.7812 70.9945 51.9477 75.8281 46 75.8281Z" fill="#405BE7"/>
<path d="M59.4766 92H32.5234V89.3047C32.5234 81.8656 38.5609 75.8281 46 75.8281C53.4391 75.8281 59.4766 81.8656 59.4766 89.3047V92Z" fill="#405BE7"/>
<path d="M32.8289 33.1699L8.06797 44.634C7.52891 45.1191 0 47.8684 0 56.9605V91.9996H27.1328V53.6543L39.675 47.7785C34.3742 44.8676 31.6609 38.866 32.8289 33.1699Z" fill="#405BE7"/>
</g>
<defs>
<clipPath id="clip0_441_2889">
<rect width="92" height="92" fill="white"/>
</clipPath>
</defs>
</svg>
