<svg width="92" height="92" viewBox="0 0 92 92" fill="none" xmlns="http://www.w3.org/2000/svg">
<path d="M32.7528 69.4596C32.7528 63.2036 37.0768 58.0516 42.7808 56.5796V49.1276H29.4408V46.2773C29.4408 42.5234 26.3777 39.1437 22.6241 39.1001C18.7205 39.0548 15.6408 42.2005 15.6408 45.9996V49.1276H2.30078V82.0796C2.30078 86.288 5.71237 89.6996 9.92078 89.6996H42.8728V82.2476C37.0768 80.8676 32.7528 75.6236 32.7528 69.4596Z" fill="white"/>
<path d="M69.4616 59.2489C63.2976 59.2489 58.0536 54.9249 56.6736 49.2209H49.2216V62.5609H46.2601C42.8378 62.5609 39.7599 64.9435 39.1968 68.3192C38.4859 72.58 41.8545 76.3609 46.0016 76.3609H49.1296V89.7009H82.0816C86.29 89.7009 89.7016 86.2893 89.7016 82.0809V49.1289H82.2496C80.8696 54.9249 75.6255 59.2489 69.4616 59.2489Z" fill="white"/>
<path d="M49.1289 2.30078V9.75278C54.9249 11.2248 59.1569 16.3768 59.1569 22.6328C59.1569 28.8888 54.8329 34.0408 49.1289 35.5128V42.9648H62.4689V46.0008C62.4689 49.8648 65.5969 52.9008 69.3689 52.9008C73.2329 52.9008 76.2689 49.7728 76.2689 46.0008V42.8728H89.6089V10.0128C89.6089 5.80437 86.1973 2.39278 81.9889 2.39278H49.1289V2.30078Z" fill="white"/>
<path d="M22.5408 32.7528C28.7048 32.7528 33.9488 36.9848 35.3288 42.7808H42.7808V29.4408L45.7422 29.4408C49.1645 29.4408 52.2424 27.0582 52.8056 23.6825C53.5164 19.4217 50.1478 15.6408 46.0008 15.6408H42.8728V2.30078H9.92078C5.71237 2.30078 2.30078 5.71237 2.30078 9.92078V42.7808H9.75278C11.1328 37.0768 16.3768 32.7528 22.5408 32.7528Z" fill="white"/>
</svg>
