<svg width="92" height="92" viewBox="0 0 92 92" fill="none" xmlns="http://www.w3.org/2000/svg">
<g clip-path="url(#clip0_441_2909)">
<path d="M6.02778 20.1286C9.37435 27.9123 15.024 35.6112 22.9298 38.9296C23.8323 39.3056 24.857 39.5877 25.9098 39.8227C28.0155 36.6829 30.4314 34.1353 33.261 32.0485C35.6956 30.2624 38.2432 28.8617 40.8659 27.7618C40.1138 27.2353 39.3243 26.7559 38.497 26.3235C35.2068 24.6032 31.6441 23.0897 28.1752 21.4634C31.4372 22.3471 35.1786 22.6761 38.2995 23.8135C40.2454 24.5281 42.0409 25.5151 43.7142 26.6902C48.706 24.9886 53.9232 24.1708 59.131 23.5504C54.9103 16.5377 45.9045 10.9068 39.1174 8.35925C32.0294 5.69881 24.0014 5.3698 16.1144 4.55205C11.2826 4.05373 6.02769 2.24893 2.18289 0.143222C1.30864 -0.336202 0.377995 0.462839 0.67881 1.43109C2.5684 7.47551 3.52725 14.3191 6.02778 20.1286Z" fill="white"/>
<path d="M89.3642 19.2068C80.4713 24.0387 70.2717 24.6309 60.2791 25.7777C55.4004 26.3418 50.5684 27.0373 45.9715 28.4287C44.975 28.7294 43.9787 29.0679 43.0009 29.4439C40.0962 30.5532 37.2948 32.0103 34.6533 33.9562C32.1716 35.7798 30.1411 37.942 28.4302 40.3203C25.7041 44.118 23.8052 48.4892 22.2447 53.0297C19.3963 61.2739 18.0897 70.0351 18.3435 78.7495C18.4469 82.2841 18.5033 85.9596 19.3775 89.4096C19.5749 90.1711 19.7629 91.1392 20.3552 91.7032C21.126 92.4459 22.5079 91.6844 22.1977 90.6034C19.9604 82.9796 21.3516 74.068 24.4444 66.7826C27.9978 58.4067 34.8601 53.4245 43.2454 50.3882C45.4733 49.5798 47.7483 48.8747 50.0607 48.2073C50.1077 48.1886 50.1547 48.1886 50.2017 48.1886C50.6623 48.1886 50.8597 48.8653 50.3803 49.0816C47.6542 50.3131 44.9468 51.554 42.371 52.8982C29.7556 59.4786 24.2469 74.8014 28.9753 74.8014C29.3608 74.8014 29.812 74.698 30.329 74.4817C37.6238 71.4642 46.291 71.4361 54.3096 69.9508C57.1298 69.4338 59.8747 68.7287 62.4505 67.6571C72.6783 63.3893 79.9919 55.0416 84.3442 45.0019C87.5873 37.5097 88.847 28.6639 91.3005 20.8802C91.6202 19.8837 90.9151 19.0284 90.0503 19.0284C89.8343 19.0188 89.5992 19.0753 89.3642 19.2068Z" fill="white"/>
</g>
<defs>
<clipPath id="clip0_441_2909">
<rect width="92" height="92" fill="white"/>
</clipPath>
</defs>
</svg>
