<svg width="92" height="92" viewBox="0 0 92 92" fill="none" xmlns="http://www.w3.org/2000/svg">
<g clip-path="url(#clip0_441_2933)">
<path d="M10.9609 70.0091V78.3438H16.3516V70.0091C21.231 69.2162 27.1328 65.8632 27.1328 54.0859C27.1328 42.8309 22.0054 27.1328 13.6562 27.1328C5.30707 27.1328 0 42.8309 0 54.0859C0 65.8632 6.08152 69.2162 10.9609 70.0091Z" fill="white"/>
<path d="M78.3438 38.794V32.0451C82.9809 30.5386 86.4297 25.3075 86.4297 19.0469C86.4297 12.6428 82.6235 0 75.6484 0C68.6733 0 64.8672 12.6428 64.8672 19.0469C64.8672 25.3074 68.3159 30.5384 72.9531 32.0451V37.9142H46V32.0453C50.6372 30.5388 54.0859 25.3077 54.0859 19.0471C54.0859 12.643 50.2798 0.000179688 43.3047 0.000179688C36.3296 0.000179688 32.5234 12.643 32.5234 19.0471C32.5234 25.3075 35.9722 30.5386 40.6094 32.0453V37.9142H29.8732C31.0392 41.4275 31.8121 45.1486 32.207 48.6955H59.4766C62.4482 48.6955 64.8672 51.1144 64.8672 54.0861C64.8672 57.0578 62.4482 59.4767 59.4766 59.4767H54.0859C39.2249 59.4767 27.1328 71.7485 27.1328 86.6096V92.0002H59.4766V86.6096C59.4766 80.6635 64.3118 75.6486 70.2578 75.6486H72.9531C83.3554 75.6486 92 67.1837 92 56.7814C92 48.2648 86.1095 41.131 78.3438 38.794Z" fill="white"/>
</g>
<defs>
<clipPath id="clip0_441_2933">
<rect width="92" height="92" fill="white"/>
</clipPath>
</defs>
</svg>
