<svg width="36" height="36" viewBox="0 0 36 36" fill="none" xmlns="http://www.w3.org/2000/svg">
<g clip-path="url(#clip0_326_1561)">
<path d="M12.7812 23.2539V35.999H28.0728C28.8633 35.999 29.6248 35.882 30.3441 35.6683L12.7812 23.2539Z" fill="#E4E1DA"/>
<path d="M0 14.2207V28.0709C0 31.5243 2.18666 34.4471 5.25598 35.5395V17.936L0 14.2207Z" fill="#FFCCD5"/>
<path d="M5.25569 0.458984C3.01859 1.25517 1.25143 3.02421 0.457031 5.26189L5.25569 8.65376V0.458984Z" fill="#E4E1DA"/>
<path d="M12.7812 0V13.9731L35.7152 30.184C35.8999 29.5117 36.0012 28.8042 36.0012 28.0716V20.1274C31.6774 20.1219 28.4199 18.9139 26.1077 17.5947C24.949 16.9337 24.0262 16.2452 23.3216 15.6707C22.6171 15.0962 22.106 14.6225 21.8811 14.4579C20.4517 13.4125 19.0363 11.3552 17.9217 8.79638C16.807 6.23755 16.0198 3.17917 16.0198 0.152996C16.0198 0.101564 16.022 0.0511053 16.0226 0H12.7812Z" fill="#9DDF7B"/>
<path d="M0.659238 4.75195C0.236109 5.72364 0 6.79686 0 7.92783V14.8739L29.6622 35.8408C32.7855 35.2094 35.2305 32.7536 35.8477 29.6251L0.659238 4.75195Z" fill="#FCAB1A"/>
<path d="M0.457303 5.26367C0.161872 6.09625 0 6.993 0 7.92936V14.2223L30.344 35.671C32.9547 34.8961 34.9931 32.8194 35.715 30.1858L0.457303 5.26367Z" fill="#FFD634"/>
<path opacity="0.125" d="M7.92737 0C6.76375 0 5.66158 0.250423 4.66797 0.696933V35.3031C5.66158 35.7496 6.76375 36 7.92737 36H13.3659V0H7.92737Z" fill="black"/>
<path d="M7.93024 0C6.99138 0 6.09226 0.162618 5.25781 0.459561V35.5404C6.09226 35.8374 6.99138 36 7.93024 36H12.7818V0H7.93024Z" fill="white"/>
<path d="M16.0223 0C16.0217 0.0511053 16.0195 0.101553 16.0195 0.152996C16.0195 3.17917 16.8067 6.23755 17.9213 8.79638C19.036 11.3552 20.4514 13.4125 21.8808 14.4579C22.1057 14.6225 22.6168 15.0962 23.3213 15.6707C24.0259 16.2452 24.9487 16.9337 26.1074 17.5947C28.4196 18.9139 31.6771 20.122 36.0009 20.1274V19.0229C31.8818 19.0175 28.8324 17.8783 26.6547 16.6359C25.5633 16.0133 24.6919 15.3639 24.0185 14.8148C23.3452 14.2658 22.8947 13.8303 22.5335 13.5661C21.3967 12.7346 19.9948 10.7918 18.9333 8.35509C17.8718 5.91837 17.124 2.98636 17.124 0.152996C17.124 0.10151 17.1256 0.0510563 17.1267 0H16.0223Z" fill="#90C36C"/>
<path d="M16.573 0C16.5725 0.050942 16.5703 0.10138 16.5703 0.152714C16.5703 6.01225 19.6394 12.1349 22.2057 14.0119C23.3766 14.8683 27.5472 19.5642 35.9996 19.575V7.92843C35.9996 3.53601 32.4636 0 28.0712 0H16.573Z" fill="#F4EFEB"/>
<path d="M24.1797 0C24.2764 3.74726 25.2153 6.34343 27.5218 8.50725C28.6272 9.54429 29.7005 10.4428 31.2753 11.0509C32.4878 11.519 33.9768 11.8124 35.9994 11.923V10.6537C34.107 10.5447 32.7717 10.2697 31.7312 9.86793C30.3629 9.33959 29.4628 8.59084 28.388 7.5825C26.3189 5.6414 25.5301 3.52885 25.4456 0H24.1797Z" fill="#90C36C"/>
<path d="M24.8125 0C24.9033 3.63824 25.7673 5.99231 27.9549 8.04459C29.8792 9.84988 31.4832 11.035 35.9994 11.2885V7.92843C35.9994 3.53601 32.4634 0 28.071 0H24.8125Z" fill="#9DDF7B"/>
<path d="M7.92718 0C7.55656 0 7.19276 0.0272106 6.83594 0.0759375V15.4783C7.54788 15.2133 8.30123 15.0768 9.0609 15.0753C9.78921 15.078 10.5118 15.2046 11.1975 15.4499V0H7.92718Z" fill="#3394E3"/>
<path d="M27.0992 22.8263C26.9968 22.8296 26.8965 22.8602 26.8101 22.9155C25.9021 23.4951 24.8565 23.8027 23.7889 23.8042C23.0124 23.8037 22.2433 23.6406 21.5291 23.3258C21.2519 23.2038 20.921 23.3258 20.7883 23.5981C20.3241 24.5508 20.0814 25.5966 20.0781 26.6564V26.6584C20.0787 30.5348 23.2323 33.6891 27.1088 33.6891C30.9857 33.6891 34.1406 30.5344 34.1406 26.6575C34.1406 26.6572 34.1406 26.6568 34.1406 26.6564C34.139 25.5944 33.8963 24.5464 33.4316 23.5916C33.2987 23.3189 32.9659 23.1979 32.6885 23.3208C31.9754 23.6371 31.208 23.8016 30.4318 23.8042C29.3688 23.7999 28.3276 23.4929 27.4235 22.9158C27.3754 22.885 27.3163 22.8861 27.2618 22.871C27.2134 22.8401 27.1567 22.8245 27.0992 22.8263Z" fill="#0078D9"/>
<path d="M27.1049 23.1113C27.0536 23.113 27.0038 23.1284 26.9606 23.156C26.0071 23.7647 24.9076 24.0875 23.7853 24.089C22.9692 24.0884 22.1616 23.9177 21.4115 23.5872C21.3442 23.5575 21.2679 23.5551 21.1988 23.5804C21.1297 23.6058 21.0731 23.6569 21.0408 23.723C20.5955 24.6372 20.3625 25.6402 20.3594 26.657C20.3594 26.6574 20.3594 26.6578 20.3594 26.6582C20.3594 30.3809 23.3833 33.4048 27.106 33.4048C30.8287 33.4048 33.8526 30.3809 33.8526 26.6582V26.6576C33.851 25.6387 33.6182 24.6334 33.1723 23.7172C33.14 23.6509 33.0832 23.5997 33.014 23.5745C32.9448 23.5492 32.8684 23.5517 32.801 23.5816C32.0514 23.9142 31.2438 24.0868 30.4273 24.0892C29.3102 24.0849 28.2162 23.7622 27.2672 23.1563C27.2188 23.1254 27.1622 23.1098 27.1049 23.1116V23.1113Z" fill="white"/>
<path d="M27.1162 23.3965C26.1173 24.0341 24.9643 24.3727 23.7873 24.3741C22.9317 24.3735 22.0851 24.1945 21.2991 23.8482C21.0253 24.4123 20.8351 25.0132 20.7344 25.6321H33.4786C33.38 25.0114 33.1914 24.4083 32.9187 23.842C32.1328 24.1906 31.2859 24.3717 30.4296 24.3741C29.2579 24.3698 28.1106 24.0313 27.1162 23.3965Z" fill="#DE1C25"/>
<path d="M20.6839 26.082C20.6635 26.2735 20.6517 26.4658 20.6484 26.6583C20.6484 28.3721 21.3293 30.0158 22.5411 31.2276C23.753 32.4395 25.3966 33.1203 27.1104 33.1203C27.959 33.1203 28.7993 32.9532 29.5833 32.6284C30.3673 32.3037 31.0797 31.8277 31.6797 31.2276C32.2798 30.6276 32.7558 29.9152 33.0805 29.1312C33.4053 28.3472 33.5724 27.5069 33.5724 26.6583C33.571 26.4659 33.5611 26.2736 33.5426 26.082H20.6839Z" fill="#0078D9"/>
<path d="M25.2477 29.8261V30.4567H22.5859C22.6148 30.2183 22.7012 29.9928 22.8454 29.7802C22.9895 29.566 23.2741 29.2825 23.6993 28.9298C24.0416 28.6447 24.2515 28.4514 24.3289 28.35C24.4334 28.2098 24.4857 28.0713 24.4857 27.9344C24.4857 27.783 24.4397 27.6671 24.3478 27.5865C24.2578 27.5044 24.1326 27.4633 23.9722 27.4633C23.8137 27.4633 23.6876 27.506 23.5939 27.5914C23.5002 27.6767 23.4462 27.8185 23.4318 28.0166L22.6751 27.9489C22.7202 27.5753 22.8616 27.3071 23.0994 27.1444C23.3372 26.9817 23.6344 26.9004 23.9911 26.9004C24.3821 26.9004 24.6892 26.9946 24.9126 27.1831C25.136 27.3715 25.2477 27.6059 25.2477 27.8861C25.2477 28.0456 25.2153 28.1978 25.1504 28.3427C25.0874 28.4861 24.9865 28.6367 24.8478 28.7945C24.7559 28.8992 24.5901 29.0498 24.3505 29.2463C24.1109 29.4428 23.9587 29.5733 23.8939 29.6377C23.8308 29.7021 23.7795 29.7649 23.7398 29.8261H25.2477Z" fill="white"/>
<path d="M26.4121 28.5457C26.2157 28.4716 26.0725 28.3701 25.9824 28.2413C25.8941 28.1108 25.85 27.9682 25.85 27.8136C25.85 27.5495 25.9527 27.3312 26.158 27.1589C26.3652 26.9866 26.6589 26.9004 27.039 26.9004C27.4155 26.9004 27.7074 26.9866 27.9145 27.1589C28.1235 27.3312 28.228 27.5495 28.228 27.8136C28.228 27.9779 28.1803 28.1245 28.0848 28.2533C27.9893 28.3806 27.8551 28.478 27.6821 28.5457C27.9019 28.6246 28.0686 28.7397 28.1821 28.8912C28.2974 29.0426 28.355 29.2173 28.355 29.4154C28.355 29.7424 28.2379 30.0081 28.0037 30.2127C27.7713 30.4172 27.4615 30.5195 27.0741 30.5195C26.7138 30.5195 26.4139 30.435 26.1743 30.2658C25.8914 30.0661 25.75 29.7923 25.75 29.4444C25.75 29.2527 25.8031 29.0772 25.9094 28.9177C26.0157 28.7567 26.1833 28.6326 26.4121 28.5457ZM26.5688 27.8619C26.5688 27.9972 26.6111 28.1027 26.6958 28.1784C26.7823 28.2541 26.8967 28.292 27.039 28.292C27.1831 28.292 27.2984 28.2541 27.3849 28.1784C27.4714 28.1011 27.5146 27.9948 27.5146 27.8595C27.5146 27.7323 27.4714 27.6308 27.3849 27.5551C27.3002 27.4778 27.1876 27.4392 27.0471 27.4392C26.9012 27.4392 26.785 27.4778 26.6985 27.5551C26.612 27.6324 26.5688 27.7347 26.5688 27.8619ZM26.4985 29.3792C26.4985 29.566 26.5517 29.7118 26.658 29.8165C26.7661 29.9212 26.9003 29.9735 27.0606 29.9735C27.2173 29.9735 27.3471 29.9236 27.4497 29.8237C27.5524 29.7222 27.6038 29.5765 27.6038 29.3864C27.6038 29.2205 27.5515 29.0876 27.447 28.9878C27.3426 28.8863 27.2101 28.8356 27.0498 28.8356C26.8642 28.8356 26.7255 28.8928 26.6337 29.0071C26.5436 29.1215 26.4985 29.2455 26.4985 29.3792Z" fill="white"/>
<path d="M30.13 26.9004C30.5138 26.9004 30.8137 27.0228 31.0299 27.2676C31.2875 27.5575 31.4163 28.0383 31.4163 28.71C31.4163 29.38 31.2866 29.8616 31.0272 30.1547C30.8128 30.3963 30.5138 30.5171 30.13 30.5171C29.7445 30.5171 29.4338 30.385 29.1978 30.1209C28.9618 29.8551 28.8438 29.3824 28.8438 28.7027C28.8438 28.0359 28.9735 27.5559 29.2329 27.2628C29.4473 27.0212 29.7463 26.9004 30.13 26.9004ZM30.13 27.4633C30.0382 27.4633 29.9562 27.4899 29.8841 27.543C29.8121 27.5946 29.7562 27.688 29.7166 27.8233C29.6643 27.9989 29.6382 28.2944 29.6382 28.71C29.6382 29.1255 29.6616 29.4114 29.7085 29.5676C29.7553 29.7222 29.8139 29.8253 29.8841 29.8769C29.9562 29.9284 30.0382 29.9542 30.13 29.9542C30.2219 29.9542 30.3039 29.9284 30.376 29.8769C30.448 29.8237 30.5039 29.7295 30.5435 29.5942C30.5957 29.4202 30.6219 29.1255 30.6219 28.71C30.6219 28.2944 30.5984 28.0093 30.5516 27.8547C30.5048 27.6985 30.4453 27.5946 30.3733 27.543C30.303 27.4899 30.2219 27.4633 30.13 27.4633Z" fill="white"/>
<path d="M9.0633 27.904C12.6061 27.904 15.4782 25.0319 15.4782 21.4891C15.4782 17.9463 12.6061 15.0742 9.0633 15.0742C5.52047 15.0742 2.64844 17.9463 2.64844 21.4891C2.64844 25.0319 5.52047 27.904 9.0633 27.904Z" fill="#0179DA"/>
<path d="M9.03378 17.5105C9.02942 17.5108 9.02502 17.5121 9.02055 17.5127C9.00902 17.5137 8.99774 17.5159 8.98626 17.5183C8.96977 17.5215 8.9535 17.5247 8.93761 17.5298C8.9338 17.5309 8.93037 17.5309 8.92694 17.5325C8.92134 17.5347 8.91643 17.5374 8.91093 17.5398C8.8945 17.5463 8.87861 17.5535 8.8631 17.562C8.85303 17.5675 8.84356 17.5735 8.83415 17.5798C8.82261 17.5874 8.81161 17.5952 8.80095 17.6039C8.78974 17.6131 8.77928 17.6227 8.76916 17.6329C8.76083 17.6414 8.75289 17.6501 8.74527 17.6593C8.73531 17.6712 8.72644 17.6836 8.718 17.6964C8.71207 17.7055 8.70635 17.7145 8.70113 17.724C8.6928 17.7391 8.68583 17.7547 8.67947 17.7707C8.67729 17.7765 8.67375 17.7815 8.67158 17.7876L8.08686 19.4796C8.08523 19.4817 8.08468 19.4839 8.08359 19.4863L7.64627 20.7522L7.35039 21.6081L6.21666 24.89C6.1489 25.0392 6.17389 25.2199 6.29484 25.3456C6.36304 25.4164 6.45025 25.4559 6.54039 25.4674C6.54039 25.4674 6.54202 25.4677 6.54202 25.4677C6.56602 25.4704 6.58992 25.4715 6.61402 25.4704C6.6211 25.4701 6.62783 25.4693 6.6348 25.4687C6.65211 25.4671 6.6692 25.4644 6.68629 25.4603C6.69739 25.4576 6.70817 25.4547 6.71894 25.4513C6.73206 25.447 6.7448 25.4426 6.75748 25.437C6.77174 25.4309 6.78535 25.4238 6.79885 25.4162C6.80647 25.4118 6.8142 25.4074 6.82166 25.4024C6.84 25.3904 6.85687 25.3765 6.87314 25.3616C6.87478 25.36 6.87695 25.3589 6.87907 25.3573L6.90243 25.3351V25.334L9.06158 23.2555L11.2207 25.334C11.2229 25.3362 11.2251 25.3378 11.2269 25.3402L11.2446 25.3571C11.2462 25.3587 11.2484 25.3598 11.2505 25.3614C11.2668 25.3763 11.2837 25.3902 11.302 25.4022C11.3095 25.4071 11.3171 25.4115 11.3248 25.4159C11.3382 25.4236 11.3519 25.4306 11.3662 25.4367C11.3789 25.4423 11.3917 25.4469 11.4047 25.4511C11.4155 25.4544 11.4263 25.4576 11.4373 25.4601C11.4542 25.4639 11.4711 25.4667 11.4882 25.4685C11.4954 25.4691 11.5024 25.4702 11.5096 25.4702C11.5337 25.4712 11.5577 25.4706 11.5816 25.4674C11.5816 25.4674 11.5832 25.4672 11.5832 25.4672C11.6734 25.4557 11.7606 25.4162 11.8288 25.3454C11.9497 25.2197 11.9747 25.039 11.907 24.8897L10.0397 19.4861C10.0397 19.4845 10.0381 19.4828 10.0376 19.4812L9.45228 17.7875C9.4501 17.7808 9.44603 17.7751 9.44331 17.7687C9.43738 17.7539 9.43089 17.7394 9.42333 17.7253C9.41772 17.7151 9.41168 17.7054 9.40531 17.6958C9.39693 17.6832 9.38827 17.6711 9.37858 17.6595C9.37053 17.6498 9.3621 17.6408 9.35329 17.632C9.34393 17.6225 9.33412 17.6135 9.32372 17.605C9.31235 17.5956 9.30054 17.5872 9.2883 17.5791C9.2791 17.5731 9.26996 17.5673 9.26016 17.562C9.24487 17.5535 9.22914 17.5465 9.21292 17.54C9.20732 17.5379 9.20242 17.5344 9.1966 17.5325C9.19279 17.5314 9.18952 17.5308 9.18593 17.5297C9.17009 17.5248 9.15397 17.5213 9.13753 17.5182C9.126 17.516 9.11468 17.5139 9.10325 17.5126C9.0897 17.5115 9.07598 17.511 9.06216 17.511C9.05296 17.5109 9.0435 17.5093 9.03436 17.5099L9.03378 17.5105Z" fill="white"/>
<path opacity="0.24" d="M35.7129 30.1836C35.7032 30.2185 35.6937 30.2535 35.6836 30.2882C35.6937 30.2536 35.7044 30.2193 35.714 30.1844L35.7129 30.1836Z" fill="black"/>
<path opacity="0.24" d="M30.3438 35.6694L30.3454 35.6705C30.4211 35.648 30.4965 35.6243 30.5712 35.5996C30.4962 35.6243 30.4202 35.6471 30.3442 35.6696L30.3438 35.6694Z" fill="black"/>
</g>
<defs>
<clipPath id="clip0_326_1561">
<rect width="36" height="36" fill="white"/>
</clipPath>
</defs>
</svg>
