<svg width="14" height="14" viewBox="0 0 14 14" fill="none" xmlns="http://www.w3.org/2000/svg">
<path d="M1.35166 4H12.6489C12.7867 4 12.9179 3.94325 13.0124 3.84325C13.1069 3.74325 13.1559 3.60875 13.1482 3.47125L13.1419 3.3415C13.0607 2.0285 11.9632 1 10.6429 1H10.0004V0.5C10.0004 0.224 9.77641 0 9.50041 0C9.22441 0 9.00041 0.224 9.00041 0.5V1H5.00041V0.5C5.00041 0.224 4.77641 0 4.50041 0C4.22441 0 4.00041 0.224 4.00041 0.5V1H3.35791C2.03766 1 0.939905 2.02875 0.858655 3.3425L0.852405 3.4715C0.844405 3.60875 0.893655 3.74325 0.987905 3.8435C1.08216 3.94375 1.21416 4 1.35166 4Z" fill="#191B1A"/>
<path d="M13.2258 5.4875C13.2193 5.21625 12.9973 5 12.7261 5H1.27356C1.00231 5 0.780558 5.21625 0.773558 5.4875C0.728808 7.27875 0.760558 9.06375 0.868058 10.7935C0.946058 12.0485 1.95131 13.0535 3.20581 13.1315C4.46481 13.2105 5.73231 13.25 6.99981 13.25C8.26706 13.25 9.53506 13.2105 10.7933 13.1313C12.0483 13.0533 13.0533 12.048 13.1316 10.7933C13.2391 9.06375 13.2708 7.2785 13.2258 5.4875ZM9.49981 8C9.08556 8 8.74981 7.66425 8.74981 7.25C8.74981 6.83575 9.08556 6.5 9.49981 6.5C9.91406 6.5 10.2498 6.83575 10.2498 7.25C10.2498 7.66425 9.91406 8 9.49981 8ZM10.2498 9.75C10.2498 10.1642 9.91406 10.5 9.49981 10.5C9.08556 10.5 8.74981 10.1642 8.74981 9.75C8.74981 9.33575 9.08556 9 9.49981 9C9.91406 9 10.2498 9.33575 10.2498 9.75ZM4.49981 9C4.91406 9 5.24981 9.33575 5.24981 9.75C5.24981 10.1642 4.91406 10.5 4.49981 10.5C4.08556 10.5 3.74981 10.1642 3.74981 9.75C3.74981 9.33575 4.08556 9 4.49981 9ZM3.74981 7.25C3.74981 6.83575 4.08556 6.5 4.49981 6.5C4.91406 6.5 5.24981 6.83575 5.24981 7.25C5.24981 7.66425 4.91406 8 4.49981 8C4.08556 8 3.74981 7.66425 3.74981 7.25ZM6.24981 9.75C6.24981 9.33575 6.58556 9 6.99981 9C7.41406 9 7.74981 9.33575 7.74981 9.75C7.74981 10.1642 7.41406 10.5 6.99981 10.5C6.58556 10.5 6.24981 10.1642 6.24981 9.75ZM6.99981 8C6.58556 8 6.24981 7.66425 6.24981 7.25C6.24981 6.83575 6.58556 6.5 6.99981 6.5C7.41406 6.5 7.74981 6.83575 7.74981 7.25C7.74981 7.66425 7.41406 8 6.99981 8Z" fill="#191B1A"/>
</svg>
