<svg width="24" height="24" viewBox="0 0 24 24" fill="none" xmlns="http://www.w3.org/2000/svg">
<path d="M11.9961 1.00195C9.8205 1.00195 7.69377 1.64709 5.88483 2.85579C4.07589 4.06448 2.66599 5.78245 1.83342 7.79244C1.00086 9.80242 0.783023 12.0142 1.20746 14.1479C1.6319 16.2817 2.67955 18.2418 4.21792 19.7801C5.7563 21.3185 7.71631 22.3662 9.85011 22.7906C11.9839 23.215 14.1956 22.9972 16.2056 22.1646C18.2156 21.3321 19.9336 19.9222 21.1423 18.1132C22.351 16.3043 22.9961 14.1775 22.9961 12.002C22.9927 9.08563 21.8326 6.28973 19.7705 4.22758C17.7083 2.16542 14.9124 1.00539 11.9961 1.00195ZM15.7031 15.709C15.5156 15.8964 15.2613 16.0017 14.9961 16.0017C14.7309 16.0017 14.4766 15.8964 14.2891 15.709L11.2891 12.709C11.1015 12.5215 10.9962 12.2671 10.9961 12.002V6.00195C10.9961 5.73674 11.1015 5.48238 11.289 5.29485C11.4765 5.10731 11.7309 5.00195 11.9961 5.00195C12.2613 5.00195 12.5157 5.10731 12.7032 5.29485C12.8907 5.48238 12.9961 5.73674 12.9961 6.00195V11.588L15.7031 14.295C15.8906 14.4825 15.9959 14.7368 15.9959 15.002C15.9959 15.2671 15.8906 15.5214 15.7031 15.709Z" fill="#656D7A"/>
</svg>
