<svg width="140" height="140" viewBox="0 0 140 140" fill="none" xmlns="http://www.w3.org/2000/svg">
<path d="M137.748 75.0963C137.964 80.265 136.122 85.3086 132.624 89.1204C129.126 92.9322 124.26 95.201 119.091 95.4291C118.789 95.4431 118.487 95.4501 118.186 95.4501C116.813 95.4492 115.444 95.3006 114.103 95.0069C110.122 101.152 104.903 106.399 98.7791 110.412C92.655 114.425 85.7608 117.116 78.5373 118.312C77.6829 120.822 75.9785 122.955 73.7185 124.341C71.4585 125.728 68.7851 126.281 66.1604 125.906C63.5357 125.53 61.1247 124.249 59.3441 122.285C57.5635 120.32 56.5252 117.795 56.4088 115.147C56.2923 112.498 57.105 109.891 58.7064 107.778C60.3077 105.665 62.5971 104.178 65.1787 103.573C67.7603 102.969 70.472 103.286 72.8449 104.469C75.2178 105.652 77.1029 107.626 78.1742 110.052C88.3438 108.171 97.531 102.781 104.134 94.8217C110.738 86.8624 114.339 76.8381 114.31 66.4961C114.31 42.0631 94.4328 22.1855 69.9998 22.1855C45.5668 22.1855 25.6892 42.0631 25.6892 66.4961C25.6879 74.0512 27.6188 81.4811 31.2983 88.0796C31.423 88.2974 31.5166 88.5315 31.5764 88.7752C31.9318 89.7631 31.8938 90.8497 31.4702 91.8103C31.0467 92.7709 30.2701 93.5319 29.3011 93.9358C26.9283 94.9344 24.3799 95.4486 21.8056 95.4482C21.5026 95.4482 21.199 95.4412 20.8948 95.4272C15.7287 95.1962 10.865 92.9261 7.37015 89.1145C3.87531 85.3029 2.03457 80.261 2.25155 75.0943C2.33877 73.034 2.2901 71.1957 2.24252 69.4181C2.19823 67.7443 2.15202 66.0135 2.22803 64.2074C2.4549 59.1627 4.62497 54.4013 8.28373 50.9207C11.9425 47.4401 16.8061 45.5102 21.8559 45.5352C29.965 26.9819 48.4912 13.9824 69.9998 13.9824C91.5084 13.9824 110.035 26.9819 118.144 45.5355C123.194 45.5067 128.059 47.4349 131.719 50.9156C135.378 54.3963 137.547 59.159 137.771 64.2044C137.848 66.0132 137.802 67.7438 137.757 69.4175C137.71 71.1954 137.661 73.0345 137.748 75.0963ZM104.4 66.4961C104.398 71.7662 103.185 76.9654 100.856 81.6928C98.5267 86.4202 95.1428 90.5495 90.9652 93.7623C86.7877 96.975 81.928 99.1853 76.7611 100.223C71.5941 101.26 66.2579 101.097 61.1639 99.7461L47.2402 107.787C46.5377 108.193 45.7306 108.381 44.9211 108.328C44.1115 108.275 43.3359 107.983 42.6922 107.489C42.0486 106.995 41.5659 106.322 41.3051 105.554C41.0444 104.785 41.0173 103.957 41.2273 103.173L44.7858 89.8985C38.8927 83.5288 35.6138 75.1738 35.6014 66.4961C35.6014 47.5228 51.0317 32.0884 69.9998 32.0884C88.9679 32.0884 104.4 47.5228 104.4 66.4961ZM60.4363 66.4961C60.4363 65.4083 60.0042 64.3651 59.235 63.5959C58.4658 62.8267 57.4226 62.3945 56.3348 62.3945H56.3279C55.517 62.396 54.7248 62.6379 54.0513 63.0895C53.3778 63.5411 52.8533 64.1822 52.544 64.9318C52.2348 65.6814 52.1546 66.5058 52.3138 67.301C52.4729 68.0961 52.8641 68.8262 53.438 69.399C54.012 69.9719 54.7428 70.3618 55.5382 70.5194C56.3336 70.677 57.1579 70.5954 57.9069 70.2847C58.656 69.974 59.2961 69.4483 59.7464 68.774C60.1968 68.0997 60.4371 67.307 60.4371 66.4961H60.4363ZM74.1022 66.4961C74.1018 66.3618 74.0945 66.2277 74.0803 66.0941C74.0674 65.9601 74.0474 65.8269 74.0204 65.6949C73.9959 65.5635 73.9629 65.4338 73.9217 65.3066C73.8837 65.1781 73.8372 65.0523 73.788 64.9266C73.7388 64.8008 73.6786 64.6832 73.6157 64.5656C73.5533 64.4474 73.4848 64.3324 73.4107 64.2211C73.3359 64.1086 73.2555 64 73.1697 63.8957C73.0855 63.7912 72.9952 63.6917 72.8993 63.5977C72.8064 63.502 72.7052 63.4117 72.6013 63.3242C72.4971 63.2422 72.3877 63.1602 72.2756 63.0863C72.1644 63.0122 72.0495 62.9437 71.9314 62.8813C71.8135 62.8184 71.6907 62.7609 71.5674 62.709C71.4443 62.6574 71.3184 62.6127 71.1903 62.575C70.9346 62.4929 70.6704 62.4397 70.4028 62.4164C70.0011 62.3777 69.5959 62.3971 69.1997 62.4738C69.0678 62.5008 68.9374 62.5345 68.809 62.575C68.6808 62.6126 68.5548 62.6573 68.4316 62.709C68.3086 62.7609 68.1855 62.8184 68.068 62.8813C67.9504 62.9441 67.8355 63.0125 67.7232 63.0863C67.6108 63.1602 67.5017 63.2422 67.4008 63.3242C67.2941 63.4117 67.1957 63.502 67.1 63.5977C67.004 63.6917 66.9135 63.7912 66.829 63.8957C66.7443 64.0001 66.665 64.1087 66.5914 64.2211C66.5162 64.3323 66.4469 64.4473 66.3836 64.5656C66.3205 64.6828 66.2638 64.8033 66.2138 64.9266C66.1619 65.0509 66.1162 65.1777 66.0771 65.3066C66.0391 65.4324 66.0062 65.5637 65.9789 65.6949C65.9519 65.8269 65.9317 65.9601 65.9185 66.0941C65.9051 66.2281 65.8993 66.3621 65.8993 66.4961C65.8993 66.6301 65.9051 66.7668 65.9185 66.9008C65.9319 67.0339 65.9521 67.1662 65.9789 67.2973C66.0062 67.4285 66.0391 67.5598 66.0771 67.6883C66.1162 67.8163 66.1619 67.9422 66.2138 68.0656C66.2638 68.1898 66.3205 68.3112 66.3836 68.4293C66.4462 68.5469 66.5176 68.6617 66.5914 68.7738C66.665 68.8854 66.7444 68.9931 66.829 69.0965C66.9142 69.2012 67.0047 69.3016 67.1 69.3973C67.1957 69.4902 67.2941 69.5832 67.4008 69.668C67.5036 69.7534 67.6112 69.8328 67.7232 69.9059C67.8355 69.9797 67.9501 70.0508 68.068 70.1137C68.3054 70.2375 68.5534 70.3399 68.809 70.4199C68.9372 70.4582 69.0685 70.491 69.1997 70.5184C69.4633 70.5723 69.7318 70.5989 70.0009 70.5977C71.0874 70.5948 72.1289 70.1634 72.8993 69.3973C73.0883 69.2054 73.2595 68.9967 73.4107 68.7738C73.4845 68.6617 73.5528 68.5469 73.6157 68.4293C73.6786 68.3117 73.736 68.1887 73.788 68.0656C73.84 67.9426 73.8837 67.8141 73.9217 67.6883C73.9626 67.5601 73.9956 67.4295 74.0204 67.2973C74.0472 67.1662 74.0672 67.0339 74.0803 66.9008C74.0943 66.7662 74.1013 66.6309 74.1014 66.4956L74.1022 66.4961ZM87.774 66.4961C87.774 65.4083 87.3419 64.3651 86.5727 63.5959C85.8035 62.8267 84.7603 62.3945 83.6725 62.3945H83.6646C82.8537 62.3961 82.0615 62.638 81.388 63.0896C80.7146 63.5413 80.1901 64.1824 79.8809 64.932C79.5716 65.6816 79.4916 66.506 79.6507 67.3011C79.8099 68.0962 80.2011 68.8263 80.775 69.3991C81.349 69.972 82.0798 70.3618 82.8752 70.5194C83.6706 70.677 84.4949 70.5954 85.2439 70.2847C85.9929 69.974 86.633 69.4483 87.0834 68.774C87.5337 68.0997 87.774 67.307 87.774 66.4961Z" fill="#F6F6F6"/>
</svg>
