<svg width="18" height="18" viewBox="0 0 18 18" fill="none" xmlns="http://www.w3.org/2000/svg">
<mask id="mask0_4073_4689" style="mask-type:luminance" maskUnits="userSpaceOnUse" x="0" y="0" width="18" height="18">
<path d="M17.168 0.5H0.167969V17.5H17.168V0.5Z" fill="white"/>
</mask>
<g mask="url(#mask0_4073_4689)">
<path d="M6.49756 7.8441C6.74583 7.8441 6.9471 7.64283 6.9471 7.39456V4.98623C6.9471 4.03548 7.3108 3.12698 7.95307 2.45974C8.59477 1.79308 9.46137 1.42188 10.3612 1.42188H12.2299V3.73392H10.3612C10.0314 3.73392 9.7187 3.8702 9.49092 4.10684C9.26371 4.34289 9.13894 4.65951 9.13894 4.98623V7.39456C9.13894 7.64283 9.3402 7.8441 9.58847 7.8441H12.1089L11.5525 10.1562H9.58847C9.3402 10.1562 9.13894 10.3574 9.13894 10.6057V16.5784H6.9471V10.6057C6.9471 10.3574 6.74583 10.1562 6.49756 10.1562H4.62891V7.8441H6.49756Z" fill="#405BE7" stroke="#405BE7" stroke-width="0.899069" stroke-linecap="round" stroke-linejoin="round"/>
</g>
</svg>
