<svg width="16" height="16" viewBox="0 0 16 16" fill="none" xmlns="http://www.w3.org/2000/svg">
<path fill-rule="evenodd" clip-rule="evenodd" d="M1.28502 2.55984L6.0936 7.3705C7.14237 8.41725 8.85673 8.41815 9.90636 7.3705L14.7149 2.55984C14.7634 2.51141 14.7563 2.43166 14.7001 2.39248C14.2097 2.05044 13.613 1.84766 12.9702 1.84766H3.02984C2.38701 1.84766 1.79029 2.05047 1.29983 2.39248C1.24365 2.43166 1.2366 2.51141 1.28502 2.55984ZM0 4.87746C0 4.37199 0.125325 3.8944 0.346077 3.47462C0.380598 3.40895 0.4681 3.39567 0.520559 3.44813L5.26827 8.19584C6.77171 9.70147 9.22738 9.70234 10.7317 8.19584L15.4794 3.44813C15.5319 3.39567 15.6194 3.40895 15.6539 3.47462C15.8746 3.8944 16 4.37202 16 4.87746V11.2023C16 12.8743 14.64 14.2322 12.9702 14.2322H3.02984C1.36004 14.2322 0 12.8743 0 11.2023V4.87746Z" fill="#405BE7"/>
</svg>
