<svg width="16" height="16" viewBox="0 0 16 16" fill="none" xmlns="http://www.w3.org/2000/svg">
<path d="M1.91669 7.45696C1.66048 7.53703 1.38825 7.48899 1.16406 7.32885C0.939873 7.15271 0.731699 6.92852 0.555551 6.64028C0.507511 6.5442 0.459471 6.44812 0.443457 6.35204C0.395417 5.99974 0.379404 5.63143 0.427444 5.26313C0.507511 4.46246 0.955886 3.74185 1.61244 3.27746C3.30986 2.07646 5.55173 1.33984 8.00178 1.33984C10.4518 1.33984 12.6937 2.07646 14.3911 3.29348C15.0477 3.75787 15.496 4.47847 15.5761 5.27914C15.6081 5.64745 15.6081 6.01576 15.5601 6.36805C15.5441 6.46413 15.5121 6.57622 15.448 6.65629C15.2719 6.94453 15.0637 7.16872 14.8395 7.34487C14.6313 7.505 14.3431 7.55304 14.0869 7.47297C13.1741 7.20075 12.3254 6.89649 11.6048 6.5442C11.3486 6.41609 11.1724 6.1919 11.1244 5.90366C11.0443 5.39123 11.0123 4.86279 11.0443 4.33435C10.0835 4.07813 9.05867 3.93401 7.98577 3.93401C6.91287 3.93401 5.88801 4.07813 4.92721 4.33435C4.95924 4.86279 4.94322 5.39123 4.84714 5.90366C4.7991 6.17589 4.62295 6.41609 4.36674 6.5442C3.66215 6.88048 2.82945 7.18473 1.91669 7.45696Z" fill="#405BE7"/>
<path d="M14.6508 11.9874L14.2024 10.306C14.0743 9.8096 13.706 9.40927 13.2096 9.24913C12.489 9.00893 11.8645 8.75272 11.304 8.4965C10.6475 8.17623 10.1831 7.56773 10.071 6.86314V6.84712C9.99091 6.31868 9.55855 5.91835 9.03011 5.87031C8.67781 5.83828 8.34153 5.82227 7.98923 5.82227C7.63694 5.82227 7.28464 5.83828 6.94836 5.87031C6.41992 5.91835 6.00357 6.31868 5.90749 6.84712V6.86314C5.77939 7.58374 5.33101 8.19225 4.67446 8.4965C4.11399 8.75272 3.48947 9.00893 2.76887 9.24913C2.28847 9.40927 1.90414 9.8096 1.77604 10.306L1.35969 11.9874C1.00739 13.3325 2.01624 14.6617 3.42542 14.6617H12.6011C13.9943 14.6617 15.0031 13.3325 14.6508 11.9874ZM8.00525 13.2525C6.67614 13.2525 5.60324 12.1796 5.60324 10.8505C5.60324 9.52136 6.67614 8.44846 8.00525 8.44846C9.33436 8.44846 10.4073 9.52136 10.4073 10.8505C10.4073 12.1636 9.33436 13.2525 8.00525 13.2525Z" fill="#405BE7"/>
</svg>
