<svg width="27" height="36" viewBox="0 0 27 36" fill="none" xmlns="http://www.w3.org/2000/svg">
<path d="M8.07812 26.6364C9.15695 27.9805 10.2557 29.6705 10.8307 30.6913C11.5309 32.0184 11.8213 32.9144 12.3422 34.5194C12.6467 35.3984 12.9371 35.665 13.5462 35.665C14.2123 35.665 14.5169 35.2169 14.7503 34.5194C15.2371 33.0137 15.6128 31.8681 16.2077 30.7764C18.502 26.4663 22.2423 23.4039 24.3487 19.2072C24.3487 19.2072 25.7349 16.6438 25.7349 13.054C25.7349 9.70799 24.3686 7.38281 24.3686 7.38281L8.08666 26.6648L8.07812 26.6364Z" fill="#34A853"/>
<path d="M2.55508 18.754C3.86732 21.7313 6.36938 24.3401 8.07728 26.6369L17.1291 15.9467C17.1291 15.9467 15.851 17.6141 13.5425 17.6141C10.9693 17.6141 8.8743 15.5724 8.8743 12.992C8.8743 11.217 9.93604 9.98633 9.93604 9.98633C3.27524 10.9731 3.64529 12.5809 2.53516 18.7483L2.55508 18.754Z" fill="#FBBC04"/>
<path d="M17.2433 1.39062C20.2606 2.35756 22.8225 4.39635 24.3596 7.37371L17.1295 15.9655C17.1295 15.9655 18.1912 14.7292 18.1912 12.9598C18.1912 10.3256 15.9596 8.33781 13.5514 8.33781C11.2657 8.33781 9.96484 9.98529 9.96484 9.98529C10.5199 8.72629 16.2556 1.8188 17.2519 1.39346L17.2433 1.39062Z" fill="#4285F4"/>
<path d="M4.20703 5.17048C6.00601 3.03812 9.15993 0.832031 13.5151 0.832031C15.6186 0.832031 17.2155 1.38781 17.2155 1.38781L9.95695 9.97963C9.46735 9.71507 4.69093 6.00981 4.20703 5.15914V5.17048Z" fill="#1A73E8"/>
<path d="M2.55418 18.7533C2.55418 18.7533 1.36719 16.4055 1.36719 13.0254C1.36719 9.82123 2.62534 7.01399 4.21368 5.19922L9.9636 10.0197L2.56271 18.7533H2.55418Z" fill="#EA4335"/>
</svg>
