<svg width="24" height="24" viewBox="0 0 24 24" fill="none" xmlns="http://www.w3.org/2000/svg">
<g clip-path="url(#clip0_326_1541)">
<path d="M7.67969 9.89453H16.3184V14.1522H7.67969V9.89453Z" fill="#313131"/>
<path d="M22.7478 8.73828H22.1484V15.017H22.7478C23.4404 15.0161 24.0018 14.4549 24.0025 13.762V9.99278C24.0016 9.30014 23.4402 8.73892 22.7478 8.73828Z" fill="#313131"/>
<path d="M19.7942 6.08203H17.4141V17.9656H19.7942C20.4868 17.9647 21.0483 17.4035 21.0489 16.7109V7.33674C21.0483 6.6441 20.4868 6.08289 19.7942 6.08203Z" fill="#313131"/>
<path d="M2.94922 7.33674V16.7109C2.94986 17.4035 3.51129 17.965 4.20393 17.9656H6.58406V6.08203H4.20393C3.51129 6.08289 2.94986 6.6441 2.94922 7.33674Z" fill="#313131"/>
<path d="M0 9.99104V13.7601C0.000642126 14.4529 0.562072 15.0142 1.25471 15.015H1.85402V8.73633H1.25471C0.562072 8.73697 0.000856164 9.2984 0 9.99104Z" fill="#313131"/>
</g>
<defs>
<clipPath id="clip0_326_1541">
<rect width="24" height="24" fill="white"/>
</clipPath>
</defs>
</svg>
