<svg width="24" height="24" viewBox="0 0 24 24" fill="none" xmlns="http://www.w3.org/2000/svg">
<g clip-path="url(#clip0_326_1523)">
<path d="M23.5992 9.21267L12.6 1.21327C12.2 0.913287 11.8 0.913287 11.4001 1.21327L0.400816 9.21267C-0.399143 9.71265 0.100837 11.0125 1.00077 11.0125H3.00065V22.0118C3.00065 22.6117 3.40061 23.0117 4.00056 23.0117H19.9994C20.5994 23.0117 20.9993 22.6117 20.9993 22.0118V11.0125H22.9992C23.8992 11.0125 24.3991 9.71265 23.5992 9.21267ZM12 21.0119C8.70025 21.0119 6.00044 18.3121 6.00044 15.0123C6.00044 11.7125 8.70025 9.01272 12 9.01272C15.2998 9.01272 17.9996 11.7125 17.9996 15.0123C17.9996 18.3121 15.2998 21.0119 12 21.0119Z" fill="#313131"/>
<path d="M13.5035 13.5115V10.5117H10.5037V13.5115H7.50391V16.5113H10.5037V19.5111H13.5035V16.5113H16.5033V13.5115H13.5035Z" fill="#313131"/>
</g>
<defs>
<clipPath id="clip0_326_1523">
<rect width="24" height="24" fill="white"/>
</clipPath>
</defs>
</svg>
