<svg width="33" height="32" viewBox="0 0 33 32" fill="none" xmlns="http://www.w3.org/2000/svg">
<path d="M14.8964 31.3102L9.58431 26.0298C9.42292 25.868 9.33225 25.6487 9.33225 25.4199C9.33225 25.1912 9.42292 24.9718 9.58431 24.8101C9.7457 24.6484 9.96459 24.5575 10.1928 24.5575C10.4211 24.5575 10.64 24.6484 10.8014 24.8101L16.1134 30.1336C16.164 30.1848 16.2242 30.2254 16.2906 30.2531C16.3569 30.2809 16.4281 30.2951 16.5 30.2951C16.5719 30.2951 16.6431 30.2809 16.7094 30.2531C16.7758 30.2254 16.836 30.1848 16.8866 30.1336L22.2273 24.7671C22.3944 24.6091 22.6172 24.5242 22.8468 24.5309C23.0764 24.5376 23.2939 24.6355 23.4515 24.8029C23.6091 24.9704 23.6938 25.1937 23.6871 25.4238C23.6804 25.6539 23.5828 25.8718 23.4157 26.0298L18.1036 31.3532C17.8906 31.5621 17.6385 31.7268 17.3617 31.8378C17.085 31.9487 16.7891 32.0038 16.4911 31.9998C16.193 31.9958 15.8987 31.9328 15.625 31.8145C15.3514 31.6961 15.1037 31.5247 14.8964 31.3102ZM22.2273 7.20395C22.3944 7.36189 22.6172 7.44683 22.8468 7.4401C23.0764 7.43338 23.2939 7.33553 23.4515 7.16808C23.6091 7.00064 23.6938 6.77731 23.6871 6.54723C23.6804 6.31716 23.5828 6.09918 23.4157 5.94125L18.1036 0.660836C17.6796 0.237619 17.1056 0 16.5072 0C15.9087 0 15.3347 0.237619 14.9107 0.660836L9.58431 5.94125C9.50158 6.01945 9.43502 6.11321 9.38845 6.21719C9.34188 6.32116 9.31619 6.43331 9.31287 6.54723C9.30955 6.66116 9.32865 6.77462 9.36908 6.88114C9.40951 6.98767 9.47048 7.08517 9.54852 7.16808C9.62655 7.25099 9.72011 7.31769 9.82386 7.36436C9.92762 7.41104 10.0395 7.43677 10.1532 7.4401C10.2669 7.44343 10.3801 7.42429 10.4864 7.38378C10.5927 7.34326 10.69 7.28215 10.7727 7.20395L16.1134 1.8805C16.164 1.8293 16.2242 1.78867 16.2906 1.76093C16.3569 1.7332 16.4281 1.71892 16.5 1.71892C16.5719 1.71892 16.6431 1.7332 16.7094 1.76093C16.7758 1.78867 16.836 1.8293 16.8866 1.8805L22.2273 7.20395ZM16.5 20.4337C15.6221 20.4337 14.764 20.1728 14.034 19.684C13.3041 19.1953 12.7352 18.5005 12.3992 17.6877C12.0633 16.875 11.9754 15.9806 12.1466 15.1177C12.3179 14.2548 12.7407 13.4623 13.3614 12.8402C13.9822 12.2181 14.7731 11.7944 15.6341 11.6228C16.4951 11.4512 17.3875 11.5393 18.1986 11.8759C19.0097 12.2126 19.7029 12.7827 20.1906 13.5142C20.6783 14.2457 20.9386 15.1057 20.9386 15.9855C20.9386 17.1652 20.471 18.2966 19.6386 19.1308C18.8062 19.965 17.6772 20.4337 16.5 20.4337ZM16.5 18.7118C17.0381 18.7118 17.564 18.5519 18.0114 18.2523C18.4588 17.9528 18.8075 17.527 19.0134 17.0288C19.2193 16.5306 19.2732 15.9825 19.1682 15.4536C19.0632 14.9248 18.8041 14.439 18.4237 14.0577C18.0432 13.6764 17.5585 13.4168 17.0307 13.3116C16.503 13.2064 15.956 13.2604 15.4589 13.4667C14.9618 13.6731 14.537 14.0225 14.238 14.4709C13.9391 14.9192 13.7795 15.4463 13.7795 15.9855C13.7795 16.7086 14.0662 17.402 14.5763 17.9133C15.0865 18.4246 15.7785 18.7118 16.5 18.7118Z" fill="white"/>
</svg>
