<svg width="18" height="18" viewBox="0 0 18 18" fill="none" xmlns="http://www.w3.org/2000/svg">
<path d="M9.00168 1.14453C11.1365 1.14453 11.4028 1.15239 12.2404 1.19167C13.0772 1.23096 13.6468 1.36217 14.1481 1.55703C14.6666 1.7566 15.1035 2.02688 15.5404 2.46296C15.9399 2.85573 16.2491 3.33086 16.4463 3.85525C16.6404 4.35575 16.7724 4.92617 16.8117 5.76296C16.8486 6.60053 16.8588 6.86689 16.8588 9.00168C16.8588 11.1365 16.8509 11.4028 16.8117 12.2404C16.7724 13.0772 16.6404 13.6468 16.4463 14.1481C16.2496 14.6728 15.9404 15.148 15.5404 15.5404C15.1475 15.9397 14.6724 16.2489 14.1481 16.4463C13.6476 16.6404 13.0772 16.7724 12.2404 16.8117C11.4028 16.8486 11.1365 16.8588 9.00168 16.8588C6.86689 16.8588 6.60053 16.8509 5.76296 16.8117C4.92617 16.7724 4.35653 16.6404 3.85525 16.4463C3.33065 16.2495 2.85545 15.9402 2.46296 15.5404C2.06335 15.1477 1.7542 14.6725 1.55703 14.1481C1.36217 13.6476 1.23096 13.0772 1.19167 12.2404C1.15474 11.4028 1.14453 11.1365 1.14453 9.00168C1.14453 6.86689 1.15239 6.60053 1.19167 5.76296C1.23096 4.92539 1.36217 4.35653 1.55703 3.85525C1.75364 3.33053 2.06287 2.85528 2.46296 2.46296C2.85555 2.06322 3.33073 1.75403 3.85525 1.55703C4.35653 1.36217 4.92539 1.23096 5.76296 1.19167C6.60053 1.15474 6.86689 1.14453 9.00168 1.14453ZM9.00168 5.0731C7.95975 5.0731 6.9605 5.487 6.22375 6.22375C5.487 6.9605 5.0731 7.95975 5.0731 9.00168C5.0731 10.0436 5.487 11.0428 6.22375 11.7796C6.9605 12.5163 7.95975 12.9303 9.00168 12.9303C10.0436 12.9303 11.0428 12.5163 11.7796 11.7796C12.5163 11.0428 12.9303 10.0436 12.9303 9.00168C12.9303 7.95975 12.5163 6.9605 11.7796 6.22375C11.0428 5.487 10.0436 5.0731 9.00168 5.0731ZM14.1089 4.87667C14.1089 4.6162 14.0054 4.36638 13.8211 4.18219C13.637 3.998 13.3872 3.89453 13.1267 3.89453C12.8662 3.89453 12.6164 3.998 12.4322 4.18219C12.248 4.36638 12.1445 4.6162 12.1445 4.87667C12.1445 5.13716 12.248 5.38697 12.4322 5.57115C12.6164 5.75534 12.8662 5.85881 13.1267 5.85881C13.3872 5.85881 13.637 5.75534 13.8211 5.57115C14.0054 5.38697 14.1089 5.13716 14.1089 4.87667ZM9.00168 6.64453C9.62683 6.64453 10.2264 6.89288 10.6684 7.33492C11.1105 7.77697 11.3588 8.37653 11.3588 9.00168C11.3588 9.62683 11.1105 10.2264 10.6684 10.6684C10.2264 11.1105 9.62683 11.3588 9.00168 11.3588C8.37653 11.3588 7.77697 11.1105 7.33492 10.6684C6.89288 10.2264 6.64453 9.62683 6.64453 9.00168C6.64453 8.37653 6.89288 7.77697 7.33492 7.33492C7.77697 6.89288 8.37653 6.64453 9.00168 6.64453Z" fill="#405BE7"/>
</svg>
