<svg width="24" height="24" viewBox="0 0 24 24" fill="none" xmlns="http://www.w3.org/2000/svg">
<path d="M20.4543 16.0953L19.6667 11.9028C19.2992 9.89284 17.5443 8.43033 15.4967 8.43033H12.8267C12.9093 6.21032 11.9718 2.80533 7.85424 1.61281C7.62174 1.54533 7.38178 1.59033 7.19428 1.73283C7.00678 1.87533 6.89426 2.09282 6.89426 2.33282V3.78782L2.91176 5.7828C2.14675 6.16531 1.65177 6.96782 1.65177 7.82282C1.65177 8.71532 2.14675 9.50282 2.94175 9.89283L4.76424 10.7628L3.86428 16.1928L3.74425 16.1478C2.58176 15.7278 1.29925 16.3353 0.879246 17.4978C0.466761 18.6603 1.07425 19.9428 2.23675 20.3553L4.26175 21.0828C6.74425 21.9678 9.34678 22.4178 12.0018 22.4178C14.6493 22.4178 17.2518 21.9678 19.7343 21.0828L21.7668 20.3553C22.3293 20.1603 22.7793 19.7478 23.0343 19.2078C23.2893 18.6678 23.3193 18.0603 23.1168 17.4978C22.7268 16.4028 21.5568 15.8103 20.4543 16.0953ZM9.07675 17.4228C9.44428 16.1028 10.6443 15.1803 12.0093 15.1803C12.6168 15.1803 13.2017 15.3603 13.7043 15.6978C14.2068 16.0428 14.5968 16.5228 14.8218 17.0853L15.0618 17.6853C13.0592 18.0153 11.0118 18.0153 9.00176 17.6928L9.07675 17.4228ZM21.6768 18.5703C21.5942 18.7428 21.4443 18.8778 21.2642 18.9453L19.2318 19.6728C14.5893 21.3303 9.40674 21.3303 4.77175 19.6728L2.73928 18.9453C2.35677 18.8103 2.16176 18.3903 2.29676 18.0078C2.40177 17.7003 2.68678 17.5128 2.98675 17.5128C3.06928 17.5128 3.15928 17.5278 3.23426 17.5578L5.26678 18.2778C9.59425 19.8228 14.4093 19.8228 18.7367 18.2778L20.7618 17.5578C21.1518 17.4228 21.5718 17.6178 21.7068 18.0078C21.7743 18.1878 21.7668 18.3903 21.6768 18.5703Z" fill="white"/>
</svg>
