<svg width="35" height="51" viewBox="0 0 35 51" fill="none" xmlns="http://www.w3.org/2000/svg">
<path d="M17.5 1.89453C26.3467 1.89453 33.5 8.98686 33.5 17.7129C33.5 19.2102 32.9946 21.2342 32.0938 23.6133C31.201 25.971 29.9534 28.5921 28.542 31.2549C25.7195 36.5797 22.2803 42.0022 19.8291 45.7021C18.7053 47.3985 16.2947 47.3985 15.1709 45.7021C12.7197 42.0022 9.28046 36.5797 6.45801 31.2549C5.04658 28.5921 3.79904 25.971 2.90625 23.6133C2.00538 21.2342 1.50004 19.2102 1.5 17.7129C1.5 8.98686 8.65328 1.89453 17.5 1.89453Z" stroke="white" stroke-width="2"/>
<circle cx="18" cy="17" r="7" stroke="white" stroke-width="2"/>
</svg>
