<svg width="32" height="33" viewBox="0 0 32 33" fill="none" xmlns="http://www.w3.org/2000/svg">
<path d="M12.2549 1.4702C14.4449 -0.27913 17.5551 -0.27913 19.7451 1.4702L27.7451 7.86083C29.1702 8.99936 30 10.7243 30 12.5483V26.0278C30 29.3415 27.3137 32.0278 24 32.0278H8C4.6863 32.0278 2.00001 29.3415 2 26.0278L2 12.5483C2.00003 10.7243 2.82983 8.99936 4.25488 7.86083L12.2549 1.4702ZM15.0967 7.87157V9.76122C13.8424 9.87572 12.8047 10.3051 11.9834 11.0493C11.1472 11.8079 10.7286 12.7812 10.7285 13.9692C10.7285 15.2717 11.1915 16.2665 12.1172 16.9536C12.8191 17.4546 13.8124 17.9412 15.0967 18.4136V22.8804C13.693 22.7229 12.7372 22.0211 12.2295 20.7759L10.0117 21.9995C10.4 22.9872 11.0349 23.7678 11.916 24.3403C12.797 24.9127 13.8574 25.2346 15.0967 25.3061V27.1958H16.5527V25.2847C17.8817 25.1272 18.9495 24.6621 19.7559 23.8891C20.5622 23.1019 20.9648 22.1142 20.9648 20.9263C21.0395 19.7525 20.5767 18.7578 19.5762 17.9419C19.173 17.5841 18.5239 17.2327 17.6279 16.8891C17.4786 16.8319 17.12 16.6966 16.5527 16.4819V12.23C17.4934 12.4304 18.1576 12.996 18.5459 13.9263L20.7188 12.7241C19.9273 11.0208 18.5387 10.0404 16.5527 9.7827V7.87157H15.0967ZM16.5527 18.9507C17.2097 19.2226 17.6802 19.5095 17.9639 19.81C18.2474 20.1106 18.3896 20.4899 18.3896 20.9477C18.3896 21.42 18.225 21.8279 17.8965 22.1714C17.5829 22.5149 17.1351 22.7444 16.5527 22.8589V18.9507ZM15.0967 15.9233C14.4399 15.6229 13.9769 15.3296 13.708 15.0434C13.4392 14.7572 13.3047 14.3987 13.3047 13.9692C13.3047 13.4969 13.4618 13.1034 13.7754 12.7886C14.1039 12.4738 14.5443 12.2729 15.0967 12.187V15.9233Z" fill="#405BE7"/>
</svg>
