<svg width="24" height="24" viewBox="0 0 24 18" fill="none" xmlns="http://www.w3.org/2000/svg">
<path d="M22.2387 12.7495C22.4151 12.6198 22.5541 12.4459 22.6418 12.2454C22.7294 12.0448 22.7627 11.8246 22.7381 11.6071C22.7135 11.3896 22.6319 11.1824 22.5017 11.0065C22.3714 10.8305 22.1971 10.6921 21.9962 10.605V8.89453L20.9962 9.31953V10.605C20.7953 10.692 20.6208 10.8305 20.4905 11.0065C20.3602 11.1825 20.2786 11.3897 20.254 11.6073C20.2294 11.8249 20.2626 12.0452 20.3504 12.2458C20.4381 12.4464 20.5773 12.6204 20.7537 12.75C20.5968 12.8653 20.4691 13.0159 20.3809 13.1896C20.2928 13.3633 20.2466 13.5553 20.2462 13.75V14.9995C20.2462 15.1321 20.2989 15.2593 20.3927 15.3531C20.4864 15.4469 20.6136 15.4995 20.7462 15.4995H22.2462C22.3788 15.4995 22.506 15.4469 22.5998 15.3531C22.6936 15.2593 22.7462 15.1321 22.7462 14.9995V13.7495C22.7458 13.5548 22.6997 13.3628 22.6116 13.1891C22.5234 13.0154 22.3957 12.8648 22.2387 12.7495Z" fill="#313131"/>
<path d="M19.5 9.95508V13.6551C19.5027 14.0852 19.3935 14.5087 19.1832 14.8838C18.9728 15.259 18.6684 15.573 18.3 15.7951C16.3882 16.9116 14.214 17.5 12 17.5C9.78607 17.5 7.61186 16.9116 5.70005 15.7951C5.33165 15.573 5.02732 15.259 4.81694 14.8838C4.60656 14.5087 4.49735 14.0852 4.50005 13.6551V9.95508L10.635 12.5501C11.0672 12.7316 11.5313 12.8251 12 12.8251C12.4688 12.8251 12.9329 12.7316 13.365 12.5501L19.5 9.95508Z" fill="#313131"/>
<path d="M23.0162 4.6186L12.9722 0.368599C12.6635 0.238758 12.332 0.171875 11.9972 0.171875C11.6623 0.171875 11.3308 0.238758 11.0222 0.368599L0.978156 4.6186C0.706676 4.73343 0.475046 4.9257 0.312197 5.1714C0.149348 5.4171 0.0625 5.70533 0.0625 6.0001C0.0625 6.29487 0.149348 6.5831 0.312197 6.8288C0.475046 7.0745 0.706676 7.26677 0.978156 7.3816L11.0222 11.6316C11.3308 11.7616 11.6623 11.8285 11.9972 11.8285C12.332 11.8285 12.6635 11.7616 12.9722 11.6316L23.0162 7.3816C23.2876 7.26677 23.5193 7.0745 23.6821 6.8288C23.845 6.5831 23.9318 6.29487 23.9318 6.0001C23.9318 5.70533 23.845 5.4171 23.6821 5.1714C23.5193 4.9257 23.2876 4.73343 23.0162 4.6186Z" fill="#313131"/>
</svg>
