<svg width="32" height="32" viewBox="0 0 32 32" fill="none" xmlns="http://www.w3.org/2000/svg">
<path d="M16 0C12.8355 0 9.74207 0.938383 7.11088 2.69649C4.4797 4.45459 2.42894 6.95344 1.21793 9.87706C0.00693254 12.8007 -0.309921 16.0177 0.307443 19.1214C0.924806 22.2251 2.44866 25.0761 4.6863 27.3137C6.92394 29.5513 9.77487 31.0752 12.8786 31.6926C15.9823 32.3099 19.1993 31.9931 22.1229 30.7821C25.0466 29.5711 27.5454 27.5203 29.3035 24.8891C31.0616 22.2579 32 19.1645 32 16C32 13.8988 31.5861 11.8183 30.7821 9.87706C29.978 7.93585 28.7994 6.17203 27.3137 4.68629C25.828 3.20055 24.0641 2.022 22.1229 1.21793C20.1817 0.413852 18.1012 0 16 0ZM23.536 12.336L13.936 21.936C13.7873 22.086 13.6103 22.205 13.4153 22.2862C13.2204 22.3674 13.0112 22.4093 12.8 22.4093C12.5888 22.4093 12.3797 22.3674 12.1847 22.2862C11.9897 22.205 11.8127 22.086 11.664 21.936L8.46401 18.736C8.31482 18.5868 8.19649 18.4097 8.11575 18.2148C8.03501 18.0199 7.99346 17.811 7.99346 17.6C7.99346 17.389 8.03501 17.1801 8.11575 16.9852C8.19649 16.7903 8.31482 16.6132 8.46401 16.464C8.61319 16.3148 8.79029 16.1965 8.98521 16.1157C9.18012 16.035 9.38903 15.9934 9.60001 15.9934C9.81098 15.9934 10.0199 16.035 10.2148 16.1157C10.4097 16.1965 10.5868 16.3148 10.736 16.464L12.8 18.544L21.264 10.064C21.5653 9.76271 21.9739 9.59345 22.4 9.59345C22.8261 9.59345 23.2347 9.76271 23.536 10.064C23.8373 10.3653 24.0065 10.7739 24.0065 11.2C24.0065 11.6261 23.8373 12.0347 23.536 12.336Z" fill="#405BE7"/>
</svg>
