<svg width="24" height="24" viewBox="0 0 24 24" fill="none" xmlns="http://www.w3.org/2000/svg">
<g clip-path="url(#clip0_4192_3156)">
<path d="M23.3772 20.4059L13.9663 10.995L2.9713 0H2.11204L1.93658 0.445828C1.4735 1.62258 1.27564 2.82614 1.36447 3.92625C1.46572 5.18025 1.94211 6.26592 2.74222 7.06603L11.3255 15.6493L12.4576 14.5172L20.3929 23.3903C21.1822 24.1797 22.5409 24.2265 23.3772 23.3903C24.2 22.5675 24.2 21.2287 23.3772 20.4059Z" fill="white"/>
<path d="M7.34336 13.6621L0.620969 20.3845C-0.201781 21.2073 -0.201781 22.546 0.620969 23.3688C1.40256 24.1504 2.75467 24.2194 3.60527 23.3688L10.3277 16.6464L7.34336 13.6621Z" fill="white"/>
<path d="M22.9796 3.99475L19.1663 7.80803L18.1715 6.81325L21.9848 2.99992L20.99 2.00514L17.1768 5.81842L16.182 4.82364L19.9953 1.01036L19.0006 0.015625L14.0267 4.98953C13.4182 5.59802 13.0548 6.40595 13.0035 7.26461C12.9905 7.48216 12.9412 7.69614 12.8594 7.89967L16.0904 11.1307C16.294 11.0488 16.508 10.9996 16.7255 10.9866C17.5841 10.9353 18.3921 10.5719 19.0006 9.96344L23.9745 4.98958L22.9796 3.99475Z" fill="white"/>
</g>
<defs>
<clipPath id="clip0_4192_3156">
<rect width="24" height="24" fill="white"/>
</clipPath>
</defs>
</svg>
