<svg width="24" height="22" viewBox="0 0 24 22" fill="none" xmlns="http://www.w3.org/2000/svg">
<path d="M20.4543 15.0953L19.6667 10.9028C19.2992 8.89284 17.5443 7.43033 15.4967 7.43033H12.8267C12.9093 5.21032 11.9718 1.80533 7.85424 0.612809C7.62174 0.545331 7.38178 0.590331 7.19428 0.732831C7.00678 0.875331 6.89426 1.09282 6.89426 1.33282V2.78782L2.91176 4.7828C2.14675 5.16531 1.65177 5.96782 1.65177 6.82282C1.65177 7.71532 2.14675 8.50282 2.94175 8.89283L4.76424 9.76281L3.86428 15.1928L3.74425 15.1478C2.58176 14.7278 1.29925 15.3353 0.879246 16.4978C0.466761 17.6603 1.07425 18.9428 2.23675 19.3553L4.26175 20.0828C6.74425 20.9678 9.34678 21.4178 12.0018 21.4178C14.6493 21.4178 17.2518 20.9678 19.7343 20.0828L21.7668 19.3553C22.3293 19.1603 22.7793 18.7478 23.0343 18.2078C23.2893 17.6678 23.3193 17.0603 23.1168 16.4978C22.7268 15.4028 21.5568 14.8103 20.4543 15.0953ZM9.07675 16.4228C9.44428 15.1028 10.6443 14.1803 12.0093 14.1803C12.6168 14.1803 13.2017 14.3603 13.7043 14.6978C14.2068 15.0428 14.5968 15.5228 14.8218 16.0853L15.0618 16.6853C13.0592 17.0153 11.0118 17.0153 9.00176 16.6928L9.07675 16.4228ZM21.6768 17.5703C21.5942 17.7428 21.4443 17.8778 21.2642 17.9453L19.2318 18.6728C14.5893 20.3303 9.40674 20.3303 4.77175 18.6728L2.73928 17.9453C2.35677 17.8103 2.16176 17.3903 2.29676 17.0078C2.40177 16.7003 2.68678 16.5128 2.98675 16.5128C3.06928 16.5128 3.15928 16.5278 3.23426 16.5578L5.26678 17.2778C9.59425 18.8228 14.4093 18.8228 18.7367 17.2778L20.7618 16.5578C21.1518 16.4228 21.5718 16.6178 21.7068 17.0078C21.7743 17.1878 21.7668 17.3903 21.6768 17.5703Z" fill="white"/>
</svg>
