<svg width="24" height="24" viewBox="0 0 24 24" fill="none" xmlns="http://www.w3.org/2000/svg">
<path d="M19 6.5H17C17 3.7 14.8 1.5 12 1.5C9.2 1.5 7 3.7 7 6.5H5C3.9 6.5 3 7.4 3 8.5V20.5C3 21.6 3.9 22.5 5 22.5H19C20.1 22.5 21 21.6 21 20.5V8.5C21 7.4 20.1 6.5 19 6.5ZM12 3.5C13.7 3.5 15 4.8 15 6.5H9C9 4.8 10.3 3.5 12 3.5ZM12 13.5C9.7 13.5 7.7 11.9 7.2 9.7C7 9.1 7.5 8.5 8.1 8.5C8.6 8.5 9 8.8 9.1 9.3C9.5 10.6 10.6 11.5 12 11.5C13.4 11.5 14.5 10.6 14.9 9.3C15 8.8 15.4 8.5 15.9 8.5C16.5 8.5 17 9.1 16.9 9.8C16.3 11.9 14.3 13.5 12 13.5Z" fill="white"/>
</svg>
